<?xml version="1.0" encoding="UTF-8" standalone="no"?>
<!-- Created with Inkscape (http://www.inkscape.org/) -->

<svg
   version="1.1"
   id="svg2"
   width="1588"
   height="1122.6667"
   viewBox="0 0 1588 1122.6667"
   sodipodi:docname="SensorPlateV1.svg"
   inkscape:version="1.2 (dc2aedaf03, 2022-05-15)"
   xmlns:inkscape="http://www.inkscape.org/namespaces/inkscape"
   xmlns:sodipodi="http://sodipodi.sourceforge.net/DTD/sodipodi-0.dtd"
   xmlns="http://www.w3.org/2000/svg"
   xmlns:svg="http://www.w3.org/2000/svg">
  <defs
     id="defs6">
    <clipPath
       clipPathUnits="userSpaceOnUse"
       id="clipPath18">
      <path
         d="m 3958,7759 h 4321 v 4321 H 3958 V 7759"
         id="path16" />
    </clipPath>
  </defs>
  <sodipodi:namedview
     id="namedview4"
     pagecolor="#ffffff"
     bordercolor="#000000"
     borderopacity="0.25"
     inkscape:showpageshadow="2"
     inkscape:pageopacity="0.0"
     inkscape:pagecheckerboard="0"
     inkscape:deskcolor="#d1d1d1"
     showgrid="false"
     inkscape:zoom="3.4609572"
     inkscape:cx="551.72598"
     inkscape:cy="338.63464"
     inkscape:window-width="2560"
     inkscape:window-height="1387"
     inkscape:window-x="-8"
     inkscape:window-y="-8"
     inkscape:window-maximized="1"
     inkscape:current-layer="g10">
    <inkscape:page
       x="0"
       y="0"
       id="page8"
       width="1588"
       height="1122.6667" />
  </sodipodi:namedview>
  <g
     id="g10"
     inkscape:groupmode="layer"
     inkscape:label="Page 1"
     transform="matrix(0.08,0,0,-0.08,0,1122.6667)">
    <g
       id="g12"
       style="stroke:#ff0000;stroke-opacity:1;stroke-width:0.04724413;stroke-dasharray:none">
      <g
         id="g14"
         clip-path="url(#clipPath18)"
         style="stroke:#ff0000;stroke-opacity:1;stroke-width:0.04724413;stroke-dasharray:none">
        <g
           id="g20"
           transform="rotate(90,-2254.5,8374)"
           style="stroke:#ff0000;stroke-opacity:1;stroke-width:0.04724413;stroke-dasharray:none">
          <path
             d="M 0,-236.5 C 130.61536,-236.5 236.5,-130.61536 236.5,0 236.5,130.61536 130.61536,236.5 0,236.5 -130.61536,236.5 -236.5,130.61536 -236.5,0 -236.5,-130.61536 -130.61536,-236.5 0,-236.5"
             style="fill:none;stroke:#ff0000;stroke-width:0.04724413;stroke-linecap:round;stroke-linejoin:round;stroke-miterlimit:10;stroke-dasharray:none;stroke-opacity:1"
             id="path22" />
        </g>
        <path
           d="m 5882,8974 v 473 h 473 v -473 h -473"
           style="fill:none;stroke:#ff0000;stroke-width:0.04724413;stroke-linecap:round;stroke-linejoin:round;stroke-miterlimit:10;stroke-dasharray:none;stroke-opacity:1"
           id="path24" />
        <g
           id="g26"
           transform="rotate(90,-2077.5,7488)"
           style="stroke:#ff0000;stroke-opacity:1;stroke-width:0.04724413;stroke-dasharray:none">
          <path
             d="M 0,-75.5 C 41.6975,-75.5 75.5,-41.6975 75.5,0 75.5,41.6975 41.6975,75.5 0,75.5 -41.6975,75.5 -75.5,41.6975 -75.5,0 -75.5,-41.6975 -41.6975,-75.5 0,-75.5"
             style="fill:none;stroke:#ff0000;stroke-width:0.04724413;stroke-linecap:round;stroke-linejoin:round;stroke-miterlimit:10;stroke-dasharray:none;stroke-opacity:1"
             id="path28" />
        </g>
        <g
           id="g30"
           transform="rotate(90,-1723.5,8551)"
           style="stroke:#ff0000;stroke-opacity:1;stroke-width:0.04724413;stroke-dasharray:none">
          <path
             d="M 0,-75.5 C 41.6975,-75.5 75.5,-41.6975 75.5,0 75.5,41.6975 41.6975,75.5 0,75.5 -41.6975,75.5 -75.5,41.6975 -75.5,0 -75.5,-41.6975 -41.6975,-75.5 0,-75.5"
             style="fill:none;stroke:#ff0000;stroke-width:0.04724413;stroke-linecap:round;stroke-linejoin:round;stroke-miterlimit:10;stroke-dasharray:none;stroke-opacity:1"
             id="path32" />
        </g>
        <g
           id="g34"
           transform="rotate(90,-1369,8196.5)"
           style="stroke:#ff0000;stroke-opacity:1;stroke-width:0.04724413;stroke-dasharray:none">
          <path
             d="M 0,-75.5 C 41.6975,-75.5 75.5,-41.6975 75.5,0 75.5,41.6975 41.6975,75.5 0,75.5 -41.6975,75.5 -75.5,41.6975 -75.5,0 -75.5,-41.6975 -41.6975,-75.5 0,-75.5"
             style="fill:none;stroke:#ff0000;stroke-width:0.04724413;stroke-linecap:round;stroke-linejoin:round;stroke-miterlimit:10;stroke-dasharray:none;stroke-opacity:1"
             id="path36" />
        </g>
        <g
           id="g38"
           transform="rotate(90,-2432,7842.5)"
           style="stroke:#ff0000;stroke-opacity:1;stroke-width:0.04724413;stroke-dasharray:none">
          <path
             d="M 0,-75.5 C 41.6975,-75.5 75.5,-41.6975 75.5,0 75.5,41.6975 41.6975,75.5 0,75.5 -41.6975,75.5 -75.5,41.6975 -75.5,0 -75.5,-41.6975 -41.6975,-75.5 0,-75.5"
             style="fill:none;stroke:#ff0000;stroke-width:0.04724413;stroke-linecap:round;stroke-linejoin:round;stroke-miterlimit:10;stroke-dasharray:none;stroke-opacity:1"
             id="path40" />
        </g>
        <g
           id="g42"
           transform="rotate(90,-1723,7133.5)"
           style="stroke:#ff0000;stroke-opacity:1;stroke-width:0.04724413;stroke-dasharray:none">
          <path
             d="M 0,-75.5 C 41.6975,-75.5 75.5,-41.6975 75.5,0 75.5,41.6975 41.6975,75.5 0,75.5 -41.6975,75.5 -75.5,41.6975 -75.5,0 -75.5,-41.6975 -41.6975,-75.5 0,-75.5"
             style="fill:none;stroke:#ff0000;stroke-width:0.04724413;stroke-linecap:round;stroke-linejoin:round;stroke-miterlimit:10;stroke-dasharray:none;stroke-opacity:1"
             id="path44" />
        </g>
        <g
           id="g46"
           transform="rotate(90,-2078,8905.5)"
           style="stroke:#ff0000;stroke-opacity:1;stroke-width:0.04724413;stroke-dasharray:none">
          <path
             d="M 0,-75.5 C 41.6975,-75.5 75.5,-41.6975 75.5,0 75.5,41.6975 41.6975,75.5 0,75.5 -41.6975,75.5 -75.5,41.6975 -75.5,0 -75.5,-41.6975 -41.6975,-75.5 0,-75.5"
             style="fill:none;stroke:#ff0000;stroke-width:0.04724413;stroke-linecap:round;stroke-linejoin:round;stroke-miterlimit:10;stroke-dasharray:none;stroke-opacity:1"
             id="path48" />
        </g>
        <g
           id="g50"
           transform="rotate(90,-1014.5,7842)"
           style="stroke:#ff0000;stroke-opacity:1;stroke-width:0.04724413;stroke-dasharray:none">
          <path
             d="M 0,-75.5 C 41.6975,-75.5 75.5,-41.6975 75.5,0 75.5,41.6975 41.6975,75.5 0,75.5 -41.6975,75.5 -75.5,41.6975 -75.5,0 -75.5,-41.6975 -41.6975,-75.5 0,-75.5"
             style="fill:none;stroke:#ff0000;stroke-width:0.04724413;stroke-linecap:round;stroke-linejoin:round;stroke-miterlimit:10;stroke-dasharray:none;stroke-opacity:1"
             id="path52" />
        </g>
        <g
           id="g54"
           transform="rotate(90,-2786.5,8197)"
           style="stroke:#ff0000;stroke-opacity:1;stroke-width:0.04724413;stroke-dasharray:none">
          <path
             d="M 0,-75.5 C 41.6975,-75.5 75.5,-41.6975 75.5,0 75.5,41.6975 41.6975,75.5 0,75.5 -41.6975,75.5 -75.5,41.6975 -75.5,0 -75.5,-41.6975 -41.6975,-75.5 0,-75.5"
             style="fill:none;stroke:#ff0000;stroke-width:0.04724413;stroke-linecap:round;stroke-linejoin:round;stroke-miterlimit:10;stroke-dasharray:none;stroke-opacity:1"
             id="path56" />
        </g>
        <path
           d="m 5504,10156 v -473 h 1229 v 473 H 5504"
           style="fill:none;stroke:#ff0000;stroke-width:0.04724413;stroke-linecap:round;stroke-linejoin:round;stroke-miterlimit:10;stroke-dasharray:none;stroke-opacity:1"
           id="path58" />
        <path
           d="m 4701,10156 v -473 h 614 v 473 h -614"
           style="fill:none;stroke:#ff0000;stroke-width:0.04724413;stroke-linecap:round;stroke-linejoin:round;stroke-miterlimit:10;stroke-dasharray:none;stroke-opacity:1"
           id="path60" />
        <path
           d="m 6922,9683 h 614 v 473 h -614 v -473"
           style="fill:none;stroke:#ff0000;stroke-width:0.04724413;stroke-linecap:round;stroke-linejoin:round;stroke-miterlimit:10;stroke-dasharray:none;stroke-opacity:1"
           id="path62" />
        <g
           id="g64"
           transform="rotate(90,-1900.5,8020)"
           style="stroke:#ff0000;stroke-opacity:1;stroke-width:0.04724413;stroke-dasharray:none">
          <path
             d="m 0,-2008.5 c 1109.2639,0 2008.5,899.2361 2008.5,2008.5 0,1109.2639 -899.2361,2008.5 -2008.5,2008.5 -1109.2639,0 -2008.5,-899.2361 -2008.5,-2008.5 0,-1109.2639 899.2361,-2008.5 2008.5,-2008.5"
             style="fill:none;stroke:#ff0000;stroke-width:0.04724413;stroke-linecap:round;stroke-linejoin:round;stroke-miterlimit:10;stroke-dasharray:none;stroke-opacity:1"
             id="path66" />
        </g>
      </g>
    </g>
    <text
       xml:space="preserve"
       style="font-style:normal;font-variant:normal;font-weight:normal;font-stretch:normal;font-size:300px;font-family:sans-serif;-inkscape-font-specification:'sans-serif, Normal';font-variant-ligatures:normal;font-variant-caps:normal;font-variant-numeric:normal;font-variant-east-asian:normal;fill:none;stroke:#ff0000;stroke-width:0.04724413;stroke-dasharray:none;stroke-opacity:1"
       x="5504.2578"
       y="-11357.052"
       id="text1132"
       transform="scale(1,-1)"><tspan
         sodipodi:role="line"
         id="tspan1130"
         style="stroke:#0000ff;stroke-width:0.04724413;stroke-opacity:1;stroke-dasharray:none"
         x="5504.2578"
         y="-11357.052">JABA Circle </tspan><tspan
         sodipodi:role="line"
         style="stroke:#0000ff;stroke-width:0.04724413;stroke-opacity:1;stroke-dasharray:none"
         x="5504.2578"
         y="-10982.052"
         id="tspan1134">Thing</tspan></text>
    <text
       xml:space="preserve"
       style="font-style:normal;font-variant:normal;font-weight:normal;font-stretch:normal;font-size:300px;font-family:sans-serif;-inkscape-font-specification:'sans-serif, Normal';font-variant-ligatures:normal;font-variant-caps:normal;font-variant-numeric:normal;font-variant-east-asian:normal;fill:none;stroke:#0000ff;stroke-width:0.04724413;stroke-dasharray:none;stroke-opacity:1"
       x="5439.2466"
       y="-8258.1973"
       id="text1138"
       transform="scale(1,-1)"><tspan
         sodipodi:role="line"
         style="stroke-width:0.04724413;stroke-dasharray:none"
         x="5439.2466"
         y="-8258.1973"
         id="tspan1140">by el1321</tspan></text>
  </g>
</svg>
