<?xml version="1.0" encoding="UTF-8" standalone="no"?>
<!-- Created with Inkscape (http://www.inkscape.org/) -->

<svg
   version="1.1"
   id="svg2"
   width="1588"
   height="1122.6667"
   viewBox="0 0 1588 1122.6667"
   sodipodi:docname="chassisv6.svg"
   inkscape:version="1.2 (dc2aedaf03, 2022-05-15)"
   xmlns:inkscape="http://www.inkscape.org/namespaces/inkscape"
   xmlns:sodipodi="http://sodipodi.sourceforge.net/DTD/sodipodi-0.dtd"
   xmlns="http://www.w3.org/2000/svg"
   xmlns:svg="http://www.w3.org/2000/svg">
  <defs
     id="defs6">
    <clipPath
       clipPathUnits="userSpaceOnUse"
       id="clipPath18">
      <path
         d="m 2075,3929 h 8809 v 8808 H 2075 V 3929"
         id="path16" />
    </clipPath>
  </defs>
  <sodipodi:namedview
     id="namedview4"
     pagecolor="#ffffff"
     bordercolor="#000000"
     borderopacity="0.25"
     inkscape:showpageshadow="2"
     inkscape:pageopacity="0.0"
     inkscape:pagecheckerboard="0"
     inkscape:deskcolor="#d1d1d1"
     showgrid="false"
     inkscape:zoom="1"
     inkscape:cx="567.5"
     inkscape:cy="748.5"
     inkscape:window-width="1920"
     inkscape:window-height="1013"
     inkscape:window-x="-9"
     inkscape:window-y="-9"
     inkscape:window-maximized="1"
     inkscape:current-layer="g10">
    <inkscape:page
       x="0"
       y="0"
       id="page8"
       width="1588"
       height="1122.6667" />
  </sodipodi:namedview>
  <g
     id="g10"
     inkscape:groupmode="layer"
     inkscape:label="Page 1"
     transform="matrix(0.08,0,0,-0.08,0,1122.6667)">
    <g
       id="g12"
       style="stroke:#ff0000;stroke-opacity:1;stroke-width:0;stroke-dasharray:none"
       transform="matrix(1.0029312,0,0,1.0029312,-18.992555,-24.42549)">
      <g
         id="g14"
         clip-path="url(#clipPath18)"
         style="stroke:#ff0000;stroke-opacity:1;stroke-width:0;stroke-dasharray:none">
        <path
           d="m 5051,11994 h 567"
           style="fill:none;stroke:#ff0000;stroke-width:0;stroke-linecap:round;stroke-linejoin:round;stroke-miterlimit:10;stroke-dasharray:none;stroke-opacity:1"
           id="path20" />
        <path
           d="m 5051.5,11994 c -41.6973,0 -75.5,-33.803 -75.5,-75.5 0,-41.697 33.8027,-75.5 75.5,-75.5"
           style="fill:none;stroke:#ff0000;stroke-width:0;stroke-linecap:round;stroke-linejoin:round;stroke-miterlimit:10;stroke-dasharray:none;stroke-opacity:1"
           id="path22" />
        <path
           d="M 5618,11843 H 5051"
           style="fill:none;stroke:#ff0000;stroke-width:0;stroke-linecap:round;stroke-linejoin:round;stroke-miterlimit:10;stroke-dasharray:none;stroke-opacity:1"
           id="path24" />
        <g
           id="g26"
           transform="rotate(180,2809.25,5959.25)"
           style="stroke:#ff0000;stroke-opacity:1;stroke-width:0;stroke-dasharray:none">
          <path
             d="M 0,75.5 C -41.6975,75.5 -75.5,41.6975 -75.5,0 -75.5,-41.6975 -41.6975,-75.5 0,-75.5"
             style="fill:none;stroke:#ff0000;stroke-width:0;stroke-linecap:round;stroke-linejoin:round;stroke-miterlimit:10;stroke-dasharray:none;stroke-opacity:1"
             id="path28" />
        </g>
        <g
           id="g30"
           transform="rotate(180,3954.25,5959.25)"
           style="stroke:#ff0000;stroke-opacity:1;stroke-width:0;stroke-dasharray:none">
          <path
             d="M 0,75.5 C -41.6975,75.5 -75.5,41.6975 -75.5,0 -75.5,-41.6975 -41.6975,-75.5 0,-75.5"
             style="fill:none;stroke:#ff0000;stroke-width:0;stroke-linecap:round;stroke-linejoin:round;stroke-miterlimit:10;stroke-dasharray:none;stroke-opacity:1"
             id="path32" />
        </g>
        <path
           d="M 7908,11843 H 7341"
           style="fill:none;stroke:#ff0000;stroke-width:0;stroke-linecap:round;stroke-linejoin:round;stroke-miterlimit:10;stroke-dasharray:none;stroke-opacity:1"
           id="path34" />
        <path
           d="m 7341.5,11994 c -41.6973,0 -75.5,-33.803 -75.5,-75.5 0,-41.697 33.8027,-75.5 75.5,-75.5"
           style="fill:none;stroke:#ff0000;stroke-width:0;stroke-linecap:round;stroke-linejoin:round;stroke-miterlimit:10;stroke-dasharray:none;stroke-opacity:1"
           id="path36" />
        <path
           d="m 7341,11994 h 567"
           style="fill:none;stroke:#ff0000;stroke-width:0;stroke-linecap:round;stroke-linejoin:round;stroke-miterlimit:10;stroke-dasharray:none;stroke-opacity:1"
           id="path38" />
        <g
           id="g40"
           transform="rotate(180,3588.75,4729.75)"
           style="stroke:#ff0000;stroke-opacity:1;stroke-width:0;stroke-dasharray:none">
          <path
             d="M 0,75.5 C -41.6975,75.5 -75.5,41.6975 -75.5,0 -75.5,-41.6975 -41.6975,-75.5 0,-75.5"
             style="fill:none;stroke:#ff0000;stroke-width:0;stroke-linecap:round;stroke-linejoin:round;stroke-miterlimit:10;stroke-dasharray:none;stroke-opacity:1"
             id="path42" />
        </g>
        <path
           d="M 7177,9384 H 6704"
           style="fill:none;stroke:#ff0000;stroke-width:0;stroke-linecap:round;stroke-linejoin:round;stroke-miterlimit:10;stroke-dasharray:none;stroke-opacity:1"
           id="path44" />
        <path
           d="m 6704.5,9535 c -41.6973,0 -75.5,-33.8027 -75.5,-75.5 0,-41.6973 33.8027,-75.5 75.5,-75.5"
           style="fill:none;stroke:#ff0000;stroke-width:0;stroke-linecap:round;stroke-linejoin:round;stroke-miterlimit:10;stroke-dasharray:none;stroke-opacity:1"
           id="path46" />
        <path
           d="m 6704,9535 h 473"
           style="fill:none;stroke:#ff0000;stroke-width:0;stroke-linecap:round;stroke-linejoin:round;stroke-miterlimit:10;stroke-dasharray:none;stroke-opacity:1"
           id="path48" />
        <path
           d="m 5288,9535 h 567"
           style="fill:none;stroke:#ff0000;stroke-width:0;stroke-linecap:round;stroke-linejoin:round;stroke-miterlimit:10;stroke-dasharray:none;stroke-opacity:1"
           id="path50" />
        <path
           d="m 5288.5,9535 c -41.6973,0 -75.5,-33.8027 -75.5,-75.5 0,-41.6973 33.8027,-75.5 75.5,-75.5"
           style="fill:none;stroke:#ff0000;stroke-width:0;stroke-linecap:round;stroke-linejoin:round;stroke-miterlimit:10;stroke-dasharray:none;stroke-opacity:1"
           id="path52" />
        <path
           d="M 5855,9384 H 5288"
           style="fill:none;stroke:#ff0000;stroke-width:0;stroke-linecap:round;stroke-linejoin:round;stroke-miterlimit:10;stroke-dasharray:none;stroke-opacity:1"
           id="path54" />
        <g
           id="g56"
           transform="rotate(180,2927.75,4729.75)"
           style="stroke:#ff0000;stroke-opacity:1;stroke-width:0;stroke-dasharray:none">
          <path
             d="M 0,75.5 C -41.6975,75.5 -75.5,41.6975 -75.5,0 -75.5,-41.6975 -41.6975,-75.5 0,-75.5"
             style="fill:none;stroke:#ff0000;stroke-width:0;stroke-linecap:round;stroke-linejoin:round;stroke-miterlimit:10;stroke-dasharray:none;stroke-opacity:1"
             id="path58" />
        </g>
        <g
           id="g60"
           transform="rotate(90,-157,7050.5)"
           style="stroke:#ff0000;stroke-opacity:1;stroke-width:0;stroke-dasharray:none">
          <path
             d="M 0,-75.5 C 41.6975,-75.5 75.5,-41.6975 75.5,0 75.5,41.6975 41.6975,75.5 0,75.5 -41.6975,75.5 -75.5,41.6975 -75.5,0 -75.5,-41.6975 -41.6975,-75.5 0,-75.5"
             style="fill:none;stroke:#ff0000;stroke-width:0;stroke-linecap:round;stroke-linejoin:round;stroke-miterlimit:10;stroke-dasharray:none;stroke-opacity:1"
             id="path62" />
        </g>
        <g
           id="g64"
           transform="rotate(90,1438,6186.5)"
           style="stroke:#ff0000;stroke-opacity:1;stroke-width:0;stroke-dasharray:none">
          <path
             d="M 0,-75.5 C 41.6975,-75.5 75.5,-41.6975 75.5,0 75.5,41.6975 41.6975,75.5 0,75.5 -41.6975,75.5 -75.5,41.6975 -75.5,0 -75.5,-41.6975 -41.6975,-75.5 0,-75.5"
             style="fill:none;stroke:#ff0000;stroke-width:0;stroke-linecap:round;stroke-linejoin:round;stroke-miterlimit:10;stroke-dasharray:none;stroke-opacity:1"
             id="path66" />
        </g>
        <g
           id="g68"
           transform="rotate(90,-818,6389.5)"
           style="stroke:#ff0000;stroke-opacity:1;stroke-width:0;stroke-dasharray:none">
          <path
             d="M 0,-75.5 C 41.6975,-75.5 75.5,-41.6975 75.5,0 75.5,41.6975 41.6975,75.5 0,75.5 -41.6975,75.5 -75.5,41.6975 -75.5,0 -75.5,-41.6975 -41.6975,-75.5 0,-75.5"
             style="fill:none;stroke:#ff0000;stroke-width:0;stroke-linecap:round;stroke-linejoin:round;stroke-miterlimit:10;stroke-dasharray:none;stroke-opacity:1"
             id="path70" />
        </g>
        <g
           id="g72"
           transform="rotate(90,293.5,5042)"
           style="stroke:#ff0000;stroke-opacity:1;stroke-width:0;stroke-dasharray:none">
          <path
             d="M 0,-75.5 C 41.6975,-75.5 75.5,-41.6975 75.5,0 75.5,41.6975 41.6975,75.5 0,75.5 -41.6975,75.5 -75.5,41.6975 -75.5,0 -75.5,-41.6975 -41.6975,-75.5 0,-75.5"
             style="fill:none;stroke:#ff0000;stroke-width:0;stroke-linecap:round;stroke-linejoin:round;stroke-miterlimit:10;stroke-dasharray:none;stroke-opacity:1"
             id="path74" />
        </g>
        <g
           id="g76"
           transform="rotate(90,372.5,7289)"
           style="stroke:#ff0000;stroke-opacity:1;stroke-width:0;stroke-dasharray:none">
          <path
             d="M 0,-75.5 C 41.6975,-75.5 75.5,-41.6975 75.5,0 75.5,41.6975 41.6975,75.5 0,75.5 -41.6975,75.5 -75.5,41.6975 -75.5,0 -75.5,-41.6975 -41.6975,-75.5 0,-75.5"
             style="fill:none;stroke:#ff0000;stroke-width:0;stroke-linecap:round;stroke-linejoin:round;stroke-miterlimit:10;stroke-dasharray:none;stroke-opacity:1"
             id="path78" />
        </g>
        <g
           id="g80"
           transform="rotate(90,-572.5,5871)"
           style="stroke:#ff0000;stroke-opacity:1;stroke-width:0;stroke-dasharray:none">
          <path
             d="M 0,-75.5 C 41.6975,-75.5 75.5,-41.6975 75.5,0 75.5,41.6975 41.6975,75.5 0,75.5 -41.6975,75.5 -75.5,41.6975 -75.5,0 -75.5,-41.6975 -41.6975,-75.5 0,-75.5"
             style="fill:none;stroke:#ff0000;stroke-width:0;stroke-linecap:round;stroke-linejoin:round;stroke-miterlimit:10;stroke-dasharray:none;stroke-opacity:1"
             id="path82" />
        </g>
        <g
           id="g84"
           transform="rotate(90,1081,6107.5)"
           style="stroke:#ff0000;stroke-opacity:1;stroke-width:0;stroke-dasharray:none">
          <path
             d="M 0,-75.5 C 41.6975,-75.5 75.5,-41.6975 75.5,0 75.5,41.6975 41.6975,75.5 0,75.5 -41.6975,75.5 -75.5,41.6975 -75.5,0 -75.5,-41.6975 -41.6975,-75.5 0,-75.5"
             style="fill:none;stroke:#ff0000;stroke-width:0;stroke-linecap:round;stroke-linejoin:round;stroke-miterlimit:10;stroke-dasharray:none;stroke-opacity:1"
             id="path86" />
        </g>
        <g
           id="g88"
           transform="rotate(90,372.5,5399)"
           style="stroke:#ff0000;stroke-opacity:1;stroke-width:0;stroke-dasharray:none">
          <path
             d="M 0,-75.5 C 41.6975,-75.5 75.5,-41.6975 75.5,0 75.5,41.6975 41.6975,75.5 0,75.5 -41.6975,75.5 -75.5,41.6975 -75.5,0 -75.5,-41.6975 -41.6975,-75.5 0,-75.5"
             style="fill:none;stroke:#ff0000;stroke-width:0;stroke-linecap:round;stroke-linejoin:round;stroke-miterlimit:10;stroke-dasharray:none;stroke-opacity:1"
             id="path90" />
        </g>
        <g
           id="g92"
           transform="rotate(90,-809,6107.5)"
           style="stroke:#ff0000;stroke-opacity:1;stroke-width:0;stroke-dasharray:none">
          <path
             d="M 0,-75.5 C 41.6975,-75.5 75.5,-41.6975 75.5,0 75.5,41.6975 41.6975,75.5 0,75.5 -41.6975,75.5 -75.5,41.6975 -75.5,0 -75.5,-41.6975 -41.6975,-75.5 0,-75.5"
             style="fill:none;stroke:#ff0000;stroke-width:0;stroke-linecap:round;stroke-linejoin:round;stroke-miterlimit:10;stroke-dasharray:none;stroke-opacity:1"
             id="path94" />
        </g>
        <g
           id="g96"
           transform="rotate(90,609,7052.5)"
           style="stroke:#ff0000;stroke-opacity:1;stroke-width:0;stroke-dasharray:none">
          <path
             d="M 0,-75.5 C 41.6975,-75.5 75.5,-41.6975 75.5,0 75.5,41.6975 41.6975,75.5 0,75.5 -41.6975,75.5 -75.5,41.6975 -75.5,0 -75.5,-41.6975 -41.6975,-75.5 0,-75.5"
             style="fill:none;stroke:#ff0000;stroke-width:0;stroke-linecap:round;stroke-linejoin:round;stroke-miterlimit:10;stroke-dasharray:none;stroke-opacity:1"
             id="path98" />
        </g>
        <g
           id="g100"
           transform="rotate(90,136,7052.5)"
           style="stroke:#ff0000;stroke-opacity:1;stroke-width:0;stroke-dasharray:none">
          <path
             d="M 0,-75.5 C 41.6975,-75.5 75.5,-41.6975 75.5,0 75.5,41.6975 41.6975,75.5 0,75.5 -41.6975,75.5 -75.5,41.6975 -75.5,0 -75.5,-41.6975 -41.6975,-75.5 0,-75.5"
             style="fill:none;stroke:#ff0000;stroke-width:0;stroke-linecap:round;stroke-linejoin:round;stroke-miterlimit:10;stroke-dasharray:none;stroke-opacity:1"
             id="path102" />
        </g>
        <g
           id="g104"
           transform="rotate(90,-336.5,5635)"
           style="stroke:#ff0000;stroke-opacity:1;stroke-width:0;stroke-dasharray:none">
          <path
             d="M 0,-75.5 C 41.6975,-75.5 75.5,-41.6975 75.5,0 75.5,41.6975 41.6975,75.5 0,75.5 -41.6975,75.5 -75.5,41.6975 -75.5,0 -75.5,-41.6975 -41.6975,-75.5 0,-75.5"
             style="fill:none;stroke:#ff0000;stroke-width:0;stroke-linecap:round;stroke-linejoin:round;stroke-miterlimit:10;stroke-dasharray:none;stroke-opacity:1"
             id="path106" />
        </g>
        <g
           id="g108"
           transform="rotate(90,1554,6107.5)"
           style="stroke:#ff0000;stroke-opacity:1;stroke-width:0;stroke-dasharray:none">
          <path
             d="M 0,-75.5 C 41.6975,-75.5 75.5,-41.6975 75.5,0 75.5,41.6975 41.6975,75.5 0,75.5 -41.6975,75.5 -75.5,41.6975 -75.5,0 -75.5,-41.6975 -41.6975,-75.5 0,-75.5"
             style="fill:none;stroke:#ff0000;stroke-width:0;stroke-linecap:round;stroke-linejoin:round;stroke-miterlimit:10;stroke-dasharray:none;stroke-opacity:1"
             id="path110" />
        </g>
        <g
           id="g112"
           transform="rotate(90,372.5,4926)"
           style="stroke:#ff0000;stroke-opacity:1;stroke-width:0;stroke-dasharray:none">
          <path
             d="M 0,-75.5 C 41.6975,-75.5 75.5,-41.6975 75.5,0 75.5,41.6975 41.6975,75.5 0,75.5 -41.6975,75.5 -75.5,41.6975 -75.5,0 -75.5,-41.6975 -41.6975,-75.5 0,-75.5"
             style="fill:none;stroke:#ff0000;stroke-width:0;stroke-linecap:round;stroke-linejoin:round;stroke-miterlimit:10;stroke-dasharray:none;stroke-opacity:1"
             id="path114" />
        </g>
        <g
           id="g116"
           transform="rotate(90,-572.5,6344)"
           style="stroke:#ff0000;stroke-opacity:1;stroke-width:0;stroke-dasharray:none">
          <path
             d="M 0,-75.5 C 41.6975,-75.5 75.5,-41.6975 75.5,0 75.5,41.6975 41.6975,75.5 0,75.5 -41.6975,75.5 -75.5,41.6975 -75.5,0 -75.5,-41.6975 -41.6975,-75.5 0,-75.5"
             style="fill:none;stroke:#ff0000;stroke-width:0;stroke-linecap:round;stroke-linejoin:round;stroke-miterlimit:10;stroke-dasharray:none;stroke-opacity:1"
             id="path118" />
        </g>
        <g
           id="g120"
           transform="rotate(90,845,6816.5)"
           style="stroke:#ff0000;stroke-opacity:1;stroke-width:0;stroke-dasharray:none">
          <path
             d="M 0,-75.5 C 41.6975,-75.5 75.5,-41.6975 75.5,0 75.5,41.6975 41.6975,75.5 0,75.5 -41.6975,75.5 -75.5,41.6975 -75.5,0 -75.5,-41.6975 -41.6975,-75.5 0,-75.5"
             style="fill:none;stroke:#ff0000;stroke-width:0;stroke-linecap:round;stroke-linejoin:round;stroke-miterlimit:10;stroke-dasharray:none;stroke-opacity:1"
             id="path122" />
        </g>
        <path
           d="m 6557,12349 v -284"
           style="fill:none;stroke:#ff0000;stroke-width:0;stroke-linecap:round;stroke-linejoin:round;stroke-miterlimit:10;stroke-dasharray:none;stroke-opacity:1"
           id="path124" />
        <g
           id="g126"
           transform="rotate(-90,9415,2934.5)"
           style="stroke:#ff0000;stroke-opacity:1;stroke-width:0;stroke-dasharray:none">
          <path
             d="M 0,77.5 C -42.80207,77.5 -77.5,42.80207 -77.5,0 -77.5,-42.80207 -42.80207,-77.5 0,-77.5"
             style="fill:none;stroke:#ff0000;stroke-width:0;stroke-linecap:round;stroke-linejoin:round;stroke-miterlimit:10;stroke-dasharray:none;stroke-opacity:1"
             id="path128" />
        </g>
        <path
           d="m 6402,12065 v 284"
           style="fill:none;stroke:#ff0000;stroke-width:0;stroke-linecap:round;stroke-linejoin:round;stroke-miterlimit:10;stroke-dasharray:none;stroke-opacity:1"
           id="path130" />
        <g
           id="g132"
           transform="rotate(90,-2792.5,9273)"
           style="stroke:#ff0000;stroke-opacity:1;stroke-width:0;stroke-dasharray:none">
          <path
             d="M 0,77.5 C -42.80207,77.5 -77.5,42.80207 -77.5,0 -77.5,-42.80207 -42.80207,-77.5 0,-77.5"
             style="fill:none;stroke:#ff0000;stroke-width:0;stroke-linecap:round;stroke-linejoin:round;stroke-miterlimit:10;stroke-dasharray:none;stroke-opacity:1"
             id="path134" />
        </g>
        <path
           d="m 6402,9420 v 283"
           style="fill:none;stroke:#ff0000;stroke-width:0;stroke-linecap:round;stroke-linejoin:round;stroke-miterlimit:10;stroke-dasharray:none;stroke-opacity:1"
           id="path136" />
        <g
           id="g138"
           transform="rotate(90,-1470,7950.5)"
           style="stroke:#ff0000;stroke-opacity:1;stroke-width:0;stroke-dasharray:none">
          <path
             d="M 0,77.5 C -42.80207,77.5 -77.5,42.80207 -77.5,0 -77.5,-42.80207 -42.80207,-77.5 0,-77.5"
             style="fill:none;stroke:#ff0000;stroke-width:0;stroke-linecap:round;stroke-linejoin:round;stroke-miterlimit:10;stroke-dasharray:none;stroke-opacity:1"
             id="path140" />
        </g>
        <path
           d="M 6557,9703 V 9420"
           style="fill:none;stroke:#ff0000;stroke-width:0;stroke-linecap:round;stroke-linejoin:round;stroke-miterlimit:10;stroke-dasharray:none;stroke-opacity:1"
           id="path142" />
        <g
           id="g144"
           transform="rotate(-90,8092,1611.5)"
           style="stroke:#ff0000;stroke-opacity:1;stroke-width:0;stroke-dasharray:none">
          <path
             d="M 0,77.5 C -42.80207,77.5 -77.5,42.80207 -77.5,0 -77.5,-42.80207 -42.80207,-77.5 0,-77.5"
             style="fill:none;stroke:#ff0000;stroke-width:0;stroke-linecap:round;stroke-linejoin:round;stroke-miterlimit:10;stroke-dasharray:none;stroke-opacity:1"
             id="path146" />
        </g>
        <g
           id="g148"
           transform="rotate(90,-1912.5,9586)"
           style="stroke:#ff0000;stroke-opacity:1;stroke-width:0;stroke-dasharray:none">
          <path
             d="M 0,-73.5 C 40.59293,-73.5 73.5,-40.59293 73.5,0 73.5,40.59293 40.59293,73.5 0,73.5 -40.59293,73.5 -73.5,40.59293 -73.5,0 -73.5,-40.59293 -40.59293,-73.5 0,-73.5"
             style="fill:none;stroke:#ff0000;stroke-width:0;stroke-linecap:round;stroke-linejoin:round;stroke-miterlimit:10;stroke-dasharray:none;stroke-opacity:1"
             id="path150" />
        </g>
        <g
           id="g152"
           transform="rotate(90,59,5227.5)"
           style="stroke:#ff0000;stroke-opacity:1;stroke-width:0;stroke-dasharray:none">
          <path
             d="M 0,-73.5 C 40.59293,-73.5 73.5,-40.59293 73.5,0 73.5,40.59293 40.59293,73.5 0,73.5 -40.59293,73.5 -73.5,40.59293 -73.5,0 -73.5,-40.59293 -40.59293,-73.5 0,-73.5"
             style="fill:none;stroke:#ff0000;stroke-width:0;stroke-linecap:round;stroke-linejoin:round;stroke-miterlimit:10;stroke-dasharray:none;stroke-opacity:1"
             id="path154" />
        </g>
        <g
           id="g156"
           transform="rotate(90,1252.5,6421)"
           style="stroke:#ff0000;stroke-opacity:1;stroke-width:0;stroke-dasharray:none">
          <path
             d="M 0,-73.5 C 40.59293,-73.5 73.5,-40.59293 73.5,0 73.5,40.59293 40.59293,73.5 0,73.5 -40.59293,73.5 -73.5,40.59293 -73.5,0 -73.5,-40.59293 -40.59293,-73.5 0,-73.5"
             style="fill:none;stroke:#ff0000;stroke-width:0;stroke-linecap:round;stroke-linejoin:round;stroke-miterlimit:10;stroke-dasharray:none;stroke-opacity:1"
             id="path158" />
        </g>
        <g
           id="g160"
           transform="rotate(90,-3106,8392.5)"
           style="stroke:#ff0000;stroke-opacity:1;stroke-width:0;stroke-dasharray:none">
          <path
             d="M 0,-73.5 C 40.59293,-73.5 73.5,-40.59293 73.5,0 73.5,40.59293 40.59293,73.5 0,73.5 -40.59293,73.5 -73.5,40.59293 -73.5,0 -73.5,-40.59293 -40.59293,-73.5 0,-73.5"
             style="fill:none;stroke:#ff0000;stroke-width:0;stroke-linecap:round;stroke-linejoin:round;stroke-miterlimit:10;stroke-dasharray:none;stroke-opacity:1"
             id="path162" />
        </g>
        <path
           d="m 8133,9850 -234,233 v 945 l 234,234"
           style="fill:none;stroke:#ff0000;stroke-width:0;stroke-linecap:round;stroke-linejoin:round;stroke-miterlimit:10;stroke-dasharray:none;stroke-opacity:1"
           id="path164" />
        <path
           d="m 4826,6816 234,-233 v -945 l -234,-234"
           style="fill:none;stroke:#ff0000;stroke-width:0;stroke-linecap:round;stroke-linejoin:round;stroke-miterlimit:10;stroke-dasharray:none;stroke-opacity:1"
           id="path166" />
        <path
           d="m 8133,5404 -234,234 v 945 l 234,233"
           style="fill:none;stroke:#ff0000;stroke-width:0;stroke-linecap:round;stroke-linejoin:round;stroke-miterlimit:10;stroke-dasharray:none;stroke-opacity:1"
           id="path168" />
        <path
           d="m 4826,11262 234,-234"
           style="fill:none;stroke:#ff0000;stroke-width:0;stroke-linecap:round;stroke-linejoin:round;stroke-miterlimit:10;stroke-dasharray:none;stroke-opacity:1"
           id="path170" />
        <path
           d="m 5060,11028 v -945 l -234,-233"
           style="fill:none;stroke:#ff0000;stroke-width:0;stroke-linecap:round;stroke-linejoin:round;stroke-miterlimit:10;stroke-dasharray:none;stroke-opacity:1"
           id="path172" />
        <path
           d="m 8133,9278 v 572"
           style="fill:none;stroke:#ff0000;stroke-width:0;stroke-linecap:round;stroke-linejoin:round;stroke-miterlimit:10;stroke-dasharray:none;stroke-opacity:1"
           id="path174" />
        <path
           d="M 4826,7388 V 6816"
           style="fill:none;stroke:#ff0000;stroke-width:0;stroke-linecap:round;stroke-linejoin:round;stroke-miterlimit:10;stroke-dasharray:none;stroke-opacity:1"
           id="path176" />
        <path
           d="M 8133,4081 V 5404"
           style="fill:none;stroke:#ff0000;stroke-width:0;stroke-linecap:round;stroke-linejoin:round;stroke-miterlimit:10;stroke-dasharray:none;stroke-opacity:1"
           id="path178" />
        <path
           d="M 4826,12585 V 11262"
           style="fill:none;stroke:#ff0000;stroke-width:0;stroke-linecap:round;stroke-linejoin:round;stroke-miterlimit:10;stroke-dasharray:none;stroke-opacity:1"
           id="path180" />
        <path
           d="M 4826,9850 V 9278"
           style="fill:none;stroke:#ff0000;stroke-width:0;stroke-linecap:round;stroke-linejoin:round;stroke-miterlimit:10;stroke-dasharray:none;stroke-opacity:1"
           id="path182" />
        <path
           d="m 6149,7530 v 709 h 661 v -709 h -661"
           style="fill:none;stroke:#ff0000;stroke-width:0;stroke-linecap:round;stroke-linejoin:round;stroke-miterlimit:10;stroke-dasharray:none;stroke-opacity:1"
           id="path184" />
        <path
           d="m 6149,8427 v 709 h 661 v -709 h -661"
           style="fill:none;stroke:#ff0000;stroke-width:0;stroke-linecap:round;stroke-linejoin:round;stroke-miterlimit:10;stroke-dasharray:none;stroke-opacity:1"
           id="path186" />
        <g
           id="g188"
           transform="rotate(90,727,9863.5)"
           style="stroke:#ff0000;stroke-opacity:1;stroke-width:0;stroke-dasharray:none">
          <path
             d="M 0,-63.5 C 35.07008,-63.5 63.5,-35.07008 63.5,0 63.5,35.07008 35.07008,63.5 0,63.5 -35.07008,63.5 -63.5,35.07008 -63.5,0 -63.5,-35.07008 -35.07008,-63.5 0,-63.5"
             style="fill:none;stroke:#ff0000;stroke-width:0;stroke-linecap:round;stroke-linejoin:round;stroke-miterlimit:10;stroke-dasharray:none;stroke-opacity:1"
             id="path190" />
        </g>
        <g
           id="g192"
           transform="rotate(90,-1647,7489.5)"
           style="stroke:#ff0000;stroke-opacity:1;stroke-width:0;stroke-dasharray:none">
          <path
             d="M 0,-63.5 C 35.07008,-63.5 63.5,-35.07008 63.5,0 63.5,35.07008 35.07008,63.5 0,63.5 -35.07008,63.5 -63.5,35.07008 -63.5,0 -63.5,-35.07008 -35.07008,-63.5 0,-63.5"
             style="fill:none;stroke:#ff0000;stroke-width:0;stroke-linecap:round;stroke-linejoin:round;stroke-miterlimit:10;stroke-dasharray:none;stroke-opacity:1"
             id="path194" />
        </g>
        <g
           id="g196"
           transform="rotate(90,-206.5,7324)"
           style="stroke:#ff0000;stroke-opacity:1;stroke-width:0;stroke-dasharray:none">
          <path
             d="M 0,-63.5 C 35.07008,-63.5 63.5,-35.07008 63.5,0 63.5,35.07008 35.07008,63.5 0,63.5 -35.07008,63.5 -63.5,35.07008 -63.5,0 -63.5,-35.07008 -35.07008,-63.5 0,-63.5"
             style="fill:none;stroke:#ff0000;stroke-width:0;stroke-linecap:round;stroke-linejoin:round;stroke-miterlimit:10;stroke-dasharray:none;stroke-opacity:1"
             id="path198" />
        </g>
        <g
           id="g200"
           transform="rotate(90,-3383.5,5753)"
           style="stroke:#ff0000;stroke-opacity:1;stroke-width:0;stroke-dasharray:none">
          <path
             d="M 0,-63.5 C 35.07008,-63.5 63.5,-35.07008 63.5,0 63.5,35.07008 35.07008,63.5 0,63.5 -35.07008,63.5 -63.5,35.07008 -63.5,0 -63.5,-35.07008 -35.07008,-63.5 0,-63.5"
             style="fill:none;stroke:#ff0000;stroke-width:0;stroke-linecap:round;stroke-linejoin:round;stroke-miterlimit:10;stroke-dasharray:none;stroke-opacity:1"
             id="path202" />
        </g>
        <g
           id="g204"
           transform="rotate(90,1530,9060.5)"
           style="stroke:#ff0000;stroke-opacity:1;stroke-width:0;stroke-dasharray:none">
          <path
             d="M 0,-63.5 C 35.07008,-63.5 63.5,-35.07008 63.5,0 63.5,35.07008 35.07008,63.5 0,63.5 -35.07008,63.5 -63.5,35.07008 -63.5,0 -63.5,-35.07008 -35.07008,-63.5 0,-63.5"
             style="fill:none;stroke:#ff0000;stroke-width:0;stroke-linecap:round;stroke-linejoin:round;stroke-miterlimit:10;stroke-dasharray:none;stroke-opacity:1"
             id="path206" />
        </g>
        <g
           id="g208"
           transform="rotate(90,-1009.5,8127)"
           style="stroke:#ff0000;stroke-opacity:1;stroke-width:0;stroke-dasharray:none">
          <path
             d="M 0,-63.5 C 35.07008,-63.5 63.5,-35.07008 63.5,0 63.5,35.07008 35.07008,63.5 0,63.5 -35.07008,63.5 -63.5,35.07008 -63.5,0 -63.5,-35.07008 -35.07008,-63.5 0,-63.5"
             style="fill:none;stroke:#ff0000;stroke-width:0;stroke-linecap:round;stroke-linejoin:round;stroke-miterlimit:10;stroke-dasharray:none;stroke-opacity:1"
             id="path210" />
        </g>
        <g
           id="g212"
           transform="rotate(90,-844,6686.5)"
           style="stroke:#ff0000;stroke-opacity:1;stroke-width:0;stroke-dasharray:none">
          <path
             d="M 0,-63.5 C 35.07008,-63.5 63.5,-35.07008 63.5,0 63.5,35.07008 35.07008,63.5 0,63.5 -35.07008,63.5 -63.5,35.07008 -63.5,0 -63.5,-35.07008 -35.07008,-63.5 0,-63.5"
             style="fill:none;stroke:#ff0000;stroke-width:0;stroke-linecap:round;stroke-linejoin:round;stroke-miterlimit:10;stroke-dasharray:none;stroke-opacity:1"
             id="path214" />
        </g>
        <g
           id="g216"
           transform="rotate(90,-2580.5,4950)"
           style="stroke:#ff0000;stroke-opacity:1;stroke-width:0;stroke-dasharray:none">
          <path
             d="M 0,-63.5 C 35.07008,-63.5 63.5,-35.07008 63.5,0 63.5,35.07008 35.07008,63.5 0,63.5 -35.07008,63.5 -63.5,35.07008 -63.5,0 -63.5,-35.07008 -35.07008,-63.5 0,-63.5"
             style="fill:none;stroke:#ff0000;stroke-width:0;stroke-linecap:round;stroke-linejoin:round;stroke-miterlimit:10;stroke-dasharray:none;stroke-opacity:1"
             id="path218" />
        </g>
        <path
           d="M 4826,5404 V 4081 h 3307"
           style="fill:none;stroke:#ff0000;stroke-width:0;stroke-linecap:round;stroke-linejoin:round;stroke-miterlimit:10;stroke-dasharray:none;stroke-opacity:1"
           id="path220" />
        <path
           d="M 4826,9278 H 2227 V 7388 h 2599"
           style="fill:none;stroke:#ff0000;stroke-width:0;stroke-linecap:round;stroke-linejoin:round;stroke-miterlimit:10;stroke-dasharray:none;stroke-opacity:1"
           id="path222" />
        <path
           d="m 8133,11262 v 1323 H 4826"
           style="fill:none;stroke:#ff0000;stroke-width:0;stroke-linecap:round;stroke-linejoin:round;stroke-miterlimit:10;stroke-dasharray:none;stroke-opacity:1"
           id="path224" />
        <path
           d="m 8133,6816 v 572 h 2599 V 9278 H 8133"
           style="fill:none;stroke:#ff0000;stroke-width:0;stroke-linecap:round;stroke-linejoin:round;stroke-miterlimit:10;stroke-dasharray:none;stroke-opacity:1"
           id="path226" />
      </g>
    </g>
    <text
       xml:space="preserve"
       style="font-size:1203.52px;font-family:sans-serif;-inkscape-font-specification:'sans-serif, Normal';fill:none;stroke:#0000ff;stroke-width:0;stroke-dasharray:none"
       x="5385.416"
       y="-4136.7642"
       id="text509"
       transform="scale(1,-1)"><tspan
         sodipodi:role="line"
         id="tspan507"
         style="font-style:normal;font-variant:normal;font-weight:normal;font-stretch:normal;font-size:300.879px;font-family:sans-serif;-inkscape-font-specification:'sans-serif, Normal';font-variant-ligatures:normal;font-variant-caps:normal;font-variant-numeric:normal;font-variant-east-asian:normal;fill:none;fill-opacity:1;stroke:#0000ff;stroke-width:0;stroke-dasharray:none;stroke-opacity:1"
         x="5385.416"
         y="-4136.7642">JABAV6 el1321</tspan></text>
  </g>
</svg>
