<?xml version="1.0" encoding="UTF-8" standalone="no"?>
<!-- Created with Inkscape (http://www.inkscape.org/) -->

<svg
   version="1.1"
   id="svg2"
   width="1588"
   height="1122.6667"
   viewBox="0 0 1588 1122.6667"
   sodipodi:docname="jabachassisv4.svg"
   inkscape:version="1.2 (dc2aedaf03, 2022-05-15)"
   xmlns:inkscape="http://www.inkscape.org/namespaces/inkscape"
   xmlns:sodipodi="http://sodipodi.sourceforge.net/DTD/sodipodi-0.dtd"
   xmlns="http://www.w3.org/2000/svg"
   xmlns:svg="http://www.w3.org/2000/svg">
  <defs
     id="defs6">
    <clipPath
       clipPathUnits="userSpaceOnUse"
       id="clipPath18">
      <path
         d="m 2490,3169 h 9801 v 9801 H 2490 V 3169"
         id="path16" />
    </clipPath>
  </defs>
  <sodipodi:namedview
     id="namedview4"
     pagecolor="#ffffff"
     bordercolor="#000000"
     borderopacity="0.25"
     inkscape:showpageshadow="2"
     inkscape:pageopacity="0.0"
     inkscape:pagecheckerboard="0"
     inkscape:deskcolor="#d1d1d1"
     showgrid="false"
     inkscape:zoom="0.25"
     inkscape:cx="74"
     inkscape:cy="662"
     inkscape:window-width="1920"
     inkscape:window-height="1013"
     inkscape:window-x="-9"
     inkscape:window-y="-9"
     inkscape:window-maximized="1"
     inkscape:current-layer="g10">
    <inkscape:page
       x="0"
       y="0"
       id="page8"
       width="1588"
       height="1122.6667" />
  </sodipodi:namedview>
  <g
     id="g10"
     inkscape:groupmode="layer"
     inkscape:label="Page 1"
     transform="matrix(0.08,0,0,-0.08,0,1122.6667)">
    <g
       id="g12"
       style="stroke:#ff0000;stroke-width:0.0471207;stroke-dasharray:none;stroke-opacity:1"
       transform="matrix(1.0026194,0,0,1.0026194,-19.358526,-21.137085)">
      <g
         id="g14"
         clip-path="url(#clipPath18)"
         style="stroke:#ff0000;stroke-width:0.0471207;stroke-dasharray:none;stroke-opacity:1">
        <g
           id="g20"
           transform="matrix(-0.70711,0.70711,-0.70711,-0.70711,10158.5,10039.5)"
           style="stroke:#ff0000;stroke-width:0.04712048;stroke-dasharray:none;stroke-opacity:1">
          <path
             d="M -51.87448,-78.98917 C -36.46596,-89.10838 -18.43423,-94.5 0,-94.5"
             style="fill:none;stroke:#ff0000;stroke-width:0.04712048;stroke-linecap:round;stroke-linejoin:round;stroke-miterlimit:10;stroke-dasharray:none;stroke-opacity:1"
             id="path22" />
        </g>
        <g
           id="g24"
           transform="rotate(90,2691.5,7100)"
           style="stroke:#ff0000;stroke-width:0.0471207;stroke-dasharray:none;stroke-opacity:1">
          <path
             d="M 0,-70.5 C 38.93608,-70.5 70.5,-38.93608 70.5,0 70.5,38.93608 38.93608,70.5 0,70.5 -38.93608,70.5 -70.5,38.93608 -70.5,0 -70.5,-38.93608 -38.93608,-70.5 0,-70.5"
             style="fill:none;stroke:#ff0000;stroke-width:0.0471207;stroke-linecap:round;stroke-linejoin:round;stroke-miterlimit:10;stroke-dasharray:none;stroke-opacity:1"
             id="path26" />
        </g>
        <g
           id="g28"
           transform="rotate(90,291,4699.5)"
           style="stroke:#ff0000;stroke-width:0.0471207;stroke-dasharray:none;stroke-opacity:1">
          <path
             d="M 0,-70.5 C 38.93608,-70.5 70.5,-38.93608 70.5,0 70.5,38.93608 38.93608,70.5 0,70.5 -38.93608,70.5 -70.5,38.93608 -70.5,0 -70.5,-38.93608 -38.93608,-70.5 0,-70.5"
             style="fill:none;stroke:#ff0000;stroke-width:0.0471207;stroke-linecap:round;stroke-linejoin:round;stroke-miterlimit:10;stroke-dasharray:none;stroke-opacity:1"
             id="path30" />
        </g>
        <g
           id="g32"
           transform="rotate(90,-970,10761.5)"
           style="stroke:#ff0000;stroke-width:0.0471207;stroke-dasharray:none;stroke-opacity:1">
          <path
             d="M 0,-70.5 C 38.93608,-70.5 70.5,-38.93608 70.5,0 70.5,38.93608 38.93608,70.5 0,70.5 -38.93608,70.5 -70.5,38.93608 -70.5,0 -70.5,-38.93608 -38.93608,-70.5 0,-70.5"
             style="fill:none;stroke:#ff0000;stroke-width:0.0471207;stroke-linecap:round;stroke-linejoin:round;stroke-miterlimit:10;stroke-dasharray:none;stroke-opacity:1"
             id="path34" />
        </g>
        <g
           id="g36"
           transform="rotate(90,2117,6218.5)"
           style="stroke:#ff0000;stroke-width:0.0471207;stroke-dasharray:none;stroke-opacity:1">
          <path
             d="M 0,-75.5 C 41.6975,-75.5 75.5,-41.6975 75.5,0 75.5,41.6975 41.6975,75.5 0,75.5 -41.6975,75.5 -75.5,41.6975 -75.5,0 -75.5,-41.6975 -41.6975,-75.5 0,-75.5"
             style="fill:none;stroke:#ff0000;stroke-width:0.0471207;stroke-linecap:round;stroke-linejoin:round;stroke-miterlimit:10;stroke-dasharray:none;stroke-opacity:1"
             id="path38" />
        </g>
        <g
           id="g40"
           transform="rotate(90,983,7352.5)"
           style="stroke:#ff0000;stroke-width:0.0471207;stroke-dasharray:none;stroke-opacity:1">
          <path
             d="M 0,-75.5 C 41.6975,-75.5 75.5,-41.6975 75.5,0 75.5,41.6975 41.6975,75.5 0,75.5 -41.6975,75.5 -75.5,41.6975 -75.5,0 -75.5,-41.6975 -41.6975,-75.5 0,-75.5"
             style="fill:none;stroke:#ff0000;stroke-width:0.0471207;stroke-linecap:round;stroke-linejoin:round;stroke-miterlimit:10;stroke-dasharray:none;stroke-opacity:1"
             id="path42" />
        </g>
        <g
           id="g44"
           transform="rotate(90,-103.5,6053)"
           style="stroke:#ff0000;stroke-width:0.0471207;stroke-dasharray:none;stroke-opacity:1">
          <path
             d="M 0,-75.5 C 41.6975,-75.5 75.5,-41.6975 75.5,0 75.5,41.6975 41.6975,75.5 0,75.5 -41.6975,75.5 -75.5,41.6975 -75.5,0 -75.5,-41.6975 -41.6975,-75.5 0,-75.5"
             style="fill:none;stroke:#ff0000;stroke-width:0.0471207;stroke-linecap:round;stroke-linejoin:round;stroke-miterlimit:10;stroke-dasharray:none;stroke-opacity:1"
             id="path46" />
        </g>
        <g
           id="g48"
           transform="rotate(90,558,5391.5)"
           style="stroke:#ff0000;stroke-width:0.0471207;stroke-dasharray:none;stroke-opacity:1">
          <path
             d="M 0,-75.5 C 41.6975,-75.5 75.5,-41.6975 75.5,0 75.5,41.6975 41.6975,75.5 0,75.5 -41.6975,75.5 -75.5,41.6975 -75.5,0 -75.5,-41.6975 -41.6975,-75.5 0,-75.5"
             style="fill:none;stroke:#ff0000;stroke-width:0.0471207;stroke-linecap:round;stroke-linejoin:round;stroke-miterlimit:10;stroke-dasharray:none;stroke-opacity:1"
             id="path50" />
        </g>
        <path
           d="M 11737,7214 H 8241"
           style="fill:none;stroke:#ff0000;stroke-width:0.0471207;stroke-linecap:round;stroke-linejoin:round;stroke-miterlimit:10;stroke-dasharray:none;stroke-opacity:1"
           id="path52" />
        <path
           d="m 8241.5,7318 c -28.4424,0 -51.5,-23.0571 -51.5,-51.5 0,-28.4429 23.0576,-51.5 51.5,-51.5"
           style="fill:none;stroke:#ff0000;stroke-width:0.0471207;stroke-linecap:round;stroke-linejoin:round;stroke-miterlimit:10;stroke-dasharray:none;stroke-opacity:1"
           id="path54" />
        <path
           d="m 8241,7318 h 3496"
           style="fill:none;stroke:#ff0000;stroke-width:0.0471207;stroke-linecap:round;stroke-linejoin:round;stroke-miterlimit:10;stroke-dasharray:none;stroke-opacity:1"
           id="path56" />
        <g
           id="g58"
           transform="rotate(180,5868.75,3633.25)"
           style="stroke:#ff0000;stroke-width:0.0471207;stroke-dasharray:none;stroke-opacity:1">
          <path
             d="M 0,51.5 C -28.44267,51.5 -51.5,28.44267 -51.5,0 -51.5,-28.44267 -28.44267,-51.5 0,-51.5"
             style="fill:none;stroke:#ff0000;stroke-width:0.0471207;stroke-linecap:round;stroke-linejoin:round;stroke-miterlimit:10;stroke-dasharray:none;stroke-opacity:1"
             id="path60" />
        </g>
        <path
           d="M 3280,8925 H 6776"
           style="fill:none;stroke:#ff0000;stroke-width:0.0471207;stroke-linecap:round;stroke-linejoin:round;stroke-miterlimit:10;stroke-dasharray:none;stroke-opacity:1"
           id="path62" />
        <g
           id="g64"
           transform="rotate(180,3388.25,4436.75)"
           style="stroke:#ff0000;stroke-width:0.0471207;stroke-dasharray:none;stroke-opacity:1">
          <path
             d="M 0,51.5 C -28.44267,51.5 -51.5,28.44267 -51.5,0 -51.5,-28.44267 -28.44267,-51.5 0,-51.5"
             style="fill:none;stroke:#ff0000;stroke-width:0.0471207;stroke-linecap:round;stroke-linejoin:round;stroke-miterlimit:10;stroke-dasharray:none;stroke-opacity:1"
             id="path66" />
        </g>
        <path
           d="M 6776,8821 H 3280"
           style="fill:none;stroke:#ff0000;stroke-width:0.0471207;stroke-linecap:round;stroke-linejoin:round;stroke-miterlimit:10;stroke-dasharray:none;stroke-opacity:1"
           id="path68" />
        <path
           d="m 3280.5,8925 c -28.4426,0 -51.5,-23.0576 -51.5,-51.5 0,-28.4424 23.0574,-51.5 51.5,-51.5"
           style="fill:none;stroke:#ff0000;stroke-width:0.0471207;stroke-linecap:round;stroke-linejoin:round;stroke-miterlimit:10;stroke-dasharray:none;stroke-opacity:1"
           id="path70" />
        <path
           d="M 3280,7318 H 6776"
           style="fill:none;stroke:#ff0000;stroke-width:0.0471207;stroke-linecap:round;stroke-linejoin:round;stroke-miterlimit:10;stroke-dasharray:none;stroke-opacity:1"
           id="path72" />
        <g
           id="g74"
           transform="rotate(180,3388.25,3633.25)"
           style="stroke:#ff0000;stroke-width:0.0471207;stroke-dasharray:none;stroke-opacity:1">
          <path
             d="M 0,51.5 C -28.44267,51.5 -51.5,28.44267 -51.5,0 -51.5,-28.44267 -28.44267,-51.5 0,-51.5"
             style="fill:none;stroke:#ff0000;stroke-width:0.0471207;stroke-linecap:round;stroke-linejoin:round;stroke-miterlimit:10;stroke-dasharray:none;stroke-opacity:1"
             id="path76" />
        </g>
        <path
           d="M 6776,7214 H 3280"
           style="fill:none;stroke:#ff0000;stroke-width:0.0471207;stroke-linecap:round;stroke-linejoin:round;stroke-miterlimit:10;stroke-dasharray:none;stroke-opacity:1"
           id="path78" />
        <path
           d="m 3280.5,7318 c -28.4426,0 -51.5,-23.0571 -51.5,-51.5 0,-28.4429 23.0574,-51.5 51.5,-51.5"
           style="fill:none;stroke:#ff0000;stroke-width:0.0471207;stroke-linecap:round;stroke-linejoin:round;stroke-miterlimit:10;stroke-dasharray:none;stroke-opacity:1"
           id="path80" />
        <path
           d="m 8241,8925 h 3496"
           style="fill:none;stroke:#ff0000;stroke-width:0.0471207;stroke-linecap:round;stroke-linejoin:round;stroke-miterlimit:10;stroke-dasharray:none;stroke-opacity:1"
           id="path82" />
        <g
           id="g84"
           transform="rotate(-90,10305.5,-1432)"
           style="stroke:#ff0000;stroke-width:0.0471207;stroke-dasharray:none;stroke-opacity:1">
          <path
             d="M 51.5,0 C 51.5,28.44267 28.44267,51.5 0,51.5 -28.44267,51.5 -51.5,28.44267 -51.5,0"
             style="fill:none;stroke:#ff0000;stroke-width:0.0471207;stroke-linecap:round;stroke-linejoin:round;stroke-miterlimit:10;stroke-dasharray:none;stroke-opacity:1"
             id="path86" />
        </g>
        <path
           d="M 11737,8821 H 8241"
           style="fill:none;stroke:#ff0000;stroke-width:0.0471207;stroke-linecap:round;stroke-linejoin:round;stroke-miterlimit:10;stroke-dasharray:none;stroke-opacity:1"
           id="path88" />
        <path
           d="m 8241.5,8925 c -28.4424,0 -51.5,-23.0576 -51.5,-51.5 0,-28.4424 23.0576,-51.5 51.5,-51.5"
           style="fill:none;stroke:#ff0000;stroke-width:0.0471207;stroke-linecap:round;stroke-linejoin:round;stroke-miterlimit:10;stroke-dasharray:none;stroke-opacity:1"
           id="path90" />
        <g
           id="g92"
           transform="rotate(90,-1826.5,10635)"
           style="stroke:#ff0000;stroke-width:0.0471207;stroke-dasharray:none;stroke-opacity:1">
          <path
             d="M 0,-78.5 C 43.35435,-78.5 78.5,-43.35435 78.5,0 78.5,43.35435 43.35435,78.5 0,78.5 -43.35435,78.5 -78.5,43.35435 -78.5,0 -78.5,-43.35435 -43.35435,-78.5 0,-78.5"
             style="fill:none;stroke:#ff0000;stroke-width:0.0471207;stroke-linecap:round;stroke-linejoin:round;stroke-miterlimit:10;stroke-dasharray:none;stroke-opacity:1"
             id="path94" />
        </g>
        <g
           id="g96"
           transform="rotate(90,-1215,8606.5)"
           style="stroke:#ff0000;stroke-width:0.0471207;stroke-dasharray:none;stroke-opacity:1">
          <path
             d="M 0,-78.5 C 43.35435,-78.5 78.5,-43.35435 78.5,0 78.5,43.35435 43.35435,78.5 0,78.5 -43.35435,78.5 -78.5,43.35435 -78.5,0 -78.5,-43.35435 -43.35435,-78.5 0,-78.5"
             style="fill:none;stroke:#ff0000;stroke-width:0.0471207;stroke-linecap:round;stroke-linejoin:round;stroke-miterlimit:10;stroke-dasharray:none;stroke-opacity:1"
             id="path98" />
        </g>
        <g
           id="g100"
           transform="rotate(90,-1924,7897.5)"
           style="stroke:#ff0000;stroke-width:0.0471207;stroke-dasharray:none;stroke-opacity:1">
          <path
             d="M 0,-78.5 C 43.35435,-78.5 78.5,-43.35435 78.5,0 78.5,43.35435 43.35435,78.5 0,78.5 -43.35435,78.5 -78.5,43.35435 -78.5,0 -78.5,-43.35435 -43.35435,-78.5 0,-78.5"
             style="fill:none;stroke:#ff0000;stroke-width:0.0471207;stroke-linecap:round;stroke-linejoin:round;stroke-miterlimit:10;stroke-dasharray:none;stroke-opacity:1"
             id="path102" />
        </g>
        <g
           id="g104"
           transform="rotate(90,-2535,9926.5)"
           style="stroke:#ff0000;stroke-width:0.0471207;stroke-dasharray:none;stroke-opacity:1">
          <path
             d="M 0,-78.5 C 43.35435,-78.5 78.5,-43.35435 78.5,0 78.5,43.35435 43.35435,78.5 0,78.5 -43.35435,78.5 -78.5,43.35435 -78.5,0 -78.5,-43.35435 -43.35435,-78.5 0,-78.5"
             style="fill:none;stroke:#ff0000;stroke-width:0.0471207;stroke-linecap:round;stroke-linejoin:round;stroke-miterlimit:10;stroke-dasharray:none;stroke-opacity:1"
             id="path106" />
        </g>
        <g
           id="g108"
           transform="rotate(90,-506.5,9315)"
           style="stroke:#ff0000;stroke-width:0.0471207;stroke-dasharray:none;stroke-opacity:1">
          <path
             d="M 0,-78.5 C 43.35435,-78.5 78.5,-43.35435 78.5,0 78.5,43.35435 43.35435,78.5 0,78.5 -43.35435,78.5 -78.5,43.35435 -78.5,0 -78.5,-43.35435 -43.35435,-78.5 0,-78.5"
             style="fill:none;stroke:#ff0000;stroke-width:0.0471207;stroke-linecap:round;stroke-linejoin:round;stroke-miterlimit:10;stroke-dasharray:none;stroke-opacity:1"
             id="path110" />
        </g>
        <g
           id="g112"
           transform="rotate(90,-3244,9217.5)"
           style="stroke:#ff0000;stroke-width:0.0471207;stroke-dasharray:none;stroke-opacity:1">
          <path
             d="M 0,-78.5 C 43.35435,-78.5 78.5,-43.35435 78.5,0 78.5,43.35435 43.35435,78.5 0,78.5 -43.35435,78.5 -78.5,43.35435 -78.5,0 -78.5,-43.35435 -43.35435,-78.5 0,-78.5"
             style="fill:none;stroke:#ff0000;stroke-width:0.0471207;stroke-linecap:round;stroke-linejoin:round;stroke-miterlimit:10;stroke-dasharray:none;stroke-opacity:1"
             id="path114" />
        </g>
        <g
           id="g116"
           transform="rotate(90,-729,9561.5)"
           style="stroke:#ff0000;stroke-width:0.0471207;stroke-dasharray:none;stroke-opacity:1">
          <path
             d="M 0,-75.5 C 41.6975,-75.5 75.5,-41.6975 75.5,0 75.5,41.6975 41.6975,75.5 0,75.5 -41.6975,75.5 -75.5,41.6975 -75.5,0 -75.5,-41.6975 -41.6975,-75.5 0,-75.5"
             style="fill:none;stroke:#ff0000;stroke-width:0.0471207;stroke-linecap:round;stroke-linejoin:round;stroke-miterlimit:10;stroke-dasharray:none;stroke-opacity:1"
             id="path118" />
        </g>
        <g
           id="g120"
           transform="rotate(90,-1816,8262.5)"
           style="stroke:#ff0000;stroke-width:0.0471207;stroke-dasharray:none;stroke-opacity:1">
          <path
             d="M 0,-75.5 C 41.6975,-75.5 75.5,-41.6975 75.5,0 75.5,41.6975 41.6975,75.5 0,75.5 -41.6975,75.5 -75.5,41.6975 -75.5,0 -75.5,-41.6975 -41.6975,-75.5 0,-75.5"
             style="fill:none;stroke:#ff0000;stroke-width:0.0471207;stroke-linecap:round;stroke-linejoin:round;stroke-miterlimit:10;stroke-dasharray:none;stroke-opacity:1"
             id="path122" />
        </g>
        <g
           id="g124"
           transform="rotate(90,-1390.5,10223)"
           style="stroke:#ff0000;stroke-width:0.0471207;stroke-dasharray:none;stroke-opacity:1">
          <path
             d="M 0,-75.5 C 41.6975,-75.5 75.5,-41.6975 75.5,0 75.5,41.6975 41.6975,75.5 0,75.5 -41.6975,75.5 -75.5,41.6975 -75.5,0 -75.5,-41.6975 -41.6975,-75.5 0,-75.5"
             style="fill:none;stroke:#ff0000;stroke-width:0.0471207;stroke-linecap:round;stroke-linejoin:round;stroke-miterlimit:10;stroke-dasharray:none;stroke-opacity:1"
             id="path126" />
        </g>
        <g
           id="g128"
           transform="rotate(90,-2949.5,9396)"
           style="stroke:#ff0000;stroke-width:0.0471207;stroke-dasharray:none;stroke-opacity:1">
          <path
             d="M 0,-75.5 C 41.6975,-75.5 75.5,-41.6975 75.5,0 75.5,41.6975 41.6975,75.5 0,75.5 -41.6975,75.5 -75.5,41.6975 -75.5,0 -75.5,-41.6975 -41.6975,-75.5 0,-75.5"
             style="fill:none;stroke:#ff0000;stroke-width:0.0471207;stroke-linecap:round;stroke-linejoin:round;stroke-miterlimit:10;stroke-dasharray:none;stroke-opacity:1"
             id="path130" />
        </g>
        <g
           id="g132"
           transform="rotate(90,-3387,6431.5)"
           style="stroke:#ff0000;stroke-width:0.0471207;stroke-dasharray:none;stroke-opacity:1">
          <path
             d="M 0,-51.5 C 28.44267,-51.5 51.5,-28.44267 51.5,0 51.5,28.44267 28.44267,51.5 0,51.5 -28.44267,51.5 -51.5,28.44267 -51.5,0 -51.5,-28.44267 -28.44267,-51.5 0,-51.5"
             style="fill:none;stroke:#ff0000;stroke-width:0.0471207;stroke-linecap:round;stroke-linejoin:round;stroke-miterlimit:10;stroke-dasharray:none;stroke-opacity:1"
             id="path134" />
        </g>
        <g
           id="g136"
           transform="rotate(90,-1638.5,4683)"
           style="stroke:#ff0000;stroke-width:0.0471207;stroke-dasharray:none;stroke-opacity:1">
          <path
             d="M 0,-51.5 C 28.44267,-51.5 51.5,-28.44267 51.5,0 51.5,28.44267 28.44267,51.5 0,51.5 -28.44267,51.5 -51.5,28.44267 -51.5,0 -51.5,-28.44267 -28.44267,-51.5 0,-51.5"
             style="fill:none;stroke:#ff0000;stroke-width:0.0471207;stroke-linecap:round;stroke-linejoin:round;stroke-miterlimit:10;stroke-dasharray:none;stroke-opacity:1"
             id="path138" />
        </g>
        <g
           id="g140"
           transform="rotate(90,-2584,7234.5)"
           style="stroke:#ff0000;stroke-width:0.0471207;stroke-dasharray:none;stroke-opacity:1">
          <path
             d="M 0,-51.5 C 28.44267,-51.5 51.5,-28.44267 51.5,0 51.5,28.44267 28.44267,51.5 0,51.5 -28.44267,51.5 -51.5,28.44267 -51.5,0 -51.5,-28.44267 -28.44267,-51.5 0,-51.5"
             style="fill:none;stroke:#ff0000;stroke-width:0.0471207;stroke-linecap:round;stroke-linejoin:round;stroke-miterlimit:10;stroke-dasharray:none;stroke-opacity:1"
             id="path142" />
        </g>
        <g
           id="g144"
           transform="rotate(90,-835.5,5486)"
           style="stroke:#ff0000;stroke-width:0.0471207;stroke-dasharray:none;stroke-opacity:1">
          <path
             d="M 0,-51.5 C 28.44267,-51.5 51.5,-28.44267 51.5,0 51.5,28.44267 28.44267,51.5 0,51.5 -28.44267,51.5 -51.5,28.44267 -51.5,0 -51.5,-28.44267 -28.44267,-51.5 0,-51.5"
             style="fill:none;stroke:#ff0000;stroke-width:0.0471207;stroke-linecap:round;stroke-linejoin:round;stroke-miterlimit:10;stroke-dasharray:none;stroke-opacity:1"
             id="path146" />
        </g>
        <g
           id="g148"
           transform="rotate(90,1905,8226.5)"
           style="stroke:#ff0000;stroke-width:0.0471207;stroke-dasharray:none;stroke-opacity:1">
          <path
             d="M 0,-51.5 C 28.44267,-51.5 51.5,-28.44267 51.5,0 51.5,28.44267 28.44267,51.5 0,51.5 -28.44267,51.5 -51.5,28.44267 -51.5,0 -51.5,-28.44267 -28.44267,-51.5 0,-51.5"
             style="fill:none;stroke:#ff0000;stroke-width:0.0471207;stroke-linecap:round;stroke-linejoin:round;stroke-miterlimit:10;stroke-dasharray:none;stroke-opacity:1"
             id="path150" />
        </g>
        <g
           id="g152"
           transform="rotate(90,2708,9029.5)"
           style="stroke:#ff0000;stroke-width:0.0471207;stroke-dasharray:none;stroke-opacity:1">
          <path
             d="M 0,-51.5 C 28.44267,-51.5 51.5,-28.44267 51.5,0 51.5,28.44267 28.44267,51.5 0,51.5 -28.44267,51.5 -51.5,28.44267 -51.5,0 -51.5,-28.44267 -28.44267,-51.5 0,-51.5"
             style="fill:none;stroke:#ff0000;stroke-width:0.0471207;stroke-linecap:round;stroke-linejoin:round;stroke-miterlimit:10;stroke-dasharray:none;stroke-opacity:1"
             id="path154" />
        </g>
        <g
           id="g156"
           transform="rotate(90,156.5,9975)"
           style="stroke:#ff0000;stroke-width:0.0471207;stroke-dasharray:none;stroke-opacity:1">
          <path
             d="M 0,-51.5 C 28.44267,-51.5 51.5,-28.44267 51.5,0 51.5,28.44267 28.44267,51.5 0,51.5 -28.44267,51.5 -51.5,28.44267 -51.5,0 -51.5,-28.44267 -28.44267,-51.5 0,-51.5"
             style="fill:none;stroke:#ff0000;stroke-width:0.0471207;stroke-linecap:round;stroke-linejoin:round;stroke-miterlimit:10;stroke-dasharray:none;stroke-opacity:1"
             id="path158" />
        </g>
        <g
           id="g160"
           transform="rotate(90,959.5,10778)"
           style="stroke:#ff0000;stroke-width:0.0471207;stroke-dasharray:none;stroke-opacity:1">
          <path
             d="M 0,-51.5 C 28.44267,-51.5 51.5,-28.44267 51.5,0 51.5,28.44267 28.44267,51.5 0,51.5 -28.44267,51.5 -51.5,28.44267 -51.5,0 -51.5,-28.44267 -28.44267,-51.5 0,-51.5"
             style="fill:none;stroke:#ff0000;stroke-width:0.0471207;stroke-linecap:round;stroke-linejoin:round;stroke-miterlimit:10;stroke-dasharray:none;stroke-opacity:1"
             id="path162" />
        </g>
        <g
           id="g164"
           transform="rotate(90,-862,5890.5)"
           style="stroke:#ff0000;stroke-width:0.0471207;stroke-dasharray:none;stroke-opacity:1">
          <path
             d="M 0,-78.5 C 43.35435,-78.5 78.5,-43.35435 78.5,0 78.5,43.35435 43.35435,78.5 0,78.5 -43.35435,78.5 -78.5,43.35435 -78.5,0 -78.5,-43.35435 -43.35435,-78.5 0,-78.5"
             style="fill:none;stroke:#ff0000;stroke-width:0.0471207;stroke-linecap:round;stroke-linejoin:round;stroke-miterlimit:10;stroke-dasharray:none;stroke-opacity:1"
             id="path166" />
        </g>
        <g
           id="g168"
           transform="rotate(90,1500.5,8253)"
           style="stroke:#ff0000;stroke-width:0.0471207;stroke-dasharray:none;stroke-opacity:1">
          <path
             d="M 0,-78.5 C 43.35435,-78.5 78.5,-43.35435 78.5,0 78.5,43.35435 43.35435,78.5 0,78.5 -43.35435,78.5 -78.5,43.35435 -78.5,0 -78.5,-43.35435 -43.35435,-78.5 0,-78.5"
             style="fill:none;stroke:#ff0000;stroke-width:0.0471207;stroke-linecap:round;stroke-linejoin:round;stroke-miterlimit:10;stroke-dasharray:none;stroke-opacity:1"
             id="path170" />
        </g>
        <g
           id="g172"
           transform="rotate(90,-2182.5,7211)"
           style="stroke:#ff0000;stroke-width:0.0471207;stroke-dasharray:none;stroke-opacity:1">
          <path
             d="M 0,-78.5 C 43.35435,-78.5 78.5,-43.35435 78.5,0 78.5,43.35435 43.35435,78.5 0,78.5 -43.35435,78.5 -78.5,43.35435 -78.5,0 -78.5,-43.35435 -43.35435,-78.5 0,-78.5"
             style="fill:none;stroke:#ff0000;stroke-width:0.0471207;stroke-linecap:round;stroke-linejoin:round;stroke-miterlimit:10;stroke-dasharray:none;stroke-opacity:1"
             id="path174" />
        </g>
        <g
           id="g176"
           transform="rotate(90,180,9573.5)"
           style="stroke:#ff0000;stroke-width:0.0471207;stroke-dasharray:none;stroke-opacity:1">
          <path
             d="M 0,-78.5 C 43.35435,-78.5 78.5,-43.35435 78.5,0 78.5,43.35435 43.35435,78.5 0,78.5 -43.35435,78.5 -78.5,43.35435 -78.5,0 -78.5,-43.35435 -43.35435,-78.5 0,-78.5"
             style="fill:none;stroke:#ff0000;stroke-width:0.0471207;stroke-linecap:round;stroke-linejoin:round;stroke-miterlimit:10;stroke-dasharray:none;stroke-opacity:1"
             id="path178" />
        </g>
        <g
           id="g180"
           transform="rotate(90,-3370.5,8361)"
           style="stroke:#ff0000;stroke-width:0.0471207;stroke-dasharray:none;stroke-opacity:1">
          <path
             d="M 0,-70.5 C 38.93608,-70.5 70.5,-38.93608 70.5,0 70.5,38.93608 38.93608,70.5 0,70.5 -38.93608,70.5 -70.5,38.93608 -70.5,0 -70.5,-38.93608 -38.93608,-70.5 0,-70.5"
             style="fill:none;stroke:#ff0000;stroke-width:0.0471207;stroke-linecap:round;stroke-linejoin:round;stroke-miterlimit:10;stroke-dasharray:none;stroke-opacity:1"
             id="path182" />
        </g>
        <path
           d="m 10225,10106 -182,182"
           style="fill:none;stroke:#ff0000;stroke-width:0.0471207;stroke-linecap:round;stroke-linejoin:round;stroke-miterlimit:10;stroke-dasharray:none;stroke-opacity:1"
           id="path184" />
        <g
           id="g186"
           transform="rotate(-90,10233,122.5)"
           style="stroke:#ff0000;stroke-width:0.0471207;stroke-dasharray:none;stroke-opacity:1">
          <path
             d="m 0,-94.5 c 25.06296,0 49.0994,9.95622 66.82159,27.67841"
             style="fill:none;stroke:#ff0000;stroke-width:0.0471207;stroke-linecap:round;stroke-linejoin:round;stroke-miterlimit:10;stroke-dasharray:none;stroke-opacity:1"
             id="path188" />
        </g>
        <path
           d="m 10015,10355 v 867"
           style="fill:none;stroke:#ff0000;stroke-width:0.0471207;stroke-linecap:round;stroke-linejoin:round;stroke-miterlimit:10;stroke-dasharray:none;stroke-opacity:1"
           id="path190" />
        <g
           id="g192"
           transform="matrix(-0.70711,-0.70711,0.70711,-0.70711,10110.5,11222.5)"
           style="stroke:#ff0000;stroke-width:0.04712048;stroke-dasharray:none;stroke-opacity:1">
          <path
             d="m 0,-94.5 c 25.06296,0 49.0994,9.95622 66.82159,27.67841"
             style="fill:none;stroke:#ff0000;stroke-width:0.04712048;stroke-linecap:round;stroke-linejoin:round;stroke-miterlimit:10;stroke-dasharray:none;stroke-opacity:1"
             id="path194" />
        </g>
        <path
           d="m 10043,11289 178,178"
           style="fill:none;stroke:#ff0000;stroke-width:0.0471207;stroke-linecap:round;stroke-linejoin:round;stroke-miterlimit:10;stroke-dasharray:none;stroke-opacity:1"
           id="path196" />
        <g
           id="g198"
           transform="rotate(90,-689.5,10845)"
           style="stroke:#ff0000;stroke-width:0.0471207;stroke-dasharray:none;stroke-opacity:1">
          <path
             d="M -66.82159,-66.82159 C -49.0994,-84.54378 -25.06296,-94.5 0,-94.5"
             style="fill:none;stroke:#ff0000;stroke-width:0.0471207;stroke-linecap:round;stroke-linejoin:round;stroke-miterlimit:10;stroke-dasharray:none;stroke-opacity:1"
             id="path200" />
        </g>
        <path
           d="m 10249,11534 v 1189"
           style="fill:none;stroke:#ff0000;stroke-width:0.0471207;stroke-linecap:round;stroke-linejoin:round;stroke-miterlimit:10;stroke-dasharray:none;stroke-opacity:1"
           id="path202" />
        <g
           id="g204"
           transform="rotate(180,5077.75,6361.75)"
           style="stroke:#ff0000;stroke-width:0.0471207;stroke-dasharray:none;stroke-opacity:1">
          <path
             d="m -94.5,0 c 0,-52.19091 42.30909,-94.5 94.5,-94.5"
             style="fill:none;stroke:#ff0000;stroke-width:0.0471207;stroke-linecap:round;stroke-linejoin:round;stroke-miterlimit:10;stroke-dasharray:none;stroke-opacity:1"
             id="path206" />
        </g>
        <path
           d="M 10155,12818 H 4626"
           style="fill:none;stroke:#ff0000;stroke-width:0.0471207;stroke-linecap:round;stroke-linejoin:round;stroke-miterlimit:10;stroke-dasharray:none;stroke-opacity:1"
           id="path208" />
        <g
           id="g210"
           transform="rotate(-90,8675,4048.5)"
           style="stroke:#ff0000;stroke-width:0.0471207;stroke-dasharray:none;stroke-opacity:1">
          <path
             d="m -94.5,0 c 0,-52.19091 42.30909,-94.5 94.5,-94.5"
             style="fill:none;stroke:#ff0000;stroke-width:0.0471207;stroke-linecap:round;stroke-linejoin:round;stroke-miterlimit:10;stroke-dasharray:none;stroke-opacity:1"
             id="path212" />
        </g>
        <path
           d="M 4532,12723 V 11534"
           style="fill:none;stroke:#ff0000;stroke-width:0.0471207;stroke-linecap:round;stroke-linejoin:round;stroke-miterlimit:10;stroke-dasharray:none;stroke-opacity:1"
           id="path214" />
        <g
           id="g216"
           transform="matrix(0.70711,-0.70711,0.70711,0.70711,4626.5,11534.5)"
           style="stroke:#ff0000;stroke-width:0.04712048;stroke-dasharray:none;stroke-opacity:1">
          <path
             d="M -66.82159,-66.82159 C -49.0994,-84.54378 -25.06296,-94.5 0,-94.5"
             style="fill:none;stroke:#ff0000;stroke-width:0.04712048;stroke-linecap:round;stroke-linejoin:round;stroke-miterlimit:10;stroke-dasharray:none;stroke-opacity:1"
             id="path218" />
        </g>
        <path
           d="m 4560,11467 178,-178"
           style="fill:none;stroke:#ff0000;stroke-width:0.0471207;stroke-linecap:round;stroke-linejoin:round;stroke-miterlimit:10;stroke-dasharray:none;stroke-opacity:1"
           id="path220" />
        <g
           id="g222"
           transform="rotate(90,-3275.5,7947)"
           style="stroke:#ff0000;stroke-width:0.0471207;stroke-dasharray:none;stroke-opacity:1">
          <path
             d="m 0,-94.5 c 25.06296,0 49.0994,9.95622 66.82159,27.67841"
             style="fill:none;stroke:#ff0000;stroke-width:0.0471207;stroke-linecap:round;stroke-linejoin:round;stroke-miterlimit:10;stroke-dasharray:none;stroke-opacity:1"
             id="path224" />
        </g>
        <path
           d="m 4766,11222 v -867"
           style="fill:none;stroke:#ff0000;stroke-width:0.0471207;stroke-linecap:round;stroke-linejoin:round;stroke-miterlimit:10;stroke-dasharray:none;stroke-opacity:1"
           id="path226" />
        <g
           id="g228"
           transform="matrix(0.70711,0.70711,-0.70711,0.70711,4671.5,10355.5)"
           style="stroke:#ff0000;stroke-width:0.04712048;stroke-dasharray:none;stroke-opacity:1">
          <path
             d="m 0,-94.5 c 25.06296,0 49.0994,9.95622 66.82159,27.67841"
             style="fill:none;stroke:#ff0000;stroke-width:0.04712048;stroke-linecap:round;stroke-linejoin:round;stroke-miterlimit:10;stroke-dasharray:none;stroke-opacity:1"
             id="path230" />
        </g>
        <path
           d="m 4738,10288 -182,-182"
           style="fill:none;stroke:#ff0000;stroke-width:0.0471207;stroke-linecap:round;stroke-linejoin:round;stroke-miterlimit:10;stroke-dasharray:none;stroke-opacity:1"
           id="path232" />
        <g
           id="g234"
           transform="matrix(-0.20279,-0.97922,0.97922,-0.20279,4623.5,10039.5)"
           style="stroke:#ff0000;stroke-width:0.0471208;stroke-dasharray:none;stroke-opacity:1">
          <path
             d="M -51.87448,-78.98917 C -36.46596,-89.10838 -18.43423,-94.5 0,-94.5"
             style="fill:none;stroke:#ff0000;stroke-width:0.0471208;stroke-linecap:round;stroke-linejoin:round;stroke-miterlimit:10;stroke-dasharray:none;stroke-opacity:1"
             id="path236" />
        </g>
        <path
           d="m 4437.5,9984 c 44.8042,0 83.4502,31.463 92.5366,75.336"
           style="fill:none;stroke:#ff0000;stroke-width:0.0471207;stroke-linecap:round;stroke-linejoin:round;stroke-miterlimit:10;stroke-dasharray:none;stroke-opacity:1"
           id="path238" />
        <path
           d="M 4437,9983 H 2737"
           style="fill:none;stroke:#ff0000;stroke-width:0.0471207;stroke-linecap:round;stroke-linejoin:round;stroke-miterlimit:10;stroke-dasharray:none;stroke-opacity:1"
           id="path240" />
        <g
           id="g242"
           transform="rotate(-90,6313.5,3576)"
           style="stroke:#ff0000;stroke-width:0.0471207;stroke-dasharray:none;stroke-opacity:1">
          <path
             d="m -94.5,0 c 0,-52.19091 42.30909,-94.5 94.5,-94.5"
             style="fill:none;stroke:#ff0000;stroke-width:0.0471207;stroke-linecap:round;stroke-linejoin:round;stroke-miterlimit:10;stroke-dasharray:none;stroke-opacity:1"
             id="path244" />
        </g>
        <path
           d="M 2642,9889 V 6250"
           style="fill:none;stroke:#ff0000;stroke-width:0.0471207;stroke-linecap:round;stroke-linejoin:round;stroke-miterlimit:10;stroke-dasharray:none;stroke-opacity:1"
           id="path246" />
        <path
           d="m 2643,6250.5 c 0,-52.1909 42.3091,-94.5 94.5,-94.5"
           style="fill:none;stroke:#ff0000;stroke-width:0.0471207;stroke-linecap:round;stroke-linejoin:round;stroke-miterlimit:10;stroke-dasharray:none;stroke-opacity:1"
           id="path248" />
        <path
           d="M 2737,6156 H 4437"
           style="fill:none;stroke:#ff0000;stroke-width:0.0471207;stroke-linecap:round;stroke-linejoin:round;stroke-miterlimit:10;stroke-dasharray:none;stroke-opacity:1"
           id="path250" />
        <g
           id="g252"
           transform="matrix(-0.20279,0.97922,-0.97922,-0.20279,4437.5,6061.5)"
           style="stroke:#ff0000;stroke-width:0.0471208;stroke-dasharray:none;stroke-opacity:1">
          <path
             d="m 0,-94.5 c 44.80437,0 83.45032,31.4625 92.53641,75.33589"
             style="fill:none;stroke:#ff0000;stroke-width:0.0471208;stroke-linecap:round;stroke-linejoin:round;stroke-miterlimit:10;stroke-dasharray:none;stroke-opacity:1"
             id="path254" />
        </g>
        <g
           id="g256"
           transform="matrix(0.70711,-0.70711,0.70711,0.70711,4623.5,6100.5)"
           style="stroke:#ff0000;stroke-width:0.04712048;stroke-dasharray:none;stroke-opacity:1">
          <path
             d="M -51.87448,-78.98917 C -36.46596,-89.10838 -18.43423,-94.5 0,-94.5"
             style="fill:none;stroke:#ff0000;stroke-width:0.04712048;stroke-linecap:round;stroke-linejoin:round;stroke-miterlimit:10;stroke-dasharray:none;stroke-opacity:1"
             id="path258" />
        </g>
        <path
           d="m 4556,6033 182,-182"
           style="fill:none;stroke:#ff0000;stroke-width:0.0471207;stroke-linecap:round;stroke-linejoin:round;stroke-miterlimit:10;stroke-dasharray:none;stroke-opacity:1"
           id="path260" />
        <g
           id="g262"
           transform="rotate(90,-556.5,5228)"
           style="stroke:#ff0000;stroke-width:0.0471207;stroke-dasharray:none;stroke-opacity:1">
          <path
             d="m 0,-94.5 c 25.06296,0 49.0994,9.95622 66.82159,27.67841"
             style="fill:none;stroke:#ff0000;stroke-width:0.0471207;stroke-linecap:round;stroke-linejoin:round;stroke-miterlimit:10;stroke-dasharray:none;stroke-opacity:1"
             id="path264" />
        </g>
        <path
           d="M 4766,5784 V 4917"
           style="fill:none;stroke:#ff0000;stroke-width:0.0471207;stroke-linecap:round;stroke-linejoin:round;stroke-miterlimit:10;stroke-dasharray:none;stroke-opacity:1"
           id="path266" />
        <g
           id="g268"
           transform="matrix(0.70711,0.70711,-0.70711,0.70711,4671.5,4917.5)"
           style="stroke:#ff0000;stroke-width:0.04712048;stroke-dasharray:none;stroke-opacity:1">
          <path
             d="m 0,-94.5 c 25.06296,0 49.0994,9.95622 66.82159,27.67841"
             style="fill:none;stroke:#ff0000;stroke-width:0.04712048;stroke-linecap:round;stroke-linejoin:round;stroke-miterlimit:10;stroke-dasharray:none;stroke-opacity:1"
             id="path270" />
        </g>
        <path
           d="M 4738,4850 4560,4672"
           style="fill:none;stroke:#ff0000;stroke-width:0.0471207;stroke-linecap:round;stroke-linejoin:round;stroke-miterlimit:10;stroke-dasharray:none;stroke-opacity:1"
           id="path272" />
        <g
           id="g274"
           transform="rotate(-90,4616,-10.5)"
           style="stroke:#ff0000;stroke-width:0.0471207;stroke-dasharray:none;stroke-opacity:1">
          <path
             d="M -66.82159,-66.82159 C -49.0994,-84.54378 -25.06296,-94.5 0,-94.5"
             style="fill:none;stroke:#ff0000;stroke-width:0.0471207;stroke-linecap:round;stroke-linejoin:round;stroke-miterlimit:10;stroke-dasharray:none;stroke-opacity:1"
             id="path276" />
        </g>
        <path
           d="M 4532,4605 V 3416"
           style="fill:none;stroke:#ff0000;stroke-width:0.0471207;stroke-linecap:round;stroke-linejoin:round;stroke-miterlimit:10;stroke-dasharray:none;stroke-opacity:1"
           id="path278" />
        <path
           d="m 4532,3416.5 c 0,-52.1909 42.3091,-94.5 94.5,-94.5"
           style="fill:none;stroke:#ff0000;stroke-width:0.0471207;stroke-linecap:round;stroke-linejoin:round;stroke-miterlimit:10;stroke-dasharray:none;stroke-opacity:1"
           id="path280" />
        <path
           d="m 4626,3321 h 5529"
           style="fill:none;stroke:#ff0000;stroke-width:0.0471207;stroke-linecap:round;stroke-linejoin:round;stroke-miterlimit:10;stroke-dasharray:none;stroke-opacity:1"
           id="path282" />
        <g
           id="g284"
           transform="rotate(90,3369.5,6786)"
           style="stroke:#ff0000;stroke-width:0.0471207;stroke-dasharray:none;stroke-opacity:1">
          <path
             d="m -94.5,0 c 0,-52.19091 42.30909,-94.5 94.5,-94.5"
             style="fill:none;stroke:#ff0000;stroke-width:0.0471207;stroke-linecap:round;stroke-linejoin:round;stroke-miterlimit:10;stroke-dasharray:none;stroke-opacity:1"
             id="path286" />
        </g>
        <path
           d="M 10249,3416 V 4605"
           style="fill:none;stroke:#ff0000;stroke-width:0.0471207;stroke-linecap:round;stroke-linejoin:round;stroke-miterlimit:10;stroke-dasharray:none;stroke-opacity:1"
           id="path288" />
        <g
           id="g290"
           transform="matrix(-0.70711,0.70711,-0.70711,-0.70711,10155.5,4605.5)"
           style="stroke:#ff0000;stroke-width:0.04712048;stroke-dasharray:none;stroke-opacity:1">
          <path
             d="M -66.82159,-66.82159 C -49.0994,-84.54378 -25.06296,-94.5 0,-94.5"
             style="fill:none;stroke:#ff0000;stroke-width:0.04712048;stroke-linecap:round;stroke-linejoin:round;stroke-miterlimit:10;stroke-dasharray:none;stroke-opacity:1"
             id="path292" />
        </g>
        <path
           d="m 10221,4672 -178,178"
           style="fill:none;stroke:#ff0000;stroke-width:0.0471207;stroke-linecap:round;stroke-linejoin:round;stroke-miterlimit:10;stroke-dasharray:none;stroke-opacity:1"
           id="path294" />
        <g
           id="g296"
           transform="rotate(-90,7514,-2596.5)"
           style="stroke:#ff0000;stroke-width:0.0471207;stroke-dasharray:none;stroke-opacity:1">
          <path
             d="m 0,-94.5 c 25.06296,0 49.0994,9.95622 66.82159,27.67841"
             style="fill:none;stroke:#ff0000;stroke-width:0.0471207;stroke-linecap:round;stroke-linejoin:round;stroke-miterlimit:10;stroke-dasharray:none;stroke-opacity:1"
             id="path298" />
        </g>
        <path
           d="m 10015,4917 v 867"
           style="fill:none;stroke:#ff0000;stroke-width:0.0471207;stroke-linecap:round;stroke-linejoin:round;stroke-miterlimit:10;stroke-dasharray:none;stroke-opacity:1"
           id="path300" />
        <g
           id="g302"
           transform="matrix(-0.70711,-0.70711,0.70711,-0.70711,10110.5,5784.5)"
           style="stroke:#ff0000;stroke-width:0.04712048;stroke-dasharray:none;stroke-opacity:1">
          <path
             d="m 0,-94.5 c 25.06296,0 49.0994,9.95622 66.82159,27.67841"
             style="fill:none;stroke:#ff0000;stroke-width:0.04712048;stroke-linecap:round;stroke-linejoin:round;stroke-miterlimit:10;stroke-dasharray:none;stroke-opacity:1"
             id="path304" />
        </g>
        <path
           d="m 10043,5851 182,182"
           style="fill:none;stroke:#ff0000;stroke-width:0.0471207;stroke-linecap:round;stroke-linejoin:round;stroke-miterlimit:10;stroke-dasharray:none;stroke-opacity:1"
           id="path306" />
        <g
           id="g308"
           transform="matrix(0.20279,0.97922,-0.97922,0.20279,10158.5,6100.5)"
           style="stroke:#ff0000;stroke-width:0.0471208;stroke-dasharray:none;stroke-opacity:1">
          <path
             d="M -51.87448,-78.98917 C -36.46596,-89.10838 -18.43423,-94.5 0,-94.5"
             style="fill:none;stroke:#ff0000;stroke-width:0.0471208;stroke-linecap:round;stroke-linejoin:round;stroke-miterlimit:10;stroke-dasharray:none;stroke-opacity:1"
             id="path310" />
        </g>
        <g
           id="g312"
           transform="rotate(180,5172.25,3030.75)"
           style="stroke:#ff0000;stroke-width:0.0471207;stroke-dasharray:none;stroke-opacity:1">
          <path
             d="m 0,-94.5 c 44.80437,0 83.45032,31.4625 92.53641,75.33589"
             style="fill:none;stroke:#ff0000;stroke-width:0.0471207;stroke-linecap:round;stroke-linejoin:round;stroke-miterlimit:10;stroke-dasharray:none;stroke-opacity:1"
             id="path314" />
        </g>
        <path
           d="m 10344,6156 h 1700"
           style="fill:none;stroke:#ff0000;stroke-width:0.0471207;stroke-linecap:round;stroke-linejoin:round;stroke-miterlimit:10;stroke-dasharray:none;stroke-opacity:1"
           id="path316" />
        <g
           id="g318"
           transform="rotate(90,2897,9147.5)"
           style="stroke:#ff0000;stroke-width:0.0471207;stroke-dasharray:none;stroke-opacity:1">
          <path
             d="m -94.5,0 c 0,-52.19091 42.30909,-94.5 94.5,-94.5"
             style="fill:none;stroke:#ff0000;stroke-width:0.0471207;stroke-linecap:round;stroke-linejoin:round;stroke-miterlimit:10;stroke-dasharray:none;stroke-opacity:1"
             id="path320" />
        </g>
        <path
           d="M 12139,6250 V 9889"
           style="fill:none;stroke:#ff0000;stroke-width:0.0471207;stroke-linecap:round;stroke-linejoin:round;stroke-miterlimit:10;stroke-dasharray:none;stroke-opacity:1"
           id="path322" />
        <g
           id="g324"
           transform="rotate(180,6022.25,4944.75)"
           style="stroke:#ff0000;stroke-width:0.0471207;stroke-dasharray:none;stroke-opacity:1">
          <path
             d="m -94.5,0 c 0,-52.19091 42.30909,-94.5 94.5,-94.5"
             style="fill:none;stroke:#ff0000;stroke-width:0.0471207;stroke-linecap:round;stroke-linejoin:round;stroke-miterlimit:10;stroke-dasharray:none;stroke-opacity:1"
             id="path326" />
        </g>
        <path
           d="M 12044,9983 H 10344"
           style="fill:none;stroke:#ff0000;stroke-width:0.0471207;stroke-linecap:round;stroke-linejoin:round;stroke-miterlimit:10;stroke-dasharray:none;stroke-opacity:1"
           id="path328" />
        <g
           id="g330"
           transform="matrix(0.20279,-0.97922,0.97922,0.20279,10344.5,10078.5)"
           style="stroke:#ff0000;stroke-width:0.0471208;stroke-dasharray:none;stroke-opacity:1">
          <path
             d="m 0,-94.5 c 44.80437,0 83.45032,31.4625 92.53641,75.33589"
             style="fill:none;stroke:#ff0000;stroke-width:0.0471208;stroke-linecap:round;stroke-linejoin:round;stroke-miterlimit:10;stroke-dasharray:none;stroke-opacity:1"
             id="path332" />
        </g>
      </g>
    </g>
    <text
       xml:space="preserve"
       style="font-size:300.786px;font-family:sans-serif;-inkscape-font-specification:'sans-serif, Normal';fill:none;fill-opacity:1;stroke:#0000ff;stroke-width:0.04724413;stroke-dasharray:none;stroke-opacity:1"
       x="4939.0781"
       y="-3504.8611"
       id="text1170"
       transform="scale(1,-1)"><tspan
         sodipodi:role="line"
         id="tspan1168"
         style="fill:none;fill-opacity:1;stroke:#0000ff;stroke-width:0.04724413;stroke-dasharray:none;stroke-opacity:1"
         x="4939.0781"
         y="-3504.8611">JABA Rover Chassis V4 by el1321</tspan></text>
    <path
       d="m 9505.8426,5578.4963 c -29.2958,55.9405 -79.7598,78.9931 -121.2974,122.8707 -39.0876,41.2889 -65.1799,92.6267 -109.4382,129.6382 -55.6976,46.5789 -125.3213,73.0554 -198.7798,79.0177 -78.9324,6.4064 -158.3097,4.4926 -236.8029,-8.3685 -58.7401,-9.6245 -110.7631,-32.4027 -151.2067,-75.6793 -33.6921,-36.0522 -53.8611,-79.0727 -68.4387,-124.8182 -9.0359,-28.3548 -15.9445,-57.2835 -21.3586,-86.4628 -3.202,-17.254 0.2434,-61.8486 -20.5561,-69.8299 -21.3586,-8.1836 -63.827,3.0812 -89.5375,-2.3603 -56.455,-11.9482 -95.0099,-42.1999 -109.4227,-97.7416 -10.7442,-41.4025 -17.1201,-83.4625 -21.9829,-125.7358 -7.2227,-62.7828 -11.3819,-125.7781 -12.1337,-188.9681 -0.8305,-69.861 0.9136,-139.4234 15.4196,-208.3471 13.3847,-63.5951 52.8572,-103.7968 115.6338,-124.7485 30.6572,-10.2321 62.3301,-14.8598 94.726,-14.5589 7.1434,0.065 9.389,-1.652 10.067,-8.8324 3.8575,-40.8742 8.3486,-81.7086 16.7065,-122.0175 4.848,-23.3802 9.7466,-46.906 22.9098,-67.6415 66.4972,-104.7536 220.9299,-117.5568 313.9081,-38.8803 29.4405,24.9123 39.8178,61.4308 43.2568,100.6271 3.8714,44.1253 -1.0496,91.6444 2.5349,129.82 1.0069,10.7291 0.8949,10.59 12.2107,7.4781 37.691,-10.3656 50.8146,-7.0914 52.1349,-45.662 0.8553,-24.9972 -0.023,-50.0001 3.7229,-74.849 7.578,-50.2905 32.2358,-92.183 85.715,-107.3932 77.6223,-22.075 230.553,-31.3636 250.5975,71.8434 5.7002,29.3644 10.9922,58.7979 16.0161,88.2671 9.5965,56.2895 17.6473,112.792 25.4151,169.3407 8.8073,64.1177 16.3931,128.3174 17.6659,193.0396 1.587,80.7179 0.199,161.4056 -5.0899,241.9783 -0.877,13.3544 2.6609,21.4984 14.024,30.019 77.7048,58.2639 97.5525,144.6063 53.3805,228.955 z"
       style="fill:none;stroke:#0000ff;stroke-width:0.04724413;stroke-dasharray:none;stroke-opacity:1"
       id="path5412" />
    <path
       d="m 8578.6616,5457.7141 c -3.5316,-47.0046 -6.5827,-94.0303 -8.5546,-141.1302 -2.1235,-50.7395 -3.1755,-101.485 -3.5379,-152.2566 -0.7021,-98.2385 1.2737,-196.4162 6.6723,-294.5262 0.1787,-3.2503 2.3116,-7.7565 -4.4259,-7.4732 -35.0777,1.4761 -68.7854,6.9247 -98.3697,27.1957 -19.0291,13.0388 -24.1439,32.4516 -28.4717,52.3322 -10.4728,48.1188 -12.9097,96.9543 -13.3141,145.9383 -0.07,8.1598 0,16.3206 0,24.4807 -0.1967,60.4821 3.6569,120.7895 9.8827,180.9252 4.691,45.3174 10.6114,90.5195 22.5468,134.7904 4.5385,16.8343 15.6218,27.298 32.2016,32.6518 26.0137,8.4003 52.8564,6.8504 79.6556,5.1731 5.6706,-0.3549 6.064,-3.5741 5.7242,-8.1012 z"
       style="fill:none;stroke:#0000ff;stroke-width:0.04724413;stroke-dasharray:none;stroke-opacity:1"
       id="path5414" />
    <path
       d="m 9356.334,5013.7176 c -4.6512,-62.9617 -14.3528,-125.4458 -23.4261,-187.9578 -8.459,-58.2723 -18.2592,-116.3313 -28.7624,-174.2975 -2.111,-11.6511 -7.2562,-18.1532 -18.7476,-21.918 -28.5432,-9.3519 -57.6493,-9.0807 -86.9754,-5.8439 -15.9718,1.7628 -31.6565,4.9897 -46.8679,10.241 -8.9885,3.1028 -14.5246,8.2523 -16.9412,17.5428 -8.3673,32.1768 -8.5407,64.6009 -4.0596,97.163 2.1056,15.2988 2.6149,15.3204 18.5399,18.2035 23.4969,4.2544 45.8173,11.0199 64.3153,26.434 14.237,11.863 23.1858,26.6962 28.3503,45.7074 -59.3265,-20.3621 -115.9595,-8.8456 -172.2932,5.7784 -28.243,7.3317 -56.0592,16.1575 -84.1872,23.911 -14.9383,4.1178 -30.141,6.7687 -45.5358,1.5122 -21.4535,-7.3252 -30.5944,-23.8589 -35.615,-43.5077 -7.3845,-28.9015 -9.4396,-58.4503 -11.1781,-87.9863 -2.272,-38.6253 -3.6616,-77.2934 -3.7983,-115.9881 -0.016,-3.9613 -1.4362,-6.8085 -4.1911,-9.6166 -62.6653,-63.8659 -143.8931,-45.0431 -189.446,8.203 -11.9829,14.0072 -13.3599,32.3668 -16.5463,49.4754 -12.1462,65.2159 -17.1543,131.1614 -21.2746,197.2037 -6.9903,112.0182 -8.7507,224.1438 -6.9141,336.299 1.3848,84.6071 4.7618,169.1706 12.4114,253.5295 5.3472,58.9732 11.6057,117.8063 24.9734,175.7157 7.0112,30.3733 16.5128,59.9343 29.6909,88.495 27.3511,59.2822 74.9195,92.2117 141.2028,101.706 69.0109,9.8857 138.5653,10.6107 207.804,6.4667 73.352,-4.3908 134.7203,-35.4419 183.2505,-88.7833 2.0037,-2.2016 4.8449,-4.0199 5.0906,-7.96 -14.1063,1.3307 -28.0572,2.8943 -42.1029,3.6176 -67.4892,3.4764 -133.2477,-6.1509 -198.059,-23.2457 -29.1621,-7.6919 -57.4199,-17.959 -85.918,-27.6006 -21.0219,-7.1125 -36.3288,-20.1513 -49.2828,-36.4811 -27.7346,-34.9645 -41.4343,-74.7741 -44.1308,-118.3904 -2.9384,-47.5133 5.809,-93.3003 22.9929,-137.5744 21.2762,-54.8151 65.3324,-87.4234 119.8831,-108.801 40.0541,-15.6966 82.1112,-23.0023 125.1814,-25.4589 84.2221,-4.8034 165.9647,6.5706 245.1055,34.6163 5.8403,2.0693 7.5563,1.2721 7.7748,-4.8705 3.2782,-91.8553 6.4669,-183.7514 -0.3134,-275.5394 z"
       style="fill:none;stroke:#0000ff;stroke-width:0.04724413;stroke-dasharray:none;stroke-opacity:1"
       id="path5416" />
    <path
       d="m 9415.6559,5425.5419 c -29.1015,-28.1245 -65.1271,-45.3038 -103.3134,-58.4904 -55.9325,-19.3145 -113.8618,-28.3973 -188.2167,-28.2921 -31.7756,0.2155 -77.5283,5.3587 -120.789,23.5281 -24.1384,10.1385 -47.4758,22.999 -58.8654,46.1966 -25.0567,51.0359 -34.4106,104.4493 -16.2353,159.9088 1.779,5.4285 4.4219,10.635 7.0477,15.7643 7.7351,15.1093 18.6372,25.6121 36.3157,31.7375 66.4566,23.0274 133.9614,40.2725 205.1144,41.5672 66.9084,1.2174 130.6219,-9.9741 187.5434,-45.8369 36.5947,-23.0567 64.8136,-52.9529 76.4746,-94.4524 9.7746,-34.7846 1.7262,-65.7282 -25.076,-91.6307 z"
       style="fill:none;stroke:#0000ff;stroke-width:0.04724413;stroke-dasharray:none;stroke-opacity:1"
       id="path5418" />
    <path
       d="m 9505.8426,5578.4963 z m -29.2958,55.9405 z m -50.464,23.0526 z m -41.5376,43.8776 z"
       style="fill:#000000;stroke:#0000ff;stroke-width:0.04724413;stroke-dasharray:none;stroke-opacity:1"
       id="path5420" />
    <path
       d="m 7951.6622,5559.3018 c -29.2966,55.9406 -79.7604,78.9932 -121.2979,122.8707 -39.0872,41.289 -65.1793,92.6267 -109.4379,129.6382 -55.6976,46.579 -125.3215,73.0555 -198.7804,79.0177 -78.9322,6.4065 -158.3096,4.4927 -236.8026,-8.3684 -58.7405,-9.6246 -110.7634,-32.4028 -151.2071,-75.6793 -33.692,-36.0522 -53.8607,-79.0727 -68.4378,-124.8182 -9.0366,-28.3548 -15.9446,-57.2836 -21.3588,-86.4628 -3.2023,-17.2541 0.2437,-61.8486 -20.5567,-69.8299 -21.3578,-8.1836 -63.8267,3.0812 -89.5369,-2.3603 -56.4555,-11.9482 -95.0102,-42.2 -109.4229,-97.7417 -10.744,-41.4024 -17.1197,-83.4624 -21.9834,-125.7358 -7.2219,-62.7828 -11.3817,-125.7781 -12.1337,-188.968 -0.8302,-69.8611 0.9144,-139.4235 15.4203,-208.3472 13.385,-63.595 52.8571,-103.7967 115.6331,-124.7485 30.6581,-10.232 62.3308,-14.8598 94.7265,-14.5588 7.1436,0.065 9.3885,-1.652 10.0673,-8.8325 3.8571,-40.8742 8.3488,-81.7085 16.7066,-122.0175 4.8477,-23.3801 9.7465,-46.9059 22.9099,-67.6415 66.4967,-104.7535 220.9292,-117.5568 313.9081,-38.8802 29.4399,24.9122 39.817,61.4307 43.256,100.627 3.8721,44.1253 -1.0498,91.6445 2.5356,129.82 1.0066,10.7291 0.8943,10.5901 12.2099,7.4781 37.6915,-10.3655 50.8148,-7.0914 52.1352,-45.662 0.8552,-24.9972 -0.02,-50.0001 3.7227,-74.8489 7.5778,-50.2906 32.2363,-92.183 85.715,-107.3933 77.6228,-22.0749 230.5533,-31.3635 250.5977,71.8434 5.6999,29.3644 10.9927,58.7979 16.0158,88.2671 9.5971,56.2896 17.6481,112.7921 25.4154,169.3407 8.807,64.1177 16.3928,128.3175 17.6662,193.0397 1.5871,80.7178 0.1985,161.4055 -5.0903,241.9782 -0.8763,13.3544 2.6609,21.4985 14.0246,30.0191 77.704,58.2639 97.5519,144.6063 53.3805,228.9549 z"
       style="fill:none;stroke:#0000ff;stroke-width:0.04724413;stroke-dasharray:none;stroke-opacity:1"
       id="path5412-1" />
    <path
       d="m 7024.4809,5438.5197 c -3.5313,-47.0046 -6.5832,-94.0304 -8.5544,-141.1302 -2.1235,-50.7395 -3.1763,-101.4851 -3.5382,-152.2566 -0.7019,-98.2386 1.2733,-196.4163 6.6724,-294.5263 0.1785,-3.2503 2.311,-7.7564 -4.4256,-7.4731 -35.0786,1.4761 -68.7857,6.9247 -98.37,27.1956 -19.0297,13.0388 -24.144,32.4516 -28.4713,52.3323 -10.4734,48.1188 -12.9098,96.9543 -13.3148,145.9382 -0.07,8.1599 0,16.3207 0,24.4808 -0.1965,60.482 3.6575,120.7895 9.8828,180.9252 4.6913,45.3174 10.6117,90.5195 22.5469,134.7903 4.5389,16.8344 15.6218,27.298 32.2011,32.6518 26.014,8.4004 52.8571,6.8504 79.6561,5.1731 5.6708,-0.3549 6.0639,-3.574 5.724,-8.1011 z"
       style="fill:none;stroke:#0000ff;stroke-width:0.04724413;stroke-dasharray:none;stroke-opacity:1"
       id="path5414-5" />
    <path
       d="m 7802.1536,4994.5231 c -4.6512,-62.9617 -14.3535,-125.4457 -23.4262,-187.9577 -8.4591,-58.2724 -18.2597,-116.3314 -28.7632,-174.2976 -2.1105,-11.651 -7.2559,-18.1531 -18.747,-21.918 -28.5435,-9.3519 -57.6496,-9.0807 -86.9752,-5.8438 -15.9717,1.7628 -31.6567,4.9896 -46.8684,10.2409 -8.9885,3.1028 -14.524,8.2524 -16.9413,17.5429 -8.3669,32.1767 -8.5403,64.6008 -4.0596,97.1629 2.1055,15.2989 2.6148,15.3204 18.5404,18.2036 23.4964,4.2544 45.8167,11.0199 64.3151,26.4339 14.2372,11.863 23.1855,26.6963 28.35,45.7074 -59.326,-20.3621 -115.9589,-8.8456 -172.2931,5.7784 -28.2428,7.3318 -56.0595,16.1575 -84.1869,23.9111 -14.9381,4.1178 -30.1408,6.7687 -45.536,1.5121 -21.453,-7.3252 -30.5939,-23.8589 -35.615,-43.5076 -7.3843,-28.9015 -9.4397,-58.4503 -11.1782,-87.9864 -2.272,-38.6253 -3.6616,-77.2933 -3.798,-115.988 -0.02,-3.9614 -1.4367,-6.8086 -4.1909,-9.6166 -62.6657,-63.866 -143.8929,-45.0431 -189.446,8.203 -11.9833,14.0072 -13.3599,32.3668 -16.5462,49.4754 -12.1467,65.2158 -17.1548,131.1613 -21.2746,197.2037 -6.9902,112.0181 -8.7508,224.1437 -6.914,336.299 1.3846,84.6071 4.7614,169.1705 12.4104,253.5294 5.348,58.9733 11.6063,117.8064 24.9742,175.7158 7.0114,30.3732 16.5122,59.9343 29.6906,88.495 27.3515,59.2821 74.9197,92.2117 141.2029,101.706 69.0103,9.8856 138.565,10.6107 207.8039,6.4667 73.3516,-4.3908 134.72,-35.4419 183.2508,-88.7834 2.0032,-2.2015 4.8446,-4.0199 5.0903,-7.96 -14.1059,1.3308 -28.0573,2.8944 -42.103,3.6177 -67.4894,3.4764 -133.2472,-6.151 -198.0585,-23.2458 -29.1622,-7.6918 -57.42,-17.959 -85.9184,-27.6006 -21.022,-7.1124 -36.329,-20.1512 -49.2828,-36.4811 -27.7345,-34.9644 -41.4342,-74.774 -44.1313,-118.3904 -2.9377,-47.5132 5.8092,-93.3002 22.9931,-137.5744 21.2766,-54.8151 65.3327,-87.4234 119.8832,-108.8009 40.0546,-15.6966 82.1115,-23.0023 125.182,-25.4589 84.2221,-4.8035 165.9646,6.5705 245.1054,34.6163 5.8402,2.0693 7.5557,1.272 7.7743,-4.8705 3.2785,-91.8553 6.4669,-183.7515 -0.3128,-275.5395 z"
       style="fill:none;stroke:#0000ff;stroke-width:0.04724413;stroke-dasharray:none;stroke-opacity:1"
       id="path5416-4" />
    <path
       d="m 7861.4755,5406.3474 c -29.102,-28.1245 -65.1271,-45.3037 -103.3139,-58.4904 -55.9321,-19.3145 -113.8614,-28.3973 -188.2167,-28.292 -31.775,0.2155 -77.5285,5.3587 -120.7886,23.5281 -24.139,10.1384 -47.476,22.9989 -58.8657,46.1966 -25.0565,51.0359 -34.4109,104.4492 -16.2355,159.9087 1.7797,5.4286 4.4226,10.635 7.0474,15.7643 7.7353,15.1094 18.6377,25.6121 36.3159,31.7375 66.4566,23.0275 133.962,40.2725 205.1149,41.5672 66.9078,1.2175 130.6212,-9.974 187.543,-45.8368 36.5946,-23.0568 64.8143,-52.953 76.4748,-94.4525 9.7745,-34.7846 1.7265,-65.7281 -25.0756,-91.6307 z"
       style="fill:none;stroke:#0000ff;stroke-width:0.04724413;stroke-dasharray:none;stroke-opacity:1"
       id="path5418-5" />
    <path
       d="m 7951.6622,5559.3018 z m -29.2966,55.9406 z m -50.4638,23.0526 z m -41.5375,43.8775 z"
       style="fill:#000000;stroke:#0000ff;stroke-width:0.04724413;stroke-dasharray:none;stroke-opacity:1"
       id="path5420-6" />
    <path
       d="m 8096.806,8563.813 c -29.4708,18.8077 -80.2363,26.5582 -122.0219,41.3102 -39.3212,13.8818 -65.5693,31.142 -110.092,43.5855 -56.0302,15.6603 -126.0698,24.562 -199.9672,26.5665 -79.4038,2.1539 -159.2552,1.5105 -238.2172,-2.8135 -59.0911,-3.2359 -111.4248,-10.8941 -152.1099,-25.4441 -33.8935,-12.1211 -54.1829,-26.585 -68.8476,-41.9649 -9.0898,-9.5333 -16.0397,-19.2594 -21.4861,-29.0696 -3.2211,-5.801 0.2448,-20.7941 -20.6789,-23.4775 -21.4862,-2.7514 -64.2082,1.036 -90.0724,-0.7935 -56.7921,-4.0171 -95.5774,-14.1881 -110.0762,-32.8617 -10.8084,-13.9198 -17.2224,-28.0608 -22.1143,-42.2734 -7.2658,-21.1081 -11.4498,-42.2878 -12.2061,-63.5328 -0.8355,-23.4878 0.919,-46.8753 15.5116,-70.0481 13.4648,-21.3812 53.173,-34.8975 116.3245,-41.9416 30.8405,-3.44 62.7025,-4.996 95.292,-4.8947 7.1859,0.022 9.445,-0.5555 10.127,-2.9696 3.8806,-13.7423 8.3986,-27.4712 16.8063,-41.0234 4.877,-7.8606 9.8049,-15.7702 23.0467,-22.7417 66.8943,-35.2191 222.2495,-39.5236 315.7831,-13.0718 29.6164,8.3756 40.0556,20.6535 43.5152,33.8316 3.8945,14.8354 -1.0559,30.8117 2.55,43.6467 1.0129,3.6072 0.9002,3.5605 12.2836,2.5141 37.9162,-3.485 51.1181,-2.3841 52.4463,-15.3519 0.8604,-8.4042 -0.023,-16.8105 3.7452,-25.1649 7.6232,-16.9081 32.4283,-30.9927 86.227,-36.1065 78.086,-7.4218 231.9301,-10.5447 252.0944,24.1544 5.7341,9.8726 11.0579,19.7683 16.1117,29.6761 9.6539,18.925 17.7526,37.9218 25.5668,56.9338 8.86,21.5571 16.4911,43.1415 17.7716,64.9017 1.5963,27.1381 0.2001,54.266 -5.1204,81.3552 -0.8822,4.49 2.6768,7.228 14.1078,10.0927 78.1689,19.5889 98.1351,48.6179 53.6994,76.9767 z"
       style="fill:none;stroke:#0000ff;stroke-width:0.04724413;stroke-dasharray:none;stroke-opacity:1"
       id="path5412-3" />
    <path
       d="m 7164.0868,8523.205 c -3.5528,-15.8034 -6.622,-31.6139 -8.6058,-47.4492 -2.1361,-17.0591 -3.1944,-34.1202 -3.559,-51.1901 -0.7062,-33.0287 1.2813,-66.0368 6.7121,-99.0223 0.1799,-1.0927 2.3255,-2.6078 -4.4523,-2.5125 -35.2873,0.4963 -69.1963,2.3281 -98.9572,9.1433 -19.1428,4.3838 -24.2882,10.9106 -28.6417,17.5946 -10.5355,16.178 -12.9869,32.597 -13.3937,49.0658 -0.07,2.7434 0,5.4871 0,8.2306 -0.1979,20.3346 3.6787,40.6105 9.9417,60.8287 4.7191,15.2361 10.6747,30.4334 22.6814,45.3177 4.5657,5.6599 15.7151,9.1778 32.394,10.9778 26.1692,2.8243 53.1721,2.3032 80.1314,1.7392 5.7045,-0.1193 6.1003,-1.2016 5.7584,-2.7236 z"
       style="fill:none;stroke:#0000ff;stroke-width:0.04724413;stroke-dasharray:none;stroke-opacity:1"
       id="path5414-9" />
    <path
       d="m 7946.4043,8373.9294 c -4.679,-21.1683 -14.4385,-42.176 -23.566,-63.1931 -8.5096,-19.5916 -18.3683,-39.1115 -28.9342,-58.6004 -2.1237,-3.9171 -7.2996,-6.1032 -18.8596,-7.369 -28.7137,-3.1441 -57.9937,-3.053 -87.495,-1.9647 -16.0671,0.5926 -31.8456,1.6775 -47.1478,3.4431 -9.0421,1.0432 -14.6113,2.7745 -17.0424,5.8981 -8.4173,10.818 -8.5916,21.7193 -4.0839,32.667 2.1182,5.1435 2.6306,5.1509 18.6507,6.1202 23.6372,1.4303 46.091,3.705 64.6995,8.8873 14.322,3.9884 23.3242,8.9756 28.5196,15.3673 -59.6808,-6.8459 -116.6521,-2.974 -173.3223,1.9427 -28.4117,2.465 -56.394,5.4323 -84.6901,8.0391 -15.0275,1.3845 -30.321,2.2757 -45.8078,0.5084 -21.5816,-2.4628 -30.777,-8.0216 -35.8276,-14.6276 -7.4286,-9.717 -9.496,-19.6516 -11.2449,-29.5818 -2.2857,-12.9863 -3.6834,-25.9867 -3.8211,-38.9962 -0.016,-1.3319 -1.4447,-2.2892 -4.216,-3.2333 -63.0397,-21.4723 -144.7527,-15.1438 -190.5777,2.7579 -12.0545,4.7095 -13.4397,10.8821 -16.6451,16.6341 -12.2187,21.9262 -17.2568,44.0976 -21.4017,66.3016 -7.032,37.6616 -8.8029,75.3592 -6.9554,113.0668 1.3932,28.4456 4.7902,56.8766 12.4855,85.2388 5.3792,19.8274 11.675,39.6076 25.1226,59.0772 7.0531,10.2118 16.6115,20.1505 29.8682,29.7529 27.5146,19.9311 75.3671,31.0024 142.0463,34.1944 69.4231,3.3236 139.393,3.5674 209.0452,2.1742 73.7901,-1.4763 135.5251,-11.9159 184.3452,-29.8498 2.0156,-0.7401 4.8737,-1.3515 5.1209,-2.6762 -14.1905,0.4474 -28.2248,0.9731 -42.3543,1.2163 -67.8924,1.1687 -134.0437,-2.068 -199.2421,-7.8154 -29.3363,-2.5862 -57.763,-6.038 -86.4311,-9.2796 -21.1476,-2.3913 -36.5459,-6.7751 -49.5773,-12.2653 -27.9003,-11.7553 -41.6818,-25.1397 -44.3944,-39.8039 -2.956,-15.9743 5.8438,-31.3684 23.1303,-46.2537 21.4033,-18.4294 65.7227,-29.3925 120.5991,-36.5799 40.2934,-5.2773 82.6016,-7.7335 125.9291,-8.5595 84.7253,-1.615 166.9561,2.2091 246.5696,11.6383 5.8752,0.6958 7.6015,0.4277 7.8213,-1.6374 3.2978,-30.8826 6.5055,-61.7789 -0.3153,-92.6389 z"
       style="fill:none;stroke:#0000ff;stroke-width:0.04724413;stroke-dasharray:none;stroke-opacity:1"
       id="path5416-0" />
    <path
       d="m 8006.0805,8512.3884 c -29.2754,-9.4557 -65.516,-15.2315 -103.9305,-19.665 -56.2666,-6.4937 -114.5418,-9.5475 -189.341,-9.5121 -31.9653,0.072 -77.9913,1.8017 -121.5104,7.9104 -24.2825,3.4087 -47.7594,7.7325 -59.217,15.5317 -25.2064,17.1587 -34.6161,35.1168 -16.3323,53.7627 1.7897,1.8252 4.4483,3.5757 7.0898,5.3002 7.7814,5.0799 18.7485,8.611 36.5326,10.6704 66.8535,7.742 134.7616,13.5399 206.3397,13.9753 67.308,0.4092 131.402,-3.3534 188.6635,-15.4108 36.8133,-7.7518 65.2008,-17.8033 76.9314,-31.7558 9.833,-11.6948 1.7366,-22.0984 -25.2258,-30.807 z"
       style="fill:none;stroke:#0000ff;stroke-width:0.04724413;stroke-dasharray:none;stroke-opacity:1"
       id="path5418-0" />
    <path
       d="m 8096.806,8563.813 z m -29.4708,18.8077 z m -50.7655,7.7505 z m -41.7856,14.752 z"
       style="fill:#000000;stroke:#0000ff;stroke-width:0.04724413;stroke-dasharray:none;stroke-opacity:1"
       id="path5420-4" />
    <path
       d="m 8096.6988,7885.7192 c -29.4708,18.8077 -80.2362,26.5582 -122.0219,41.3102 -39.3211,13.8818 -65.5693,31.1419 -110.0919,43.5855 -56.0303,15.6603 -126.0699,24.5619 -199.9673,26.5665 -79.4038,2.1539 -159.2552,1.5104 -238.2172,-2.8136 -59.0911,-3.2358 -111.4248,-10.894 -152.1099,-25.4441 -33.8934,-12.121 -54.1829,-26.5849 -68.8476,-41.9649 -9.0898,-9.5332 -16.0397,-19.2593 -21.4861,-29.0695 -3.2211,-5.8011 0.2448,-20.7942 -20.6789,-23.4776 -21.4862,-2.7514 -64.2082,1.036 -90.0723,-0.7934 -56.7922,-4.0171 -95.5774,-14.1881 -110.0763,-32.8617 -10.8084,-13.9199 -17.2224,-28.0608 -22.1143,-42.2734 -7.2658,-21.1082 -11.4498,-42.2878 -12.2061,-63.5328 -0.8355,-23.4879 0.919,-46.8754 15.5116,-70.0481 13.4648,-21.3813 53.1731,-34.8975 116.3245,-41.9416 30.8405,-3.4401 62.7026,-4.9961 95.292,-4.8948 7.186,0.022 9.445,-0.5554 10.1271,-2.9695 3.8805,-13.7423 8.3985,-27.4712 16.8063,-41.0234 4.8769,-7.8607 9.8048,-15.7702 23.0466,-22.7417 66.8943,-35.2191 222.2495,-39.5237 315.7832,-13.0719 29.6163,8.3757 40.0555,20.6536 43.5152,33.8317 3.8944,14.8354 -1.056,30.8117 2.5499,43.6466 1.013,3.6073 0.9003,3.5605 12.2836,2.5142 37.9163,-3.485 51.1182,-2.3841 52.4463,-15.3519 0.8605,-8.4043 -0.023,-16.8105 3.7452,-25.165 7.6232,-16.908 32.4283,-30.9926 86.227,-36.1065 78.086,-7.4218 231.9301,-10.5446 252.0944,24.1544 5.7342,9.8726 11.0579,19.7684 16.1117,29.6762 9.6539,18.925 17.7527,37.9217 25.5669,56.9338 8.8599,21.557 16.4911,43.1415 17.7715,64.9017 1.5964,27.138 0.2001,54.2659 -5.1204,81.3552 -0.8822,4.4899 2.6768,7.228 14.1078,10.0927 78.1689,19.5888 98.1352,48.6179 53.6994,76.9767 z"
       style="fill:none;stroke:#0000ff;stroke-width:0.04724413;stroke-dasharray:none;stroke-opacity:1"
       id="path5412-3-0" />
    <path
       d="m 7163.9796,7845.1112 c -3.5528,-15.8034 -6.622,-31.6139 -8.6058,-47.4493 -2.1361,-17.0591 -3.1944,-34.1201 -3.559,-51.19 -0.7062,-33.0287 1.2813,-66.0368 6.7122,-99.0223 0.1798,-1.0928 2.3254,-2.6078 -4.4524,-2.5126 -35.2873,0.4963 -69.1962,2.3282 -98.9572,9.1434 -19.1428,4.3838 -24.2882,10.9105 -28.6417,17.5946 -10.5355,16.1779 -12.9869,32.5969 -13.3937,49.0658 -0.07,2.7433 0,5.4871 0,8.2306 -0.1978,20.3346 3.6787,40.6105 9.9418,60.8287 4.719,15.2361 10.6746,30.4334 22.6813,45.3177 4.5657,5.6599 15.7152,9.1777 32.394,10.9777 26.1692,2.8243 53.1722,2.3033 80.1314,1.7393 5.7045,-0.1193 6.1003,-1.2016 5.7584,-2.7236 z"
       style="fill:none;stroke:#0000ff;stroke-width:0.04724413;stroke-dasharray:none;stroke-opacity:1"
       id="path5414-9-2" />
    <path
       d="m 7946.2971,7695.8356 c -4.679,-21.1683 -14.4385,-42.176 -23.566,-63.1931 -8.5096,-19.5917 -18.3683,-39.1116 -28.9342,-58.6004 -2.1237,-3.9171 -7.2996,-6.1032 -18.8596,-7.3691 -28.7137,-3.1441 -57.9937,-3.0529 -87.495,-1.9647 -16.067,0.5927 -31.8456,1.6776 -47.1477,3.4431 -9.0422,1.0432 -14.6114,2.7746 -17.0425,5.8981 -8.4173,10.8181 -8.5916,21.7194 -4.0838,32.6671 2.1181,5.1435 2.6305,5.1508 18.6506,6.1202 23.6372,1.4303 46.091,3.7049 64.6995,8.8873 14.322,3.9884 23.3242,8.9755 28.5196,15.3672 -59.6808,-6.8459 -116.652,-2.974 -173.3223,1.9428 -28.4117,2.4649 -56.394,5.4323 -84.69,8.0391 -15.0276,1.3844 -30.3211,2.2756 -45.8079,0.5083 -21.5816,-2.4627 -30.777,-8.0215 -35.8276,-14.6276 -7.4286,-9.717 -9.496,-19.6515 -11.2449,-29.5818 -2.2857,-12.9862 -3.6834,-25.9867 -3.8211,-38.9962 -0.016,-1.3318 -1.4447,-2.2891 -4.216,-3.2332 -63.0397,-21.4723 -144.7527,-15.1439 -190.5777,2.7579 -12.0545,4.7094 -13.4397,10.882 -16.6451,16.6341 -12.2187,21.9261 -17.2568,44.0976 -21.4017,66.3016 -7.032,37.6616 -8.8029,75.3592 -6.9554,113.0668 1.3932,28.4456 4.7903,56.8766 12.4856,85.2388 5.3791,19.8274 11.675,39.6075 25.1225,59.0772 7.0531,10.2118 16.6115,20.1504 29.8682,29.7528 27.5146,19.9312 75.3671,31.0024 142.0463,34.1945 69.4231,3.3235 139.393,3.5674 209.0453,2.1741 73.79,-1.4762 135.525,-11.9159 184.3451,-29.8497 2.0156,-0.7402 4.8737,-1.3516 5.121,-2.6762 -14.1906,0.4473 -28.2249,0.973 -42.3544,1.2162 -67.8924,1.1688 -134.0437,-2.068 -199.2421,-7.8154 -29.3363,-2.5861 -57.7629,-6.0379 -86.4311,-9.2795 -21.1476,-2.3914 -36.5459,-6.7751 -49.5773,-12.2654 -27.9002,-11.7553 -41.6817,-25.1396 -44.3943,-39.8038 -2.9561,-15.9744 5.8437,-31.3684 23.1302,-46.2538 21.4033,-18.4293 65.7227,-29.3925 120.5992,-36.5799 40.2933,-5.2772 82.6016,-7.7335 125.9291,-8.5594 84.7252,-1.615 166.956,2.2091 246.5695,11.6383 5.8752,0.6957 7.6015,0.4276 7.8214,-1.6375 3.2977,-30.8826 6.5055,-61.7789 -0.3154,-92.6388 z"
       style="fill:none;stroke:#0000ff;stroke-width:0.04724413;stroke-dasharray:none;stroke-opacity:1"
       id="path5416-0-3" />
    <path
       d="m 8005.9733,7834.2945 c -29.2753,-9.4557 -65.516,-15.2315 -103.9305,-19.665 -56.2666,-6.4936 -114.5418,-9.5474 -189.3409,-9.512 -31.9653,0.072 -77.9914,1.8017 -121.5105,7.9104 -24.2825,3.4087 -47.7594,7.7325 -59.217,15.5316 -25.2063,17.1588 -34.6161,35.1169 -16.3323,53.7628 1.7897,1.8252 4.4484,3.5756 7.0899,5.3001 7.7813,5.0799 18.7484,8.611 36.5325,10.6704 66.8536,7.742 134.7616,13.54 206.3397,13.9753 67.308,0.4093 131.4021,-3.3533 188.6636,-15.4107 36.8132,-7.7519 65.2007,-17.8033 76.9313,-31.7558 9.833,-11.6949 1.7366,-22.0984 -25.2258,-30.8071 z"
       style="fill:none;stroke:#0000ff;stroke-width:0.04724413;stroke-dasharray:none;stroke-opacity:1"
       id="path5418-0-3" />
    <path
       d="m 8096.6988,7885.7192 z m -29.4708,18.8077 z m -50.7654,7.7505 z m -41.7857,14.752 z"
       style="fill:#000000;stroke:#0000ff;stroke-width:0.04724413;stroke-dasharray:none;stroke-opacity:1"
       id="path5420-4-1" />
    <path
       d="m 8342.3756,11877.65 c -13.008,111.645 -35.4149,157.648 -53.8582,245.223 -17.3554,82.395 -28.9409,184.856 -48.5921,258.721 -24.7308,92.96 -55.6444,145.795 -88.2615,157.699 -35.0471,12.789 -70.292,8.967 -105.1444,-16.701 -26.0812,-19.207 -49.1803,-64.664 -67.1379,-151.034 -14.9597,-71.954 -23.9151,-157.813 -30.3878,-249.108 -4.0124,-56.587 -7.0796,-114.326 -9.4836,-172.551 -1.4215,-34.441 0.1085,-123.438 -9.1274,-139.364 -9.4834,-16.339 -28.34,6.149 -39.7559,-4.716 -25.0671,-23.839 -42.186,-84.217 -48.5853,-195.067 -4.7706,-82.625 -7.6019,-166.567 -9.761,-250.932 -3.2068,-125.301 -5.0534,-251.019 -5.3873,-377.126 -0.3691,-139.428 0.4055,-278.257 6.8464,-415.804 5.943,-126.924 23.4694,-207.156 51.3432,-248.968 13.6125,-20.423 27.6758,-29.653 42.0599,-29.054 3.172,0.116 4.1688,-3.298 4.4699,-17.632 1.7129,-81.578 3.7068,-163.068 7.4181,-243.511 2.1523,-46.6686 4.3275,-93.613 10.1722,-135.0019 29.5256,-209.0545 98.0964,-234.6049 139.3799,-77.5862 13.0721,49.7136 17.6799,122.5965 19.2066,200.8231 1.7191,88.057 -0.4658,182.893 1.1258,259.08 0.4472,21.418 0.3975,21.141 5.4219,14.927 16.7353,-20.688 22.5624,-14.151 23.1485,-91.132 0.3796,-49.883 0,-99.78 1.6529,-149.375 3.3649,-100.3681 14.3134,-183.9746 38.059,-214.3284 34.4655,-44.0579 102.3693,-62.5887 111.2694,143.3793 2.5307,58.6021 4.8808,117.3471 7.1112,176.1611 4.2613,112.337 7.8356,225.099 11.2844,337.96 3.9111,127.964 7.2791,256.087 7.8444,385.256 0.7044,161.087 0.088,322.121 -2.2601,482.925 -0.3896,26.65 1.1814,42.9 6.2269,59.908 34.5023,116.283 43.3147,288.593 23.7019,456.929 z"
       style="fill:none;stroke:#0000ff;stroke-width:0.04724413;stroke-dasharray:none;stroke-opacity:1"
       id="path5412-3-8" />
    <path
       d="m 7930.6926,11636.607 c -1.5682,-93.806 -2.9229,-187.666 -3.7985,-281.667 -0.9428,-101.255 -1.4102,-202.535 -1.571,-303.861 -0.3116,-196.056 0.5657,-391.993 2.9626,-587.796 0.08,-6.485 1.0268,-15.48 -1.9651,-14.915 -15.5747,2.945 -30.5415,13.821 -43.6778,54.282 -8.449,26.014 -10.7201,64.763 -12.6416,104.441 -4.6501,96.029 -5.7323,193.492 -5.9118,291.249 -0.031,16.286 0,32.572 0,48.857 -0.088,120.708 1.6235,241.065 4.3879,361.081 2.0833,90.439 4.7116,180.652 10.0114,269.003 2.015,33.594 6.936,54.483 14.2978,65.164 11.5507,16.768 23.4692,13.676 35.3681,10.324 2.5182,-0.706 2.6929,-7.131 2.5422,-16.162 z"
       style="fill:none;stroke:#0000ff;stroke-width:0.04724413;stroke-dasharray:none;stroke-opacity:1"
       id="path5414-9-1" />
    <path
       d="m 8275.9911,10750.506 c -2.065,-125.654 -6.3728,-250.362 -10.4014,-375.116 -3.7555,-116.3 -8.1073,-232.164 -12.7709,-347.848 -0.9371,-23.251 -3.2219,-36.2325 -8.3241,-43.7458 -12.6739,-18.6662 -25.5972,-18.1194 -38.6186,-11.6642 -7.0918,3.5158 -14.0559,9.9591 -20.8102,20.4358 -3.991,6.1965 -6.4489,16.4732 -7.5222,35.0162 -3.7148,64.217 -3.7921,128.927 -1.8024,193.909 0.9348,30.537 1.1608,30.578 8.2322,36.333 10.4327,8.489 20.3433,21.989 28.557,52.753 6.3214,23.676 10.2947,53.277 12.5877,91.22 -26.3416,-40.636 -51.4876,-17.655 -76.5009,11.535 -12.5403,14.628 -24.891,32.241 -37.3802,47.715 -6.6331,8.218 -13.3833,13.51 -20.2187,3.022 -9.5256,-14.621 -13.5845,-47.622 -15.8136,-86.829 -3.279,-57.686 -4.1912,-116.659 -4.9633,-175.602 -1.0087,-77.081 -1.6257,-154.256 -1.6865,-231.4774 0,-7.9133 -0.6378,-13.5866 -1.8609,-19.1953 -27.8245,-127.4587 -63.8909,-89.8912 -84.117,16.3734 -5.3209,27.9549 -5.9321,64.5933 -7.3468,98.7333 -5.393,130.157 -7.6167,261.772 -9.4464,393.569 -3.1036,223.559 -3.8855,447.335 -3.0699,671.164 0.6147,168.852 2.1142,337.623 5.5109,505.978 2.3744,117.698 5.1531,235.11 11.0886,350.681 3.1129,60.619 7.3323,119.614 13.183,176.613 12.1445,118.31 33.2657,184.034 62.6963,202.976 30.642,19.73 61.5252,21.176 92.2682,12.911 32.5697,-8.766 59.8184,-70.731 81.3666,-177.19 0.8897,-4.392 2.1508,-8.019 2.2601,-15.886 -6.2634,2.657 -12.4578,5.773 -18.6945,7.22 -29.9662,6.942 -59.1641,-12.276 -87.9415,-46.393 -12.9482,-15.35 -25.4949,-35.838 -38.1486,-55.079 -9.3341,-14.193 -16.1305,-40.22 -21.8824,-72.814 -12.3148,-69.773 -18.3973,-149.23 -19.5947,-236.275 -1.3048,-94.818 2.5792,-186.202 10.2093,-274.553 9.4468,-109.404 29.0085,-174.48 53.2298,-217.144 17.7847,-31.323 36.4585,-45.903 55.5825,-50.807 37.396,-9.589 73.691,13.109 108.8305,69.084 2.5936,4.128 3.3552,2.54 3.4525,-9.717 1.4554,-183.322 2.8712,-366.726 -0.1398,-549.906 z"
       style="fill:none;stroke:#0000ff;stroke-width:0.04724413;stroke-dasharray:none;stroke-opacity:1"
       id="path5416-0-0" />
    <path
       d="m 8302.3313,11572.395 c -12.9216,-56.126 -28.9178,-90.413 -45.8731,-116.729 -24.8345,-38.547 -50.5561,-56.675 -83.571,-56.468 -14.1087,0.412 -34.4238,10.695 -53.6322,46.957 -10.7176,20.236 -21.0799,45.898 -26.1371,92.195 -11.1257,101.855 -15.279,208.454 -7.2086,319.135 0.7896,10.841 1.9634,21.23 3.1292,31.464 3.4344,30.155 8.2751,51.113 16.1246,63.341 29.5079,45.958 59.481,80.374 91.0738,82.955 29.7086,2.427 57.9985,-19.906 83.2726,-91.472 16.2485,-46.017 28.7783,-105.684 33.9558,-188.502 4.3403,-69.426 0.7665,-131.179 -11.134,-182.876 z"
       style="fill:none;stroke:#0000ff;stroke-width:0.04724413;stroke-dasharray:none;stroke-opacity:1"
       id="path5418-0-9" />
    <path
       d="m 8342.3756,11877.65 z m -13.008,111.645 z m -22.4069,46.003 z m -18.4433,87.575 z"
       style="fill:#000000;stroke:#0000ff;stroke-width:0.04724413;stroke-dasharray:none;stroke-opacity:1"
       id="path5420-4-8" />
    <text
       xml:space="preserve"
       style="font-size:300.786px;font-family:sans-serif;-inkscape-font-specification:'sans-serif, Normal';fill:none;fill-opacity:1;stroke:#0000ff;stroke-width:0.04724413;stroke-dasharray:none;stroke-opacity:1"
       x="5230.8677"
       y="-10824.502"
       id="text6244"
       transform="scale(1,-1)"><tspan
         sodipodi:role="line"
         id="tspan6242"
         style="font-style:normal;font-variant:normal;font-weight:normal;font-stretch:normal;font-size:1203.14px;font-family:sans-serif;-inkscape-font-specification:'sans-serif, Normal';font-variant-ligatures:normal;font-variant-caps:normal;font-variant-numeric:normal;font-variant-east-asian:normal;stroke-width:0.04724413;stroke-dasharray:none"
         x="5230.8677"
         y="-10824.502">SUS</tspan></text>
  </g>
</svg>
