  0
SECTION
  2
HEADER
  9
$ACADVER
  1
AC1024
  9
$ACADMAINTVER
 70
     6
  9
$DWGCODEPAGE
  3
ANSI_1251
  9
$INSBASE
 10
0.0
 20
0.0
 30
0.0
  9
$EXTMIN
 10
1.000000000000000E+20
 20
1.000000000000000E+20
 30
1.000000000000000E+20
  9
$EXTMAX
 10
-1.000000000000000E+20
 20
-1.000000000000000E+20
 30
-1.000000000000000E+20
  9
$LIMMIN
 10
0.0
 20
0.0
  9
$LIMMAX
 10
12.0
 20
9.0
  9
$ORTHOMODE
 70
     0
  9
$REGENMODE
 70
     1
  9
$FILLMODE
 70
     1
  9
$QTEXTMODE
 70
     0
  9
$MIRRTEXT
 70
     1
  9
$LTSCALE
 40
1.0
  9
$ATTMODE
 70
     1
  9
$TEXTSIZE
 40
0.2
  9
$TRACEWID
 40
0.05
  9
$TEXTSTYLE
  7
Standard
  9
$CLAYER
  8
0
  9
$CELTYPE
  6
ByLayer
  9
$CECOLOR
 62
   256
  9
$CELTSCALE
 40
1.0
  9
$DISPSILH
 70
     0
  9
$DIMSCALE
 40
1.0
  9
$DIMASZ
 40
0.18
  9
$DIMEXO
 40
0.0625
  9
$DIMDLI
 40
0.38
  9
$DIMRND
 40
0.0
  9
$DIMDLE
 40
0.0
  9
$DIMEXE
 40
0.18
  9
$DIMTP
 40
0.0
  9
$DIMTM
 40
0.0
  9
$DIMTXT
 40
0.18
  9
$DIMCEN
 40
0.09
  9
$DIMTSZ
 40
0.0
  9
$DIMTOL
 70
     0
  9
$DIMLIM
 70
     0
  9
$DIMTIH
 70
     1
  9
$DIMTOH
 70
     1
  9
$DIMSE1
 70
     0
  9
$DIMSE2
 70
     0
  9
$DIMTAD
 70
     0
  9
$DIMZIN
 70
     0
  9
$DIMBLK
  1

  9
$DIMASO
 70
     1
  9
$DIMSHO
 70
     1
  9
$DIMPOST
  1

  9
$DIMAPOST
  1

  9
$DIMALT
 70
     0
  9
$DIMALTD
 70
     2
  9
$DIMALTF
 40
25.4
  9
$DIMLFAC
 40
1.0
  9
$DIMTOFL
 70
     0
  9
$DIMTVP
 40
0.0
  9
$DIMTIX
 70
     0
  9
$DIMSOXD
 70
     0
  9
$DIMSAH
 70
     0
  9
$DIMBLK1
  1

  9
$DIMBLK2
  1

  9
$DIMSTYLE
  2
Standard
  9
$DIMCLRD
 70
     0
  9
$DIMCLRE
 70
     0
  9
$DIMCLRT
 70
     0
  9
$DIMTFAC
 40
1.0
  9
$DIMGAP
 40
0.09
  9
$DIMJUST
 70
     0
  9
$DIMSD1
 70
     0
  9
$DIMSD2
 70
     0
  9
$DIMTOLJ
 70
     1
  9
$DIMTZIN
 70
     0
  9
$DIMALTZ
 70
     0
  9
$DIMALTTZ
 70
     0
  9
$DIMUPT
 70
     0
  9
$DIMDEC
 70
     4
  9
$DIMTDEC
 70
     4
  9
$DIMALTU
 70
     2
  9
$DIMALTTD
 70
     2
  9
$DIMTXSTY
  7
Standard
  9
$DIMAUNIT
 70
     0
  9
$DIMADEC
 70
     0
  9
$DIMALTRND
 40
0.0
  9
$DIMAZIN
 70
     0
  9
$DIMDSEP
 70
    46
  9
$DIMATFIT
 70
     3
  9
$DIMFRAC
 70
     0
  9
$DIMLDRBLK
  1

  9
$DIMLUNIT
 70
     2
  9
$DIMLWD
 70
    -2
  9
$DIMLWE
 70
    -2
  9
$DIMTMOVE
 70
     0
  9
$DIMFXL
 40
1.0
  9
$DIMFXLON
 70
     0
  9
$DIMJOGANG
 40
0.7853981633974483
  9
$DIMTFILL
 70
     0
  9
$DIMTFILLCLR
 70
     0
  9
$DIMARCSYM
 70
     0
  9
$DIMLTYPE
  6

  9
$DIMLTEX1
  6

  9
$DIMLTEX2
  6

  9
$DIMTXTDIRECTION
 70
     0
  9
$LUNITS
 70
     2
  9
$LUPREC
 70
     4
  9
$SKETCHINC
 40
0.1
  9
$FILLETRAD
 40
0.5
  9
$AUNITS
 70
     0
  9
$AUPREC
 70
     0
  9
$MENU
  1
.
  9
$ELEVATION
 40
0.0
  9
$PELEVATION
 40
0.0
  9
$THICKNESS
 40
0.0
  9
$LIMCHECK
 70
     0
  9
$CHAMFERA
 40
0.5
  9
$CHAMFERB
 40
0.5
  9
$CHAMFERC
 40
1.0
  9
$CHAMFERD
 40
0.0
  9
$SKPOLY
 70
     0
  9
$TDCREATE
 40
2459229.787087014
  9
$TDUCREATE
 40
2459229.662087014
  9
$TDUPDATE
 40
2459229.787087037
  9
$TDUUPDATE
 40
2459229.662087037
  9
$TDINDWG
 40
0.0000000116
  9
$TDUSRTIMER
 40
0.0000000116
  9
$USRTIMER
 70
     1
  9
$ANGBASE
 50
0.0
  9
$ANGDIR
 70
     0
  9
$PDMODE
 70
     0
  9
$PDSIZE
 40
0.0
  9
$PLINEWID
 40
0.0
  9
$SPLFRAME
 70
     0
  9
$SPLINETYPE
 70
     6
  9
$SPLINESEGS
 70
     8
  9
$HANDSEED
  5
48
  9
$SURFTAB1
 70
     6
  9
$SURFTAB2
 70
     6
  9
$SURFTYPE
 70
     6
  9
$SURFU
 70
     6
  9
$SURFV
 70
     6
  9
$UCSBASE
  2

  9
$UCSNAME
  2

  9
$UCSORG
 10
0.0
 20
0.0
 30
0.0
  9
$UCSXDIR
 10
1.0
 20
0.0
 30
0.0
  9
$UCSYDIR
 10
0.0
 20
1.0
 30
0.0
  9
$UCSORTHOREF
  2

  9
$UCSORTHOVIEW
 70
     0
  9
$UCSORGTOP
 10
0.0
 20
0.0
 30
0.0
  9
$UCSORGBOTTOM
 10
0.0
 20
0.0
 30
0.0
  9
$UCSORGLEFT
 10
0.0
 20
0.0
 30
0.0
  9
$UCSORGRIGHT
 10
0.0
 20
0.0
 30
0.0
  9
$UCSORGFRONT
 10
0.0
 20
0.0
 30
0.0
  9
$UCSORGBACK
 10
0.0
 20
0.0
 30
0.0
  9
$PUCSBASE
  2

  9
$PUCSNAME
  2

  9
$PUCSORG
 10
0.0
 20
0.0
 30
0.0
  9
$PUCSXDIR
 10
1.0
 20
0.0
 30
0.0
  9
$PUCSYDIR
 10
0.0
 20
1.0
 30
0.0
  9
$PUCSORTHOREF
  2

  9
$PUCSORTHOVIEW
 70
     0
  9
$PUCSORGTOP
 10
0.0
 20
0.0
 30
0.0
  9
$PUCSORGBOTTOM
 10
0.0
 20
0.0
 30
0.0
  9
$PUCSORGLEFT
 10
0.0
 20
0.0
 30
0.0
  9
$PUCSORGRIGHT
 10
0.0
 20
0.0
 30
0.0
  9
$PUCSORGFRONT
 10
0.0
 20
0.0
 30
0.0
  9
$PUCSORGBACK
 10
0.0
 20
0.0
 30
0.0
  9
$USERI1
 70
     0
  9
$USERI2
 70
     0
  9
$USERI3
 70
     0
  9
$USERI4
 70
     0
  9
$USERI5
 70
     0
  9
$USERR1
 40
0.0
  9
$USERR2
 40
0.0
  9
$USERR3
 40
0.0
  9
$USERR4
 40
0.0
  9
$USERR5
 40
0.0
  9
$WORLDVIEW
 70
     1
  9
$SHADEDGE
 70
     3
  9
$SHADEDIF
 70
    70
  9
$TILEMODE
 70
     1
  9
$MAXACTVP
 70
    64
  9
$PINSBASE
 10
0.0
 20
0.0
 30
0.0
  9
$PLIMCHECK
 70
     0
  9
$PEXTMIN
 10
1.000000000000000E+20
 20
1.000000000000000E+20
 30
1.000000000000000E+20
  9
$PEXTMAX
 10
-1.000000000000000E+20
 20
-1.000000000000000E+20
 30
-1.000000000000000E+20
  9
$PLIMMIN
 10
0.0
 20
0.0
  9
$PLIMMAX
 10
12.0
 20
9.0
  9
$UNITMODE
 70
     0
  9
$VISRETAIN
 70
     1
  9
$PLINEGEN
 70
     0
  9
$PSLTSCALE
 70
     1
  9
$TREEDEPTH
 70
  3020
  9
$CMLSTYLE
  2
Standard
  9
$CMLJUST
 70
     0
  9
$CMLSCALE
 40
1.0
  9
$PROXYGRAPHICS
 70
     1
  9
$MEASUREMENT
 70
     0
  9
$CELWEIGHT
370
    -1
  9
$ENDCAPS
280
     0
  9
$JOINSTYLE
280
     0
  9
$LWDISPLAY
290
     1
  9
$INSUNITS
 70
     1
  9
$HYPERLINKBASE
  1

  9
$STYLESHEET
  1

  9
$XEDIT
290
     1
  9
$CEPSNTYPE
380
     0
  9
$PSTYLEMODE
290
     1
  9
$FINGERPRINTGUID
  2
{A9AD492F-A3F0-4313-BB28-3DAC4E20D414}
  9
$VERSIONGUID
  2
{FAEB1C32-E019-11D5-929B-00C0DF256EC4}
  9
$EXTNAMES
290
     1
  9
$PSVPSCALE
 40
0.0
  9
$OLESTARTUP
290
     0
  9
$SORTENTS
280
   127
  9
$INDEXCTL
280
     0
  9
$HIDETEXT
280
     1
  9
$XCLIPFRAME
280
     2
  9
$HALOGAP
280
     0
  9
$OBSCOLOR
 70
   257
  9
$OBSLTYPE
280
     0
  9
$INTERSECTIONDISPLAY
280
     0
  9
$INTERSECTIONCOLOR
 70
   257
  9
$DIMASSOC
280
     2
  9
$PROJECTNAME
  1

  9
$CAMERADISPLAY
290
     0
  9
$LENSLENGTH
 40
50.0
  9
$CAMERAHEIGHT
 40
0.0
  9
$STEPSPERSEC
 40
2.0
  9
$STEPSIZE
 40
6.0
  9
$3DDWFPREC
 40
2.0
  9
$PSOLWIDTH
 40
0.25
  9
$PSOLHEIGHT
 40
4.0
  9
$LOFTANG1
 40
1.570796326794897
  9
$LOFTANG2
 40
1.570796326794897
  9
$LOFTMAG1
 40
0.0
  9
$LOFTMAG2
 40
0.0
  9
$LOFTPARAM
 70
     7
  9
$LOFTNORMALS
280
     1
  9
$LATITUDE
 40
37.795
  9
$LONGITUDE
 40
-122.394
  9
$NORTHDIRECTION
 40
0.0
  9
$TIMEZONE
 70
 -8000
  9
$LIGHTGLYPHDISPLAY
280
     1
  9
$TILEMODELIGHTSYNCH
280
     1
  9
$CMATERIAL
347
3C
  9
$SOLIDHIST
280
     1
  9
$SHOWHIST
280
     1
  9
$DWFFRAME
280
     2
  9
$DGNFRAME
280
     2
  9
$REALWORLDSCALE
290
     1
  9
$INTERFERECOLOR
 62
   256
  9
$CSHADOW
280
     0
  9
$SHADOWPLANELOCATION
 40
0.0
  0
ENDSEC
  0
SECTION
  2
CLASSES
  0
CLASS
  1
ACDBDICTIONARYWDFLT
  2
AcDbDictionaryWithDefault
  3
ObjectDBX Classes
 90
        0
 91
        4
280
     0
281
     0
  0
CLASS
  1
VISUALSTYLE
  2
AcDbVisualStyle
  3
ObjectDBX Classes
 90
     4095
 91
        4
280
     0
281
     0
  0
CLASS
  1
MATERIAL
  2
AcDbMaterial
  3
ObjectDBX Classes
 90
     1153
 91
        4
280
     0
281
     0
  0
CLASS
  1
SUN
  2
AcDbSun
  3
SCENEOE
 90
     1024
 91
        4
280
     0
281
     0
  0
ENDSEC
  0
SECTION
  2
TABLES
  0
TABLE
  2
VPORT
  5
8
330
0
100
AcDbSymbolTable
 70
     1
  0
VPORT
  5
29
330
8
100
AcDbSymbolTableRecord
100
AcDbViewportTableRecord
  2
*Active
 70
     0
 10
0.0
 20
0.0
 11
1.0
 21
1.0
 12
0.0
 22
0.0
 13
0.0
 23
0.0
 14
0.5
 24
0.5
 15
0.5
 25
0.5
 16
0.0
 26
0.0
 36
1.0
 17
375.0
 27
-375.0
 37
0.0
 40
750.0
 41
1.0
 42
50.0
 43
0.0
 44
0.0
 50
0.0
 51
0.0
 71
     0
 72
   100
 73
     1
 74
     3
 75
     0
 76
     0
 77
     0
 78
     0
281
     0
 65
     1
110
0.0
120
0.0
130
0.0
111
1.0
121
0.0
131
0.0
112
0.0
122
1.0
132
0.0
 79
     0
146
0.0
 60
     3
 61
     5
292
     1
282
     1
141
0.0
142
0.0
 63
   250
361
3F
  0
ENDTAB
  0
TABLE
  2
LTYPE
  5
5
330
0
100
AcDbSymbolTable
 70
     1
  0
LTYPE
  5
14
330
5
100
AcDbSymbolTableRecord
100
AcDbLinetypeTableRecord
  2
ByBlock
 70
     0
  3

 72
    65
 73
     0
 40
0.0
  0
LTYPE
  5
15
330
5
100
AcDbSymbolTableRecord
100
AcDbLinetypeTableRecord
  2
ByLayer
 70
     0
  3

 72
    65
 73
     0
 40
0.0
  0
LTYPE
  5
16
330
5
100
AcDbSymbolTableRecord
100
AcDbLinetypeTableRecord
  2
Continuous
 70
     0
  3
Solid line
 72
    65
 73
     0
 40
0.0
  0
ENDTAB
  0
TABLE
  2
LAYER
  5
2
330
0
100
AcDbSymbolTable
 70
     2
  0
LAYER
  5
10
330
2
100
AcDbSymbolTableRecord
100
AcDbLayerTableRecord
  2
0
 70
     0
 62
     7
  6
Continuous
370
    -3
390
F
347
3E
  0
LAYER
  5
40
330
2
100
AcDbSymbolTableRecord
100
AcDbLayerTableRecord
  2
Layer 1
 70
     0
 62
     7
  6
Continuous
370
    -3
390
F
347
3E
  0
ENDTAB
  0
TABLE
  2
STYLE
  5
3
330
0
100
AcDbSymbolTable
 70
     1
  0
STYLE
  5
11
330
3
100
AcDbSymbolTableRecord
100
AcDbTextStyleTableRecord
  2
Standard
 70
     0
 40
0.0
 41
1.0
 50
0.0
 71
     0
 42
0.2
  3
txt
  4

  0
ENDTAB
  0
TABLE
  2
VIEW
  5
6
330
0
100
AcDbSymbolTable
 70
     0
  0
ENDTAB
  0
TABLE
  2
UCS
  5
7
330
0
100
AcDbSymbolTable
 70
     0
  0
ENDTAB
  0
TABLE
  2
APPID
  5
9
330
0
100
AcDbSymbolTable
 70
     1
  0
APPID
  5
12
330
9
100
AcDbSymbolTableRecord
100
AcDbRegAppTableRecord
  2
ACAD
 70
     0
  0
ENDTAB
  0
TABLE
  2
DIMSTYLE
  5
A
330
0
100
AcDbSymbolTable
 70
     1
100
AcDbDimStyleTable
  0
DIMSTYLE
105
27
330
A
100
AcDbSymbolTableRecord
100
AcDbDimStyleTableRecord
  2
Standard
 70
     0
178
     0
340
11
  0
ENDTAB
  0
TABLE
  2
BLOCK_RECORD
  5
1
330
0
100
AcDbSymbolTable
 70
     1
  0
BLOCK_RECORD
  5
1F
330
1
100
AcDbSymbolTableRecord
100
AcDbBlockTableRecord
  2
*Model_Space
340
22
 70
     0
280
     1
281
     0
  0
BLOCK_RECORD
  5
1B
330
1
100
AcDbSymbolTableRecord
100
AcDbBlockTableRecord
  2
*Paper_Space
340
1E
 70
     0
280
     1
281
     0
  0
BLOCK_RECORD
  5
23
330
1
100
AcDbSymbolTableRecord
100
AcDbBlockTableRecord
  2
*Paper_Space0
340
26
 70
     0
280
     1
281
     0
  0
ENDTAB
  0
ENDSEC
  0
SECTION
  2
BLOCKS
  0
BLOCK
  5
20
330
1F
100
AcDbEntity
  8
0
100
AcDbBlockBegin
  2
*Model_Space
 70
     0
 10
0.0
 20
0.0
 30
0.0
  3
*Model_Space
  1

  0
ENDBLK
  5
21
330
1F
100
AcDbEntity
  8
0
100
AcDbBlockEnd
  0
BLOCK
  5
1C
330
1B
100
AcDbEntity
 67
     1
  8
0
100
AcDbBlockBegin
  2
*Paper_Space
 70
     0
 10
0.0
 20
0.0
 30
0.0
  3
*Paper_Space
  1

  0
ENDBLK
  5
1D
330
1B
100
AcDbEntity
 67
     1
  8
0
100
AcDbBlockEnd
  0
BLOCK
  5
24
330
23
100
AcDbEntity
  8
0
100
AcDbBlockBegin
  2
*Paper_Space0
 70
     0
 10
0.0
 20
0.0
 30
0.0
  3
*Paper_Space0
  1

  0
ENDBLK
  5
25
330
23
100
AcDbEntity
  8
0
100
AcDbBlockEnd
  0
ENDSEC
  0
SECTION
  2
ENTITIES
  0
SPLINE
  5
41
330
1F
100
AcDbEntity
  8
Layer 1
370
     0
100
AcDbSpline
210
0.0
220
0.0
230
1.0
 70
    11
 71
     3
 72
   101
 73
    97
 74
     0
 42
0.0000000001
 43
0.0000000001
 12
1.0
 22
0.0
 32
0.0
 13
1.0
 23
0.0
 33
0.0
 40
0.0
 40
0.0
 40
0.0
 40
0.0
 40
1.0
 40
1.0
 40
1.0
 40
2.0
 40
2.0
 40
2.0
 40
3.0
 40
3.0
 40
3.0
 40
4.0
 40
4.0
 40
4.0
 40
5.0
 40
5.0
 40
5.0
 40
6.0
 40
6.0
 40
6.0
 40
7.0
 40
7.0
 40
7.0
 40
8.0
 40
8.0
 40
8.0
 40
9.0
 40
9.0
 40
9.0
 40
10.0
 40
10.0
 40
10.0
 40
11.0
 40
11.0
 40
11.0
 40
12.0
 40
12.0
 40
12.0
 40
13.0
 40
13.0
 40
13.0
 40
14.0
 40
14.0
 40
14.0
 40
15.0
 40
15.0
 40
15.0
 40
16.0
 40
16.0
 40
16.0
 40
17.0
 40
17.0
 40
17.0
 40
18.0
 40
18.0
 40
18.0
 40
19.0
 40
19.0
 40
19.0
 40
20.0
 40
20.0
 40
20.0
 40
21.0
 40
21.0
 40
21.0
 40
22.0
 40
22.0
 40
22.0
 40
23.0
 40
23.0
 40
23.0
 40
24.0
 40
24.0
 40
24.0
 40
25.0
 40
25.0
 40
25.0
 40
26.0
 40
26.0
 40
26.0
 40
27.0
 40
27.0
 40
27.0
 40
28.0
 40
28.0
 40
28.0
 40
29.0
 40
29.0
 40
29.0
 40
30.0
 40
30.0
 40
30.0
 40
31.0
 40
31.0
 40
31.0
 40
32.0
 40
32.0
 40
32.0
 40
32.0
 10
635.7615839393111
 20
-195.7637000000004
 30
0.0
 10
622.3361842784652
 20
-168.9934999999996
 30
0.0
 10
599.2095848626923
 20
-157.9616999999998
 30
0.0
 10
580.173785343577
 20
-136.9643999999998
 30
0.0
 10
562.260885796095
 20
-117.2057000000004
 30
0.0
 10
550.3031860981719
 20
-92.63820000000032
 30
0.0
 10
530.0208866105459
 20
-74.92649999999958
 30
0.0
 10
504.4957872553641
 20
-52.63640000000032
 30
0.0
 10
472.5886880614053
 20
-39.96609999999964
 30
0.0
 10
438.924388911837
 20
-37.11290000000008
 30
0.0
 10
402.7514898256413
 20
-34.04709999999977
 30
0.0
 10
366.3747907445941
 20
-34.96299999999974
 30
0.0
 10
330.4031916533131
 20
-41.11759999999958
 30
0.0
 10
303.4837923333544
 20
-45.72339999999986
 30
0.0
 10
279.643
 20
-56.6238000000003
 30
0.0
 10
261.1084934038445
 20
-77.33370000000014
 30
0.0
 10
245.6680937939018
 20
-94.58629999999994
 30
0.0
 10
236.4251940273971
 20
-115.1736000000001
 30
0.0
 10
229.7444941961658
 20
-137.0649000000003
 30
0.0
 10
225.6035943007737
 20
-150.6338999999998
 30
0.0
 10
222.4376943807511
 20
-164.4777000000004
 30
0.0
 10
219.956394443434
 20
-178.4413000000004
 30
0.0
 10
218.4890944805011
 20
-186.6981999999998
 30
0.0
 10
220.0681944406097
 20
-208.0387000000001
 30
0.0
 10
210.5360000000001
 20
-211.8581999999997
 30
0.0
 10
200.7480949286764
 20
-215.7744000000002
 30
0.0
 10
181.285695420338
 20
-210.3836000000001
 30
0.0
 10
169.5029999999997
 20
-212.9876000000004
 30
0.0
 10
143.6308963715783
 20
-218.7053999999998
 30
0.0
 10
125.9621968179272
 20
-233.1823000000004
 30
0.0
 10
119.357096984786
 20
-259.7614999999996
 30
0.0
 10
114.4334971091666
 20
-279.5744999999997
 30
0.0
 10
111.5114971829826
 20
-299.7021000000004
 30
0.0
 10
109.2827972392843
 20
-319.9318999999996
 30
0.0
 10
105.9728973228994
 20
-349.9763999999996
 30
0.0
 10
104.067
 20
-380.1224999999995
 30
0.0
 10
103.7224973797493
 20
-410.3618000000006
 30
0.0
 10
103.3415973893716
 20
-443.7936000000009
 30
0.0
 10
104.1408973691796
 20
-477.0823999999993
 30
0.0
 10
110.788897201237
 20
-510.0655999999999
 30
0.0
 10
116.9228970462791
 20
-540.4987000000001
 30
0.0
 10
135.0119999999997
 20
-559.7371000000003
 30
0.0
 10
163.7809999999999
 20
-569.7635000000009
 30
0.0
 10
177.8305955076212
 20
-574.6599999999999
 30
0.0
 10
192.3456951409389
 20
-576.8745999999992
 30
0.0
 10
207.1917947658949
 20
-576.7304999999997
 30
0.0
 10
210.4653946831968
 20
-576.6987000000008
 30
0.0
 10
211.494794657192
 20
-577.5210999999999
 30
0.0
 10
211.8053946493455
 20
-580.9572000000007
 30
0.0
 10
213.5731946046872
 20
-600.5174999999999
 30
0.0
 10
215.6311945526977
 20
-620.0586000000003
 30
0.0
 10
219.4614944559362
 20
-639.3482999999997
 30
0.0
 10
221.6831943998113
 20
-650.5367000000006
 30
0.0
 10
223.9282943430953
 20
-661.7949000000008
 30
0.0
 10
229.9605941907066
 20
-671.7178000000004
 30
0.0
 10
260.4347934208636
 20
-721.8472000000002
 30
0.0
 10
331.2075916329923
 20
-727.9742000000006
 30
0.0
 10
373.8175905565731
 20
-690.3238000000001
 30
0.0
 10
387.3094902157391
 20
-678.4020999999993
 30
0.0
 10
392.0650900956025
 20
-660.9264000000003
 30
0.0
 10
393.6411900557869
 20
-642.1690999999992
 30
0.0
 10
395.4153900109668
 20
-621.0532000000003
 30
0.0
 10
393.1601900679379
 20
-598.3130000000001
 30
0.0
 10
394.8026900264449
 20
-580.0442999999996
 30
0.0
 10
395.2642900147839
 20
-574.9099000000006
 30
0.0
 10
395.2129999999997
 20
-574.9765000000007
 30
0.0
 10
400.3986898850781
 20
-576.4657000000007
 30
0.0
 10
417.6715894487279
 20
-581.4261000000006
 30
0.0
 10
423.6858892967939
 20
-579.8593000000001
 30
0.0
 10
424.2909999999993
 20
-598.3169999999991
 30
0.0
 10
424.6830000000009
 20
-610.2793999999994
 30
0.0
 10
424.2808892817629
 20
-622.2443999999996
 30
0.0
 10
425.9969999999994
 20
-634.1357000000007
 30
0.0
 10
429.4699999999993
 20
-658.2019999999993
 30
0.0
 10
440.7700000000004
 20
-678.2495999999992
 30
0.0
 10
465.278388246079
 20
-685.5283
 30
0.0
 10
500.8507873474446
 20
-696.0921999999991
 30
0.0
 10
570.9354855769561
 20
-700.5372000000007
 30
0.0
 10
580.1214853448982
 20
-651.1478999999999
 30
0.0
 10
582.7338852789035
 20
-637.0957999999991
 30
0.0
 10
585.1588852176428
 20
-623.0103999999992
 30
0.0
 10
587.4612851594793
 20
-608.9081000000006
 30
0.0
 10
591.859185048379
 20
-581.9709999999995
 30
0.0
 10
595.5484849551794
 20
-554.9318999999996
 30
0.0
 10
599.1084848652463
 20
-527.8708000000006
 30
0.0
 10
603.1446847632833
 20
-497.1874000000007
 30
0.0
 10
606.6209999999992
 20
-466.4649000000009
 30
0.0
 10
607.2043846607266
 20
-435.4923999999992
 30
0.0
 10
607.931784642351
 20
-396.8652000000002
 30
0.0
 10
607.2953846584278
 20
-358.2524000000003
 30
0.0
 10
604.8715847196581
 20
-319.6945999999998
 30
0.0
 10
604.4697847298085
 20
-313.3038999999999
 30
0.0
 10
606.091084688851
 20
-309.4066000000003
 30
0.0
 10
611.2985845572985
 20
-305.3292000000001
 30
0.0
 10
646.9089999999997
 20
-277.4471999999996
 30
0.0
 10
656.0046834279274
 20
-236.1283999999996
 30
0.0
 10
635.7615839393111
 20
-195.7637000000004
 30
0.0
  0
SPLINE
  5
42
330
1F
100
AcDbEntity
  8
Layer 1
370
     0
100
AcDbSpline
210
0.0
220
0.0
230
1.0
 70
    11
 71
     3
 72
    44
 73
    40
 74
     0
 42
0.0000000001
 43
0.0000000001
 12
1.0
 22
0.0
 32
0.0
 13
1.0
 23
0.0
 33
0.0
 40
0.0
 40
0.0
 40
0.0
 40
0.0
 40
1.0
 40
1.0
 40
1.0
 40
2.0
 40
2.0
 40
2.0
 40
3.0
 40
3.0
 40
3.0
 40
4.0
 40
4.0
 40
4.0
 40
5.0
 40
5.0
 40
5.0
 40
6.0
 40
6.0
 40
6.0
 40
7.0
 40
7.0
 40
7.0
 40
8.0
 40
8.0
 40
8.0
 40
9.0
 40
9.0
 40
9.0
 40
10.0
 40
10.0
 40
10.0
 40
11.0
 40
11.0
 40
11.0
 40
12.0
 40
12.0
 40
12.0
 40
13.0
 40
13.0
 40
13.0
 40
13.0
 10
210.8558946733319
 20
-253.5635000000002
 30
0.0
 10
209.2374947142162
 20
-276.0573000000004
 30
0.0
 10
207.8389999999999
 20
-298.5613000000003
 30
0.0
 10
206.9354947723696
 20
-321.1008000000002
 30
0.0
 10
205.9622947969547
 20
-345.3819999999996
 30
0.0
 10
205.480294809131
 20
-369.6660000000002
 30
0.0
 10
205.3140948133296
 20
-393.9626000000007
 30
0.0
 10
204.9923948214564
 20
-440.9742000000006
 30
0.0
 10
205.8977947985841
 20
-487.9567999999999
 30
0.0
 10
208.3717947360856
 20
-534.9069
 30
0.0
 10
208.4536947340166
 20
-536.4624000000003
 30
0.0
 10
209.4312947093204
 20
-538.6188000000002
 30
0.0
 10
206.3434947873247
 20
-538.4832000000006
 30
0.0
 10
190.2680951934235
 20
-537.7769000000008
 30
0.0
 10
174.8205955836602
 20
-535.1694000000007
 30
0.0
 10
161.262795926159
 20
-525.4688000000006
 30
0.0
 10
152.5423961464548
 20
-519.2291999999998
 30
0.0
 10
150.1981962056743
 20
-509.9393
 30
0.0
 10
148.2151962557691
 20
-500.4254999999994
 30
0.0
 10
143.4154963770197
 20
-477.3984
 30
0.0
 10
142.2988964052274
 20
-454.0282999999999
 30
0.0
 10
142.113496409911
 20
-430.5871999999999
 30
0.0
 10
142.0825964106916
 20
-426.6823999999997
 30
0.0
 10
142.1091964100196
 20
-422.7770999999993
 30
0.0
 10
142.1091964100196
 20
-418.8719999999994
 30
0.0
 10
142.0188964123008
 20
-389.9285999999993
 30
0.0
 10
143.7850963676829
 20
-361.0686999999998
 30
0.0
 10
146.63809629561
 20
-332.2911000000004
 30
0.0
 10
148.7880962412964
 20
-310.6045999999997
 30
0.0
 10
151.5010000000002
 20
-288.9732999999997
 30
0.0
 10
156.9707960345841
 20
-267.7876999999999
 30
0.0
 10
159.0506959820414
 20
-259.7317000000003
 30
0.0
 10
164.12989585373
 20
-254.7242999999999
 30
0.0
 10
171.7281956617808
 20
-252.1621999999998
 30
0.0
 10
183.6497953606158
 20
-248.1423000000004
 30
0.0
 10
195.951
 20
-248.884
 30
0.0
 10
208.2324947396046
 20
-249.6867000000002
 30
0.0
 10
210.8311946739559
 20
-249.8564999999999
 30
0.0
 10
211.0116946693961
 20
-251.3969999999999
 30
0.0
 10
210.8558946733319
 20
-253.5635000000002
 30
0.0
  0
SPLINE
  5
43
330
1F
100
AcDbEntity
  8
Layer 1
370
     0
100
AcDbSpline
210
0.0
220
0.0
230
1.0
 70
    11
 71
     3
 72
   122
 73
   118
 74
     0
 42
0.0000000001
 43
0.0000000001
 12
1.0
 22
0.0
 32
0.0
 13
1.0
 23
0.0
 33
0.0
 40
0.0
 40
0.0
 40
0.0
 40
0.0
 40
1.0
 40
1.0
 40
1.0
 40
2.0
 40
2.0
 40
2.0
 40
3.0
 40
3.0
 40
3.0
 40
4.0
 40
4.0
 40
4.0
 40
5.0
 40
5.0
 40
5.0
 40
6.0
 40
6.0
 40
6.0
 40
7.0
 40
7.0
 40
7.0
 40
8.0
 40
8.0
 40
8.0
 40
9.0
 40
9.0
 40
9.0
 40
10.0
 40
10.0
 40
10.0
 40
11.0
 40
11.0
 40
11.0
 40
12.0
 40
12.0
 40
12.0
 40
13.0
 40
13.0
 40
13.0
 40
14.0
 40
14.0
 40
14.0
 40
15.0
 40
15.0
 40
15.0
 40
16.0
 40
16.0
 40
16.0
 40
17.0
 40
17.0
 40
17.0
 40
18.0
 40
18.0
 40
18.0
 40
19.0
 40
19.0
 40
19.0
 40
20.0
 40
20.0
 40
20.0
 40
21.0
 40
21.0
 40
21.0
 40
22.0
 40
22.0
 40
22.0
 40
23.0
 40
23.0
 40
23.0
 40
24.0
 40
24.0
 40
24.0
 40
25.0
 40
25.0
 40
25.0
 40
26.0
 40
26.0
 40
26.0
 40
27.0
 40
27.0
 40
27.0
 40
28.0
 40
28.0
 40
28.0
 40
29.0
 40
29.0
 40
29.0
 40
30.0
 40
30.0
 40
30.0
 40
31.0
 40
31.0
 40
31.0
 40
32.0
 40
32.0
 40
32.0
 40
33.0
 40
33.0
 40
33.0
 40
34.0
 40
34.0
 40
34.0
 40
35.0
 40
35.0
 40
35.0
 40
36.0
 40
36.0
 40
36.0
 40
37.0
 40
37.0
 40
37.0
 40
38.0
 40
38.0
 40
38.0
 40
39.0
 40
39.0
 40
39.0
 40
39.0
 10
567.2453856701759
 20
-466.0362999999998
 30
0.0
 10
565.1138857240221
 20
-496.1663000000008
 30
0.0
 10
560.6675858363451
 20
-526.0679
 30
0.0
 10
556.5094859413875
 20
-555.9827000000005
 30
0.0
 10
552.6331860393111
 20
-583.8688000000002
 30
0.0
 10
548.1418861527709
 20
-611.6525999999994
 30
0.0
 10
543.3285862743651
 20
-639.3922000000002
 30
0.0
 10
542.3610862988062
 20
-644.9676999999992
 30
0.0
 10
540.0030000000006
 20
-648.0792000000001
 30
0.0
 10
534.7368864914097
 20
-649.8809000000001
 30
0.0
 10
521.6562868218534
 20
-654.3562000000002
 30
0.0
 10
508.3176871588148
 20
-654.2263999999996
 30
0.0
 10
494.8778874983327
 20
-652.6774000000005
 30
0.0
 10
487.5584876832363
 20
-651.8338999999996
 30
0.0
 10
480.370387864823
 20
-650.2896999999994
 30
0.0
 10
473.3994880409227
 20
-647.7767000000003
 30
0.0
 10
469.280188144985
 20
-646.2918000000009
 30
0.0
 10
466.7430000000004
 20
-643.8276000000005
 30
0.0
 10
465.6357882370503
 20
-639.3816000000006
 30
0.0
 10
461.801088333923
 20
-623.9835999999996
 30
0.0
 10
461.7215883359313
 20
-608.4670999999998
 30
0.0
 10
463.7752882840505
 20
-592.8847000000005
 30
0.0
 10
464.7401882596751
 20
-585.5635000000002
 30
0.0
 10
464.9737882537738
 20
-585.5532000000003
 30
0.0
 10
472.2716880694134
 20
-584.1733999999997
 30
0.0
 10
483.0398877973857
 20
-582.1375000000007
 30
0.0
 10
493.2686875389845
 20
-578.8999000000003
 30
0.0
 10
501.7460873248274
 20
-571.5236000000004
 30
0.0
 10
508.2704871600072
 20
-565.8466000000008
 30
0.0
 10
512.3714870564072
 20
-558.7482
 30
0.0
 10
514.7381869966193
 20
-549.6504999999997
 30
0.0
 10
487.5502876834435
 20
-559.3947000000007
 30
0.0
 10
461.5965883390891
 20
-553.8834999999999
 30
0.0
 10
435.7802889912637
 20
-546.8852000000006
 30
0.0
 10
422.8371893182339
 20
-543.3765999999996
 30
0.0
 10
410.0896896402628
 20
-539.1530999999995
 30
0.0
 10
397.1990899659068
 20
-535.4426999999996
 30
0.0
 10
390.3531901388487
 20
-533.4722000000002
 30
0.0
 10
383.38619031485
 20
-532.2036000000007
 30
0.0
 10
376.3310000000001
 20
-534.7191000000003
 30
0.0
 10
366.4994907414439
 20
-538.2245000000003
 30
0.0
 10
362.3104908472669
 20
-546.1366999999991
 30
0.0
 10
360.00969090539
 20
-555.5395000000008
 30
0.0
 10
356.6253909908846
 20
-569.3701999999994
 30
0.0
 10
355.683491014679
 20
-583.5107000000007
 30
0.0
 10
354.8870910347978
 20
-597.6450000000004
 30
0.0
 10
353.8457910611032
 20
-616.1290000000008
 30
0.0
 10
353.2087910771952
 20
-634.6334999999999
 30
0.0
 10
353.1461910787766
 20
-653.1506000000008
 30
0.0
 10
353.1397910789383
 20
-655.0463999999993
 30
0.0
 10
352.4881910953991
 20
-656.4087999999992
 30
0.0
 10
351.2254911272976
 20
-657.7525999999998
 30
0.0
 10
322.5073918527778
 20
-688.3153999999995
 30
0.0
 10
285.2825927931553
 20
-679.3078000000005
 30
0.0
 10
264.4070000000002
 20
-653.8271000000004
 30
0.0
 10
258.9151934592519
 20
-647.1239999999998
 30
0.0
 10
258.2840934751948
 20
-638.3381000000008
 30
0.0
 10
256.8238935120826
 20
-630.1509000000005
 30
0.0
 10
251.2577936526941
 20
-598.9419999999991
 30
0.0
 10
248.9626937106732
 20
-567.3840999999993
 30
0.0
 10
247.0741937583807
 20
-535.7798000000003
 30
0.0
 10
243.8710000000001
 20
-482.1740000000009
 30
0.0
 10
243.0640938596844
 20
-428.5167000000001
 30
0.0
 10
243.9056938384238
 20
-374.8453
 30
0.0
 10
244.5404938223874
 20
-334.3567999999996
 30
0.0
 10
246.0879999999997
 20
-293.8894
 30
0.0
 10
249.5935936947353
 20
-253.5196999999998
 30
0.0
 10
252.0442936328254
 20
-225.2983000000004
 30
0.0
 10
254.9121935603762
 20
-197.1440000000002
 30
0.0
 10
261.0382934056179
 20
-169.4317000000001
 30
0.0
 10
264.2514933244456
 20
-154.8966
 30
0.0
 10
268.6058932144442
 20
-140.7502999999997
 30
0.0
 10
274.6447930618888
 20
-127.0826999999999
 30
0.0
 10
287.1792927452407
 20
-98.71349999999984
 30
0.0
 10
308.9788921945365
 20
-82.95510000000013
 30
0.0
 10
339.3550914271691
 20
-78.41160000000036
 30
0.0
 10
370.9809999999998
 20
-73.68099999999959
 30
0.0
 10
402.8562898229939
 20
-73.33389999999963
 30
0.0
 10
434.5868890214115
 20
-75.31710000000021
 30
0.0
 10
468.202288172215
 20
-77.41820000000007
 30
0.0
 10
496.3260874617481
 20
-92.27760000000035
 30
0.0
 10
518.5664868999083
 20
-117.8038999999999
 30
0.0
 10
519.4844868767177
 20
-118.8575000000001
 30
0.0
 10
520.7868868438163
 20
-119.7277000000004
 30
0.0
 10
520.8992868409769
 20
-121.6131999999998
 30
0.0
 10
514.4347870042839
 20
-120.9763999999996
 30
0.0
 10
508.0413871657947
 20
-120.2281000000003
 30
0.0
 10
501.604387328407
 20
-119.8819999999996
 30
0.0
 10
470.6756881097317
 20
-118.2183999999997
 30
0.0
 10
440.5400000000009
 20
-122.8254999999999
 30
0.0
 10
410.8386896213415
 20
-131.0061999999998
 30
0.0
 10
397.4741899589571
 20
-134.6871000000001
 30
0.0
 10
384.5242902860991
 20
-139.6004000000003
 30
0.0
 10
371.464190616025
 20
-144.2143999999998
 30
0.0
 10
361.8304908593927
 20
-147.6179000000002
 30
0.0
 10
354.8156910366015
 20
-153.8576000000003
 30
0.0
 10
348.8792911865676
 20
-161.6722
 30
0.0
 10
336.1688915076593
 20
-178.4043000000001
 30
0.0
 10
329.8907916662574
 20
-197.4549999999999
 30
0.0
 10
328.6547916974814
 20
-218.3275000000003
 30
0.0
 10
327.3082917314969
 20
-241.0648000000001
 30
0.0
 10
331.3170916302261
 20
-262.9759999999997
 30
0.0
 10
339.1922914312818
 20
-284.1632
 30
0.0
 10
348.9423911849735
 20
-310.3946999999998
 30
0.0
 10
369.1324906749287
 20
-325.9993000000004
 30
0.0
 10
394.1316900433958
 20
-336.2294000000002
 30
0.0
 10
412.4875895796868
 20
-343.741
 30
0.0
 10
431.7614890927871
 20
-347.2371000000003
 30
0.0
 10
451.4995885941607
 20
-348.4126999999999
 30
0.0
 10
490.096687619116
 20
-350.7114000000001
 30
0.0
 10
527.5574866727766
 20
-345.2683999999999
 30
0.0
 10
563.8260000000009
 20
-331.8472000000002
 30
0.0
 10
566.5023856889457
 20
-330.8568999999998
 30
0.0
 10
567.2885856690846
 20
-331.2385000000004
 30
0.0
 10
567.3889999999992
 20
-334.1779999999999
 30
0.0
 10
568.891085628602
 20
-378.1350000000002
 30
0.0
 10
570.3526855916789
 20
-422.1115000000009
 30
0.0
 10
567.2453856701759
 20
-466.0362999999998
 30
0.0
  0
SPLINE
  5
44
330
1F
100
AcDbEntity
  8
Layer 1
370
     0
100
AcDbSpline
210
0.0
220
0.0
230
1.0
 70
    11
 71
     3
 72
    38
 73
    34
 74
     0
 42
0.0000000001
 43
0.0000000001
 12
1.0
 22
0.0
 32
0.0
 13
1.0
 23
0.0
 33
0.0
 40
0.0
 40
0.0
 40
0.0
 40
0.0
 40
1.0
 40
1.0
 40
1.0
 40
2.0
 40
2.0
 40
2.0
 40
3.0
 40
3.0
 40
3.0
 40
4.0
 40
4.0
 40
4.0
 40
5.0
 40
5.0
 40
5.0
 40
6.0
 40
6.0
 40
6.0
 40
7.0
 40
7.0
 40
7.0
 40
8.0
 40
8.0
 40
8.0
 40
9.0
 40
9.0
 40
9.0
 40
10.0
 40
10.0
 40
10.0
 40
11.0
 40
11.0
 40
11.0
 40
11.0
 10
594.4308849834124
 20
-268.9593999999997
 30
0.0
 10
581.0943853203207
 20
-282.4182000000001
 30
0.0
 10
564.5849999999991
 20
-290.6392999999998
 30
0.0
 10
547.0847861794755
 20
-296.9497000000001
 30
0.0
 10
521.4522868270069
 20
-306.1926000000003
 30
0.0
 10
494.9047874976532
 20
-310.5391
 30
0.0
 10
460.8294883584676
 20
-310.4888000000001
 30
0.0
 10
446.2674887263347
 20
-310.3856999999998
 30
0.0
 10
425.2998892560208
 20
-307.9243999999999
 30
0.0
 10
405.4748897568425
 20
-299.2295000000004
 30
0.0
 10
394.4126900362971
 20
-294.3777
 30
0.0
 10
383.7174903064806
 20
-288.2235000000001
 30
0.0
 10
378.4979999999996
 20
-277.1223
 30
0.0
 10
367.0150000000003
 20
-252.6993000000002
 30
0.0
 10
362.7282908367124
 20
-227.1385
 30
0.0
 10
371.0576906262941
 20
-200.5986000000003
 30
0.0
 10
371.8729999999996
 20
-198.0007999999998
 30
0.0
 10
373.0841905751004
 20
-195.5092999999997
 30
0.0
 10
374.2874905447025
 20
-193.0546999999997
 30
0.0
 10
377.8322904551533
 20
-185.8240999999998
 30
0.0
 10
382.8285903289361
 20
-180.7981
 30
0.0
 10
390.9300000000003
 20
-177.8667999999998
 30
0.0
 10
421.3858893548968
 20
-166.8471
 30
0.0
 10
452.3217885733902
 20
-158.5946000000004
 30
0.0
 10
484.929387749653
 20
-157.9750000000004
 30
0.0
 10
515.592086975048
 20
-157.3923999999997
 30
0.0
 10
544.7905862374319
 20
-162.7479999999996
 30
0.0
 10
570.8761855784542
 20
-179.9099999999999
 30
0.0
 10
587.6470000000008
 20
-190.9436999999998
 30
0.0
 10
600.5787848281034
 20
-205.2503999999999
 30
0.0
 10
605.9228846931001
 20
-225.1099000000004
 30
0.0
 10
610.4022845799409
 20
-241.7559000000001
 30
0.0
 10
606.7137846731202
 20
-256.5637999999999
 30
0.0
 10
594.4308849834124
 20
-268.9593999999997
 30
0.0
  0
HATCH
  5
45
330
1F
100
AcDbEntity
  8
Layer 1
 62
     7
420
 16777215
100
AcDbHatch
 10
0.0
 20
0.0
 30
0.0
210
0.0
220
0.0
230
1.0
  2
SOLID
 70
     1
 71
     0
 91
        4
 92
        1
 93
        1
 72
     4
 94
        3
 73
     0
 74
     1
 95
      101
 96
       97
 40
0.0
 40
0.0
 40
0.0
 40
0.0
 40
1.0
 40
1.0
 40
1.0
 40
2.0
 40
2.0
 40
2.0
 40
3.0
 40
3.0
 40
3.0
 40
4.0
 40
4.0
 40
4.0
 40
5.0
 40
5.0
 40
5.0
 40
6.0
 40
6.0
 40
6.0
 40
7.0
 40
7.0
 40
7.0
 40
8.0
 40
8.0
 40
8.0
 40
9.0
 40
9.0
 40
9.0
 40
10.0
 40
10.0
 40
10.0
 40
11.0
 40
11.0
 40
11.0
 40
12.0
 40
12.0
 40
12.0
 40
13.0
 40
13.0
 40
13.0
 40
14.0
 40
14.0
 40
14.0
 40
15.0
 40
15.0
 40
15.0
 40
16.0
 40
16.0
 40
16.0
 40
17.0
 40
17.0
 40
17.0
 40
18.0
 40
18.0
 40
18.0
 40
19.0
 40
19.0
 40
19.0
 40
20.0
 40
20.0
 40
20.0
 40
21.0
 40
21.0
 40
21.0
 40
22.0
 40
22.0
 40
22.0
 40
23.0
 40
23.0
 40
23.0
 40
24.0
 40
24.0
 40
24.0
 40
25.0
 40
25.0
 40
25.0
 40
26.0
 40
26.0
 40
26.0
 40
27.0
 40
27.0
 40
27.0
 40
28.0
 40
28.0
 40
28.0
 40
29.0
 40
29.0
 40
29.0
 40
30.0
 40
30.0
 40
30.0
 40
31.0
 40
31.0
 40
31.0
 40
32.0
 40
32.0
 40
32.0
 40
32.0
 10
635.7615839393111
 20
-195.7637000000004
 10
622.3361842784652
 20
-168.9934999999996
 10
599.2095848626923
 20
-157.9616999999998
 10
580.173785343577
 20
-136.9643999999998
 10
562.260885796095
 20
-117.2057000000004
 10
550.3031860981719
 20
-92.63820000000032
 10
530.0208866105459
 20
-74.92649999999958
 10
504.4957872553641
 20
-52.63640000000032
 10
472.5886880614053
 20
-39.96609999999964
 10
438.924388911837
 20
-37.11290000000008
 10
402.7514898256413
 20
-34.04709999999977
 10
366.3747907445941
 20
-34.96299999999974
 10
330.4031916533131
 20
-41.11759999999958
 10
303.4837923333544
 20
-45.72339999999986
 10
279.643
 20
-56.6238000000003
 10
261.1084934038445
 20
-77.33370000000014
 10
245.6680937939018
 20
-94.58629999999994
 10
236.4251940273971
 20
-115.1736000000001
 10
229.7444941961658
 20
-137.0649000000003
 10
225.6035943007737
 20
-150.6338999999998
 10
222.4376943807511
 20
-164.4777000000004
 10
219.956394443434
 20
-178.4413000000004
 10
218.4890944805011
 20
-186.6981999999998
 10
220.0681944406097
 20
-208.0387000000001
 10
210.5360000000001
 20
-211.8581999999997
 10
200.7480949286764
 20
-215.7744000000002
 10
181.285695420338
 20
-210.3836000000001
 10
169.5029999999997
 20
-212.9876000000004
 10
143.6308963715783
 20
-218.7053999999998
 10
125.9621968179272
 20
-233.1823000000004
 10
119.357096984786
 20
-259.7614999999996
 10
114.4334971091666
 20
-279.5744999999997
 10
111.5114971829826
 20
-299.7021000000004
 10
109.2827972392843
 20
-319.9318999999996
 10
105.9728973228994
 20
-349.9763999999996
 10
104.067
 20
-380.1224999999995
 10
103.7224973797493
 20
-410.3618000000006
 10
103.3415973893716
 20
-443.7936000000009
 10
104.1408973691796
 20
-477.0823999999993
 10
110.788897201237
 20
-510.0655999999999
 10
116.9228970462791
 20
-540.4987000000001
 10
135.0119999999997
 20
-559.7371000000003
 10
163.7809999999999
 20
-569.7635000000009
 10
177.8305955076212
 20
-574.6599999999999
 10
192.3456951409389
 20
-576.8745999999992
 10
207.1917947658949
 20
-576.7304999999997
 10
210.4653946831968
 20
-576.6987000000008
 10
211.494794657192
 20
-577.5210999999999
 10
211.8053946493455
 20
-580.9572000000007
 10
213.5731946046872
 20
-600.5174999999999
 10
215.6311945526977
 20
-620.0586000000003
 10
219.4614944559362
 20
-639.3482999999997
 10
221.6831943998113
 20
-650.5367000000006
 10
223.9282943430953
 20
-661.7949000000008
 10
229.9605941907066
 20
-671.7178000000004
 10
260.4347934208636
 20
-721.8472000000002
 10
331.2075916329923
 20
-727.9742000000006
 10
373.8175905565731
 20
-690.3238000000001
 10
387.3094902157391
 20
-678.4020999999993
 10
392.0650900956025
 20
-660.9264000000003
 10
393.6411900557869
 20
-642.1690999999992
 10
395.4153900109668
 20
-621.0532000000003
 10
393.1601900679379
 20
-598.3130000000001
 10
394.8026900264449
 20
-580.0442999999996
 10
395.2642900147839
 20
-574.9099000000006
 10
395.2129999999997
 20
-574.9765000000007
 10
400.3986898850781
 20
-576.4657000000007
 10
417.6715894487279
 20
-581.4261000000006
 10
423.6858892967939
 20
-579.8593000000001
 10
424.2909999999993
 20
-598.3169999999991
 10
424.6830000000009
 20
-610.2793999999994
 10
424.2808892817629
 20
-622.2443999999996
 10
425.9969999999994
 20
-634.1357000000007
 10
429.4699999999993
 20
-658.2019999999993
 10
440.7700000000004
 20
-678.2495999999992
 10
465.278388246079
 20
-685.5283
 10
500.8507873474446
 20
-696.0921999999991
 10
570.9354855769561
 20
-700.5372000000007
 10
580.1214853448982
 20
-651.1478999999999
 10
582.7338852789035
 20
-637.0957999999991
 10
585.1588852176428
 20
-623.0103999999992
 10
587.4612851594793
 20
-608.9081000000006
 10
591.859185048379
 20
-581.9709999999995
 10
595.5484849551794
 20
-554.9318999999996
 10
599.1084848652463
 20
-527.8708000000006
 10
603.1446847632833
 20
-497.1874000000007
 10
606.6209999999992
 20
-466.4649000000009
 10
607.2043846607266
 20
-435.4923999999992
 10
607.931784642351
 20
-396.8652000000002
 10
607.2953846584278
 20
-358.2524000000003
 10
604.8715847196581
 20
-319.6945999999998
 10
604.4697847298085
 20
-313.3038999999999
 10
606.091084688851
 20
-309.4066000000003
 10
611.2985845572985
 20
-305.3292000000001
 10
646.9089999999997
 20
-277.4471999999996
 10
656.0046834279274
 20
-236.1283999999996
 10
635.7615839393111
 20
-195.7637000000004
 97
        0
 97
        0
 92
        1
 93
        1
 72
     4
 94
        3
 73
     0
 74
     1
 95
       44
 96
       40
 40
0.0
 40
0.0
 40
0.0
 40
0.0
 40
1.0
 40
1.0
 40
1.0
 40
2.0
 40
2.0
 40
2.0
 40
3.0
 40
3.0
 40
3.0
 40
4.0
 40
4.0
 40
4.0
 40
5.0
 40
5.0
 40
5.0
 40
6.0
 40
6.0
 40
6.0
 40
7.0
 40
7.0
 40
7.0
 40
8.0
 40
8.0
 40
8.0
 40
9.0
 40
9.0
 40
9.0
 40
10.0
 40
10.0
 40
10.0
 40
11.0
 40
11.0
 40
11.0
 40
12.0
 40
12.0
 40
12.0
 40
13.0
 40
13.0
 40
13.0
 40
13.0
 10
210.8558946733319
 20
-253.5635000000002
 10
209.2374947142162
 20
-276.0573000000004
 10
207.8389999999999
 20
-298.5613000000003
 10
206.9354947723696
 20
-321.1008000000002
 10
205.9622947969547
 20
-345.3819999999996
 10
205.480294809131
 20
-369.6660000000002
 10
205.3140948133296
 20
-393.9626000000007
 10
204.9923948214564
 20
-440.9742000000006
 10
205.8977947985841
 20
-487.9567999999999
 10
208.3717947360856
 20
-534.9069
 10
208.4536947340166
 20
-536.4624000000003
 10
209.4312947093204
 20
-538.6188000000002
 10
206.3434947873247
 20
-538.4832000000006
 10
190.2680951934235
 20
-537.7769000000008
 10
174.8205955836602
 20
-535.1694000000007
 10
161.262795926159
 20
-525.4688000000006
 10
152.5423961464548
 20
-519.2291999999998
 10
150.1981962056743
 20
-509.9393
 10
148.2151962557691
 20
-500.4254999999994
 10
143.4154963770197
 20
-477.3984
 10
142.2988964052274
 20
-454.0282999999999
 10
142.113496409911
 20
-430.5871999999999
 10
142.0825964106916
 20
-426.6823999999997
 10
142.1091964100196
 20
-422.7770999999993
 10
142.1091964100196
 20
-418.8719999999994
 10
142.0188964123008
 20
-389.9285999999993
 10
143.7850963676829
 20
-361.0686999999998
 10
146.63809629561
 20
-332.2911000000004
 10
148.7880962412964
 20
-310.6045999999997
 10
151.5010000000002
 20
-288.9732999999997
 10
156.9707960345841
 20
-267.7876999999999
 10
159.0506959820414
 20
-259.7317000000003
 10
164.12989585373
 20
-254.7242999999999
 10
171.7281956617808
 20
-252.1621999999998
 10
183.6497953606158
 20
-248.1423000000004
 10
195.951
 20
-248.884
 10
208.2324947396046
 20
-249.6867000000002
 10
210.8311946739559
 20
-249.8564999999999
 10
211.0116946693961
 20
-251.3969999999999
 10
210.8558946733319
 20
-253.5635000000002
 97
        0
 97
        0
 92
        1
 93
        1
 72
     4
 94
        3
 73
     0
 74
     1
 95
      122
 96
      118
 40
0.0
 40
0.0
 40
0.0
 40
0.0
 40
1.0
 40
1.0
 40
1.0
 40
2.0
 40
2.0
 40
2.0
 40
3.0
 40
3.0
 40
3.0
 40
4.0
 40
4.0
 40
4.0
 40
5.0
 40
5.0
 40
5.0
 40
6.0
 40
6.0
 40
6.0
 40
7.0
 40
7.0
 40
7.0
 40
8.0
 40
8.0
 40
8.0
 40
9.0
 40
9.0
 40
9.0
 40
10.0
 40
10.0
 40
10.0
 40
11.0
 40
11.0
 40
11.0
 40
12.0
 40
12.0
 40
12.0
 40
13.0
 40
13.0
 40
13.0
 40
14.0
 40
14.0
 40
14.0
 40
15.0
 40
15.0
 40
15.0
 40
16.0
 40
16.0
 40
16.0
 40
17.0
 40
17.0
 40
17.0
 40
18.0
 40
18.0
 40
18.0
 40
19.0
 40
19.0
 40
19.0
 40
20.0
 40
20.0
 40
20.0
 40
21.0
 40
21.0
 40
21.0
 40
22.0
 40
22.0
 40
22.0
 40
23.0
 40
23.0
 40
23.0
 40
24.0
 40
24.0
 40
24.0
 40
25.0
 40
25.0
 40
25.0
 40
26.0
 40
26.0
 40
26.0
 40
27.0
 40
27.0
 40
27.0
 40
28.0
 40
28.0
 40
28.0
 40
29.0
 40
29.0
 40
29.0
 40
30.0
 40
30.0
 40
30.0
 40
31.0
 40
31.0
 40
31.0
 40
32.0
 40
32.0
 40
32.0
 40
33.0
 40
33.0
 40
33.0
 40
34.0
 40
34.0
 40
34.0
 40
35.0
 40
35.0
 40
35.0
 40
36.0
 40
36.0
 40
36.0
 40
37.0
 40
37.0
 40
37.0
 40
38.0
 40
38.0
 40
38.0
 40
39.0
 40
39.0
 40
39.0
 40
39.0
 10
567.2453856701759
 20
-466.0362999999998
 10
565.1138857240221
 20
-496.1663000000008
 10
560.6675858363451
 20
-526.0679
 10
556.5094859413875
 20
-555.9827000000005
 10
552.6331860393111
 20
-583.8688000000002
 10
548.1418861527709
 20
-611.6525999999994
 10
543.3285862743651
 20
-639.3922000000002
 10
542.3610862988062
 20
-644.9676999999992
 10
540.0030000000006
 20
-648.0792000000001
 10
534.7368864914097
 20
-649.8809000000001
 10
521.6562868218534
 20
-654.3562000000002
 10
508.3176871588148
 20
-654.2263999999996
 10
494.8778874983327
 20
-652.6774000000005
 10
487.5584876832363
 20
-651.8338999999996
 10
480.370387864823
 20
-650.2896999999994
 10
473.3994880409227
 20
-647.7767000000003
 10
469.280188144985
 20
-646.2918000000009
 10
466.7430000000004
 20
-643.8276000000005
 10
465.6357882370503
 20
-639.3816000000006
 10
461.801088333923
 20
-623.9835999999996
 10
461.7215883359313
 20
-608.4670999999998
 10
463.7752882840505
 20
-592.8847000000005
 10
464.7401882596751
 20
-585.5635000000002
 10
464.9737882537738
 20
-585.5532000000003
 10
472.2716880694134
 20
-584.1733999999997
 10
483.0398877973857
 20
-582.1375000000007
 10
493.2686875389845
 20
-578.8999000000003
 10
501.7460873248274
 20
-571.5236000000004
 10
508.2704871600072
 20
-565.8466000000008
 10
512.3714870564072
 20
-558.7482
 10
514.7381869966193
 20
-549.6504999999997
 10
487.5502876834435
 20
-559.3947000000007
 10
461.5965883390891
 20
-553.8834999999999
 10
435.7802889912637
 20
-546.8852000000006
 10
422.8371893182339
 20
-543.3765999999996
 10
410.0896896402628
 20
-539.1530999999995
 10
397.1990899659068
 20
-535.4426999999996
 10
390.3531901388487
 20
-533.4722000000002
 10
383.38619031485
 20
-532.2036000000007
 10
376.3310000000001
 20
-534.7191000000003
 10
366.4994907414439
 20
-538.2245000000003
 10
362.3104908472669
 20
-546.1366999999991
 10
360.00969090539
 20
-555.5395000000008
 10
356.6253909908846
 20
-569.3701999999994
 10
355.683491014679
 20
-583.5107000000007
 10
354.8870910347978
 20
-597.6450000000004
 10
353.8457910611032
 20
-616.1290000000008
 10
353.2087910771952
 20
-634.6334999999999
 10
353.1461910787766
 20
-653.1506000000008
 10
353.1397910789383
 20
-655.0463999999993
 10
352.4881910953991
 20
-656.4087999999992
 10
351.2254911272976
 20
-657.7525999999998
 10
322.5073918527778
 20
-688.3153999999995
 10
285.2825927931553
 20
-679.3078000000005
 10
264.4070000000002
 20
-653.8271000000004
 10
258.9151934592519
 20
-647.1239999999998
 10
258.2840934751948
 20
-638.3381000000008
 10
256.8238935120826
 20
-630.1509000000005
 10
251.2577936526941
 20
-598.9419999999991
 10
248.9626937106732
 20
-567.3840999999993
 10
247.0741937583807
 20
-535.7798000000003
 10
243.8710000000001
 20
-482.1740000000009
 10
243.0640938596844
 20
-428.5167000000001
 10
243.9056938384238
 20
-374.8453
 10
244.5404938223874
 20
-334.3567999999996
 10
246.0879999999997
 20
-293.8894
 10
249.5935936947353
 20
-253.5196999999998
 10
252.0442936328254
 20
-225.2983000000004
 10
254.9121935603762
 20
-197.1440000000002
 10
261.0382934056179
 20
-169.4317000000001
 10
264.2514933244456
 20
-154.8966
 10
268.6058932144442
 20
-140.7502999999997
 10
274.6447930618888
 20
-127.0826999999999
 10
287.1792927452407
 20
-98.71349999999984
 10
308.9788921945365
 20
-82.95510000000013
 10
339.3550914271691
 20
-78.41160000000036
 10
370.9809999999998
 20
-73.68099999999959
 10
402.8562898229939
 20
-73.33389999999963
 10
434.5868890214115
 20
-75.31710000000021
 10
468.202288172215
 20
-77.41820000000007
 10
496.3260874617481
 20
-92.27760000000035
 10
518.5664868999083
 20
-117.8038999999999
 10
519.4844868767177
 20
-118.8575000000001
 10
520.7868868438163
 20
-119.7277000000004
 10
520.8992868409769
 20
-121.6131999999998
 10
514.4347870042839
 20
-120.9763999999996
 10
508.0413871657947
 20
-120.2281000000003
 10
501.604387328407
 20
-119.8819999999996
 10
470.6756881097317
 20
-118.2183999999997
 10
440.5400000000009
 20
-122.8254999999999
 10
410.8386896213415
 20
-131.0061999999998
 10
397.4741899589571
 20
-134.6871000000001
 10
384.5242902860991
 20
-139.6004000000003
 10
371.464190616025
 20
-144.2143999999998
 10
361.8304908593927
 20
-147.6179000000002
 10
354.8156910366015
 20
-153.8576000000003
 10
348.8792911865676
 20
-161.6722
 10
336.1688915076593
 20
-178.4043000000001
 10
329.8907916662574
 20
-197.4549999999999
 10
328.6547916974814
 20
-218.3275000000003
 10
327.3082917314969
 20
-241.0648000000001
 10
331.3170916302261
 20
-262.9759999999997
 10
339.1922914312818
 20
-284.1632
 10
348.9423911849735
 20
-310.3946999999998
 10
369.1324906749287
 20
-325.9993000000004
 10
394.1316900433958
 20
-336.2294000000002
 10
412.4875895796868
 20
-343.741
 10
431.7614890927871
 20
-347.2371000000003
 10
451.4995885941607
 20
-348.4126999999999
 10
490.096687619116
 20
-350.7114000000001
 10
527.5574866727766
 20
-345.2683999999999
 10
563.8260000000009
 20
-331.8472000000002
 10
566.5023856889457
 20
-330.8568999999998
 10
567.2885856690846
 20
-331.2385000000004
 10
567.3889999999992
 20
-334.1779999999999
 10
568.891085628602
 20
-378.1350000000002
 10
570.3526855916789
 20
-422.1115000000009
 10
567.2453856701759
 20
-466.0362999999998
 97
        0
 97
        0
 92
        1
 93
        1
 72
     4
 94
        3
 73
     0
 74
     1
 95
       38
 96
       34
 40
0.0
 40
0.0
 40
0.0
 40
0.0
 40
1.0
 40
1.0
 40
1.0
 40
2.0
 40
2.0
 40
2.0
 40
3.0
 40
3.0
 40
3.0
 40
4.0
 40
4.0
 40
4.0
 40
5.0
 40
5.0
 40
5.0
 40
6.0
 40
6.0
 40
6.0
 40
7.0
 40
7.0
 40
7.0
 40
8.0
 40
8.0
 40
8.0
 40
9.0
 40
9.0
 40
9.0
 40
10.0
 40
10.0
 40
10.0
 40
11.0
 40
11.0
 40
11.0
 40
11.0
 10
594.4308849834124
 20
-268.9593999999997
 10
581.0943853203207
 20
-282.4182000000001
 10
564.5849999999991
 20
-290.6392999999998
 10
547.0847861794755
 20
-296.9497000000001
 10
521.4522868270069
 20
-306.1926000000003
 10
494.9047874976532
 20
-310.5391
 10
460.8294883584676
 20
-310.4888000000001
 10
446.2674887263347
 20
-310.3856999999998
 10
425.2998892560208
 20
-307.9243999999999
 10
405.4748897568425
 20
-299.2295000000004
 10
394.4126900362971
 20
-294.3777
 10
383.7174903064806
 20
-288.2235000000001
 10
378.4979999999996
 20
-277.1223
 10
367.0150000000003
 20
-252.6993000000002
 10
362.7282908367124
 20
-227.1385
 10
371.0576906262941
 20
-200.5986000000003
 10
371.8729999999996
 20
-198.0007999999998
 10
373.0841905751004
 20
-195.5092999999997
 10
374.2874905447025
 20
-193.0546999999997
 10
377.8322904551533
 20
-185.8240999999998
 10
382.8285903289361
 20
-180.7981
 10
390.9300000000003
 20
-177.8667999999998
 10
421.3858893548968
 20
-166.8471
 10
452.3217885733902
 20
-158.5946000000004
 10
484.929387749653
 20
-157.9750000000004
 10
515.592086975048
 20
-157.3923999999997
 10
544.7905862374319
 20
-162.7479999999996
 10
570.8761855784542
 20
-179.9099999999999
 10
587.6470000000008
 20
-190.9436999999998
 10
600.5787848281034
 20
-205.2503999999999
 10
605.9228846931001
 20
-225.1099000000004
 10
610.4022845799409
 20
-241.7559000000001
 10
606.7137846731202
 20
-256.5637999999999
 10
594.4308849834124
 20
-268.9593999999997
 97
        0
 97
        0
 75
     2
 76
     1
 98
        0
  0
ENDSEC
  0
SECTION
  2
OBJECTS
  0
DICTIONARY
  5
C
330
0
100
AcDbDictionary
281
     1
  3
ACAD_GROUP
350
D
  3
ACAD_LAYOUT
350
1A
  3
ACAD_MATERIAL
350
3B
  3
ACAD_MLEADERSTYLE
350
47
  3
ACAD_MLINESTYLE
350
17
  3
ACAD_PLOTSETTINGS
350
19
  3
ACAD_PLOTSTYLENAME
350
E
  3
ACAD_TABLESTYLE
350
46
  3
ACAD_VISUALSTYLE
350
2A
  0
SUN
  5
3F
330
29
100
AcDbSun
 90
        1
290
     0
 63
     7
421
 16777215
 40
1.0
291
     1
 91
  2455826
 92
 54000000
292
     0
 70
     2
 71
   256
280
     1
  0
DICTIONARY
  5
D
102
{ACAD_REACTORS
330
C
102
}
330
C
100
AcDbDictionary
281
     1
  0
DICTIONARY
  5
1A
102
{ACAD_REACTORS
330
C
102
}
330
C
100
AcDbDictionary
281
     1
  3
Layout1
350
1E
  3
Layout2
350
26
  3
Model
350
22
  0
DICTIONARY
  5
3B
102
{ACAD_REACTORS
330
C
102
}
330
C
100
AcDbDictionary
281
     1
  3
ByBlock
350
3D
  3
ByLayer
350
3C
  3
Global
350
3E
  0
DICTIONARY
  5
47
102
{ACAD_REACTORS
330
C
102
}
330
C
100
AcDbDictionary
281
     1
  0
DICTIONARY
  5
17
102
{ACAD_REACTORS
330
C
102
}
330
C
100
AcDbDictionary
281
     1
  3
Standard
350
18
  0
DICTIONARY
  5
19
102
{ACAD_REACTORS
330
C
102
}
330
C
100
AcDbDictionary
281
     1
  0
ACDBDICTIONARYWDFLT
  5
E
102
{ACAD_REACTORS
330
C
102
}
330
C
100
AcDbDictionary
281
     1
  3
Normal
350
F
100
AcDbDictionaryWithDefault
340
F
  0
DICTIONARY
  5
46
102
{ACAD_REACTORS
330
C
102
}
330
C
100
AcDbDictionary
281
     1
  0
DICTIONARY
  5
2A
102
{ACAD_REACTORS
330
C
102
}
330
C
100
AcDbDictionary
281
     1
  3
2dWireframe
350
2F
  3
3D Hidden
350
31
  3
3dWireframe
350
30
  3
Basic
350
32
  3
Brighten
350
36
  3
ColorChange
350
3A
  3
Conceptual
350
34
  3
Dim
350
35
  3
Facepattern
350
39
  3
Flat
350
2B
  3
FlatWithEdges
350
2C
  3
Gouraud
350
2D
  3
GouraudWithEdges
350
2E
  3
Linepattern
350
38
  3
Realistic
350
33
  3
Thicken
350
37
  0
LAYOUT
  5
1E
102
{ACAD_REACTORS
330
1A
102
}
330
1A
100
AcDbPlotSettings
  1

  2
none_device
  4

  6

 40
0.0
 41
0.0
 42
0.0
 43
0.0
 44
0.0
 45
0.0
 46
0.0
 47
0.0
 48
0.0
 49
0.0
140
0.0
141
0.0
142
1.0
143
1.0
 70
   688
 72
     0
 73
     0
 74
     5
  7

 75
    16
 76
     0
 77
     2
 78
   300
147
1.0
148
0.0
149
0.0
100
AcDbLayout
  1
Layout1
 70
     1
 71
     1
 10
0.0
 20
0.0
 11
12.0
 21
9.0
 12
0.0
 22
0.0
 32
0.0
 14
1.000000000000000E+20
 24
1.000000000000000E+20
 34
1.000000000000000E+20
 15
-1.000000000000000E+20
 25
-1.000000000000000E+20
 35
-1.000000000000000E+20
146
0.0
 13
0.0
 23
0.0
 33
0.0
 16
1.0
 26
0.0
 36
0.0
 17
0.0
 27
1.0
 37
0.0
 76
     0
330
1B
  0
LAYOUT
  5
26
102
{ACAD_REACTORS
330
1A
102
}
330
1A
100
AcDbPlotSettings
  1

  2
none_device
  4

  6

 40
0.0
 41
0.0
 42
0.0
 43
0.0
 44
0.0
 45
0.0
 46
0.0
 47
0.0
 48
0.0
 49
0.0
140
0.0
141
0.0
142
1.0
143
1.0
 70
   688
 72
     0
 73
     0
 74
     5
  7

 75
    16
 76
     0
 77
     2
 78
   300
147
1.0
148
0.0
149
0.0
100
AcDbLayout
  1
Layout2
 70
     1
 71
     2
 10
0.0
 20
0.0
 11
0.0
 21
0.0
 12
0.0
 22
0.0
 32
0.0
 14
0.0
 24
0.0
 34
0.0
 15
0.0
 25
0.0
 35
0.0
146
0.0
 13
0.0
 23
0.0
 33
0.0
 16
1.0
 26
0.0
 36
0.0
 17
0.0
 27
1.0
 37
0.0
 76
     0
330
23
  0
LAYOUT
  5
22
102
{ACAD_REACTORS
330
1A
102
}
330
1A
100
AcDbPlotSettings
  1

  2
none_device
  4

  6

 40
0.0
 41
0.0
 42
0.0
 43
0.0
 44
0.0
 45
0.0
 46
0.0
 47
0.0
 48
0.0
 49
0.0
140
0.0
141
0.0
142
1.0
143
1.0
 70
  1712
 72
     0
 73
     0
 74
     0
  7

 75
     0
 76
     0
 77
     2
 78
   300
147
1.0
148
0.0
149
0.0
100
AcDbLayout
  1
Model
 70
     1
 71
     0
 10
0.0
 20
0.0
 11
12.0
 21
9.0
 12
0.0
 22
0.0
 32
0.0
 14
1.000000000000000E+20
 24
1.000000000000000E+20
 34
1.000000000000000E+20
 15
-1.000000000000000E+20
 25
-1.000000000000000E+20
 35
-1.000000000000000E+20
146
0.0
 13
0.0
 23
0.0
 33
0.0
 16
1.0
 26
0.0
 36
0.0
 17
0.0
 27
1.0
 37
0.0
 76
     0
330
1F
331
29
  0
MATERIAL
  5
3D
102
{ACAD_REACTORS
330
3B
102
}
330
3B
100
AcDbMaterial
  1
ByBlock
 72
     1
 94
      127
  0
MATERIAL
  5
3C
102
{ACAD_REACTORS
330
3B
102
}
330
3B
100
AcDbMaterial
  1
ByLayer
 72
     1
 94
      127
  0
MATERIAL
  5
3E
102
{ACAD_REACTORS
330
3B
102
}
330
3B
100
AcDbMaterial
  1
Global
 72
     1
 94
      127
  0
MLINESTYLE
  5
18
102
{ACAD_REACTORS
330
17
102
}
330
17
100
AcDbMlineStyle
  2
Standard
 70
     0
  3

 62
   256
 51
90.0
 52
90.0
 71
     2
 49
0.5
 62
   256
  6
BYLAYER
 49
-0.5
 62
   256
  6
BYLAYER
  0
ACDBPLACEHOLDER
  5
F
102
{ACAD_REACTORS
330
E
102
}
330
E
  0
VISUALSTYLE
  5
2F
102
{ACAD_REACTORS
330
2A
102
}
330
2A
100
AcDbVisualStyle
  2
2dWireframe
 70
     4
177
     2
291
     0
 71
     0
176
     1
 72
     2
176
     1
 73
     0
176
     1
 90
        0
176
     1
 40
-0.6
176
     1
 41
-30.0
176
     1
 62
     5
 63
     7
421
 16777215
176
     1
 74
     1
176
     1
 91
        4
176
     1
 64
     7
176
     1
 65
   257
176
     1
 75
     1
176
     1
175
     1
176
     1
 42
1.0
176
     1
 92
        0
176
     1
 66
   257
176
     1
 43
1.0
176
     1
 76
     1
176
     1
 77
     6
176
     1
 78
     2
176
     1
 67
     7
176
     1
 79
     5
176
     1
170
     0
176
     1
171
     0
176
     1
290
     0
176
     1
 93
        1
176
     1
 44
0.0
176
     1
173
     0
176
     1
  0
VISUALSTYLE
  5
31
102
{ACAD_REACTORS
330
2A
102
}
330
2A
100
AcDbVisualStyle
  2
3D Hidden
 70
     6
177
     2
291
     0
 71
     1
176
     1
 72
     2
176
     1
 73
     2
176
     1
 90
        0
176
     1
 40
-0.6
176
     1
 41
-30.0
176
     1
 62
     5
 63
     7
421
 16777215
176
     1
 74
     2
176
     1
 91
        2
176
     1
 64
     7
176
     1
 65
   257
176
     1
 75
     2
176
     1
175
     1
176
     1
 42
40.0
176
     1
 92
        0
176
     1
 66
   257
176
     1
 43
1.0
176
     1
 76
     1
176
     1
 77
     6
176
     1
 78
     2
176
     1
 67
     7
176
     1
 79
     3
176
     1
170
     0
176
     1
171
     0
176
     1
290
     0
176
     1
 93
        1
176
     1
 44
0.0
176
     1
173
     0
176
     1
  0
VISUALSTYLE
  5
30
102
{ACAD_REACTORS
330
2A
102
}
330
2A
100
AcDbVisualStyle
  2
3dWireframe
 70
     5
177
     2
291
     0
 71
     0
176
     1
 72
     2
176
     1
 73
     0
176
     1
 90
        0
176
     1
 40
-0.6
176
     1
 41
-30.0
176
     1
 62
     5
 63
     7
421
 16777215
176
     1
 74
     1
176
     1
 91
        4
176
     1
 64
     7
176
     1
 65
   257
176
     1
 75
     1
176
     1
175
     1
176
     1
 42
1.0
176
     1
 92
        0
176
     1
 66
   257
176
     1
 43
1.0
176
     1
 76
     1
176
     1
 77
     6
176
     1
 78
     2
176
     1
 67
     7
176
     1
 79
     5
176
     1
170
     0
176
     1
171
     0
176
     1
290
     0
176
     1
 93
        1
176
     1
 44
0.0
176
     1
173
     0
176
     1
  0
VISUALSTYLE
  5
32
102
{ACAD_REACTORS
330
2A
102
}
330
2A
100
AcDbVisualStyle
  2
Basic
 70
     7
177
     2
291
     1
 71
     1
176
     1
 72
     0
176
     1
 73
     1
176
     1
 90
        0
176
     1
 40
-0.6
176
     1
 41
-30.0
176
     1
 62
     5
 63
     7
421
 16777215
176
     1
 74
     0
176
     1
 91
        4
176
     1
 64
     7
176
     1
 65
   257
176
     1
 75
     1
176
     1
175
     1
176
     1
 42
1.0
176
     1
 92
        8
176
     1
 66
     7
176
     1
 43
1.0
176
     1
 76
     1
176
     1
 77
     6
176
     1
 78
     2
176
     1
 67
     7
176
     1
 79
     5
176
     1
170
     0
176
     1
171
     0
176
     1
290
     0
176
     1
 93
        1
176
     1
 44
0.0
176
     1
173
     0
176
     1
  0
VISUALSTYLE
  5
36
102
{ACAD_REACTORS
330
2A
102
}
330
2A
100
AcDbVisualStyle
  2
Brighten
 70
    12
177
     2
291
     1
 71
     2
176
     1
 72
     2
176
     1
 73
     0
176
     1
 90
        0
176
     1
 40
-0.6
176
     1
 41
-30.0
176
     1
 62
     5
 63
     7
421
 16777215
176
     1
 74
     1
176
     1
 91
        4
176
     1
 64
     7
176
     1
 65
   257
176
     1
 75
     1
176
     1
175
     1
176
     1
 42
1.0
176
     1
 92
        8
176
     1
 66
     7
176
     1
 43
1.0
176
     1
 76
     1
176
     1
 77
     6
176
     1
 78
     2
176
     1
 67
     7
176
     1
 79
     5
176
     1
170
     0
176
     1
171
     0
176
     1
290
     0
176
     1
 93
        1
176
     1
 44
50.0
176
     1
173
     0
176
     1
  0
VISUALSTYLE
  5
3A
102
{ACAD_REACTORS
330
2A
102
}
330
2A
100
AcDbVisualStyle
  2
ColorChange
 70
    16
177
     2
291
     1
 71
     2
176
     1
 72
     2
176
     1
 73
     3
176
     1
 90
        0
176
     1
 40
-0.6
176
     1
 41
-30.0
176
     1
 62
     5
 63
     8
421
  8421504
176
     1
 74
     1
176
     1
 91
        4
176
     1
 64
     7
176
     1
 65
   257
176
     1
 75
     1
176
     1
175
     1
176
     1
 42
1.0
176
     1
 92
        8
176
     1
 66
     8
424
  8421504
176
     1
 43
1.0
176
     1
 76
     1
176
     1
 77
     6
176
     1
 78
     2
176
     1
 67
     7
176
     1
 79
     5
176
     1
170
     0
176
     1
171
     0
176
     1
290
     0
176
     1
 93
        1
176
     1
 44
0.0
176
     1
173
     0
176
     1
  0
VISUALSTYLE
  5
34
102
{ACAD_REACTORS
330
2A
102
}
330
2A
100
AcDbVisualStyle
  2
Conceptual
 70
     9
177
     2
291
     0
 71
     3
176
     1
 72
     2
176
     1
 73
     0
176
     1
 90
        0
176
     1
 40
-0.6
176
     1
 41
-30.0
176
     1
 62
     5
 63
     7
421
 16777215
176
     1
 74
     2
176
     1
 91
        2
176
     1
 64
     7
176
     1
 65
   257
176
     1
 75
     1
176
     1
175
     1
176
     1
 42
40.0
176
     1
 92
        8
176
     1
 66
     7
176
     1
 43
1.0
176
     1
 76
     1
176
     1
 77
     6
176
     1
 78
     2
176
     1
 67
     7
176
     1
 79
     3
176
     1
170
     0
176
     1
171
     0
176
     1
290
     0
176
     1
 93
        1
176
     1
 44
0.0
176
     1
173
     0
176
     1
  0
VISUALSTYLE
  5
35
102
{ACAD_REACTORS
330
2A
102
}
330
2A
100
AcDbVisualStyle
  2
Dim
 70
    11
177
     2
291
     1
 71
     2
176
     1
 72
     2
176
     1
 73
     0
176
     1
 90
        0
176
     1
 40
-0.6
176
     1
 41
-30.0
176
     1
 62
     5
 63
     7
421
 16777215
176
     1
 74
     1
176
     1
 91
        4
176
     1
 64
     7
176
     1
 65
   257
176
     1
 75
     1
176
     1
175
     1
176
     1
 42
1.0
176
     1
 92
        8
176
     1
 66
     7
176
     1
 43
1.0
176
     1
 76
     1
176
     1
 77
     6
176
     1
 78
     2
176
     1
 67
     7
176
     1
 79
     5
176
     1
170
     0
176
     1
171
     0
176
     1
290
     0
176
     1
 93
        1
176
     1
 44
-50.0
176
     1
173
     0
176
     1
  0
VISUALSTYLE
  5
39
102
{ACAD_REACTORS
330
2A
102
}
330
2A
100
AcDbVisualStyle
  2
Facepattern
 70
    15
177
     2
291
     1
 71
     2
176
     1
 72
     2
176
     1
 73
     0
176
     1
 90
        0
176
     1
 40
-0.6
176
     1
 41
-30.0
176
     1
 62
     5
 63
     7
421
 16777215
176
     1
 74
     1
176
     1
 91
        4
176
     1
 64
     7
176
     1
 65
   257
176
     1
 75
     1
176
     1
175
     1
176
     1
 42
1.0
176
     1
 92
        8
176
     1
 66
     7
176
     1
 43
1.0
176
     1
 76
     1
176
     1
 77
     6
176
     1
 78
     2
176
     1
 67
     7
176
     1
 79
     5
176
     1
170
     0
176
     1
171
     0
176
     1
290
     0
176
     1
 93
        1
176
     1
 44
0.0
176
     1
173
     0
176
     1
  0
VISUALSTYLE
  5
2B
102
{ACAD_REACTORS
330
2A
102
}
330
2A
100
AcDbVisualStyle
  2
Flat
 70
     0
177
     2
291
     1
 71
     2
176
     1
 72
     1
176
     1
 73
     1
176
     1
 90
        2
176
     1
 40
-0.6
176
     1
 41
30.0
176
     1
 62
     5
 63
     7
421
 16777215
176
     1
 74
     0
176
     1
 91
        4
176
     1
 64
     7
176
     1
 65
   257
176
     1
 75
     1
176
     1
175
     1
176
     1
 42
1.0
176
     1
 92
        8
176
     1
 66
     7
176
     1
 43
1.0
176
     1
 76
     1
176
     1
 77
     6
176
     1
 78
     2
176
     1
 67
     7
176
     1
 79
     5
176
     1
170
     0
176
     1
171
     0
176
     1
290
     0
176
     1
 93
       13
176
     1
 44
0.0
176
     1
173
     0
176
     1
  0
VISUALSTYLE
  5
2C
102
{ACAD_REACTORS
330
2A
102
}
330
2A
100
AcDbVisualStyle
  2
FlatWithEdges
 70
     1
177
     2
291
     1
 71
     2
176
     1
 72
     1
176
     1
 73
     1
176
     1
 90
        2
176
     1
 40
-0.6
176
     1
 41
30.0
176
     1
 62
     5
 63
     7
421
 16777215
176
     1
 74
     1
176
     1
 91
        4
176
     1
 64
     7
176
     1
 65
   257
176
     1
 75
     1
176
     1
175
     1
176
     1
 42
1.0
176
     1
 92
        0
176
     1
 66
   257
176
     1
 43
1.0
176
     1
 76
     1
176
     1
 77
     6
176
     1
 78
     2
176
     1
 67
     7
176
     1
 79
     5
176
     1
170
     0
176
     1
171
     0
176
     1
290
     0
176
     1
 93
       13
176
     1
 44
0.0
176
     1
173
     0
176
     1
  0
VISUALSTYLE
  5
2D
102
{ACAD_REACTORS
330
2A
102
}
330
2A
100
AcDbVisualStyle
  2
Gouraud
 70
     2
177
     2
291
     1
 71
     2
176
     1
 72
     2
176
     1
 73
     1
176
     1
 90
        2
176
     1
 40
-0.6
176
     1
 41
30.0
176
     1
 62
     5
 63
     7
421
 16777215
176
     1
 74
     0
176
     1
 91
        4
176
     1
 64
     7
176
     1
 65
   257
176
     1
 75
     1
176
     1
175
     1
176
     1
 42
1.0
176
     1
 92
        0
176
     1
 66
     7
176
     1
 43
1.0
176
     1
 76
     1
176
     1
 77
     6
176
     1
 78
     2
176
     1
 67
     7
176
     1
 79
     5
176
     1
170
     0
176
     1
171
     0
176
     1
290
     0
176
     1
 93
       13
176
     1
 44
0.0
176
     1
173
     0
176
     1
  0
VISUALSTYLE
  5
2E
102
{ACAD_REACTORS
330
2A
102
}
330
2A
100
AcDbVisualStyle
  2
GouraudWithEdges
 70
     3
177
     2
291
     1
 71
     2
176
     1
 72
     2
176
     1
 73
     1
176
     1
 90
        2
176
     1
 40
-0.6
176
     1
 41
30.0
176
     1
 62
     5
 63
     7
421
 16777215
176
     1
 74
     1
176
     1
 91
        4
176
     1
 64
     7
176
     1
 65
   257
176
     1
 75
     1
176
     1
175
     1
176
     1
 42
1.0
176
     1
 92
        0
176
     1
 66
   257
176
     1
 43
1.0
176
     1
 76
     1
176
     1
 77
     6
176
     1
 78
     2
176
     1
 67
     7
176
     1
 79
     5
176
     1
170
     0
176
     1
171
     0
176
     1
290
     0
176
     1
 93
       13
176
     1
 44
0.0
176
     1
173
     0
176
     1
  0
VISUALSTYLE
  5
38
102
{ACAD_REACTORS
330
2A
102
}
330
2A
100
AcDbVisualStyle
  2
Linepattern
 70
    14
177
     2
291
     1
 71
     2
176
     1
 72
     2
176
     1
 73
     0
176
     1
 90
        0
176
     1
 40
-0.6
176
     1
 41
-30.0
176
     1
 62
     5
 63
     7
421
 16777215
176
     1
 74
     1
176
     1
 91
        4
176
     1
 64
     7
176
     1
 65
   257
176
     1
 75
     7
176
     1
175
     7
176
     1
 42
1.0
176
     1
 92
        8
176
     1
 66
     7
176
     1
 43
1.0
176
     1
 76
     1
176
     1
 77
     6
176
     1
 78
     2
176
     1
 67
     7
176
     1
 79
     5
176
     1
170
     0
176
     1
171
     0
176
     1
290
     0
176
     1
 93
        1
176
     1
 44
0.0
176
     1
173
     0
176
     1
  0
VISUALSTYLE
  5
33
102
{ACAD_REACTORS
330
2A
102
}
330
2A
100
AcDbVisualStyle
  2
Realistic
 70
     8
177
     2
291
     0
 71
     2
176
     1
 72
     2
176
     1
 73
     0
176
     1
 90
        0
176
     1
 40
-0.6
176
     1
 41
-30.0
176
     1
 62
     5
 63
     7
421
 16777215
176
     1
 74
     1
176
     1
 91
        0
176
     1
 64
     7
176
     1
 65
   257
176
     1
 75
     1
176
     1
175
     1
176
     1
 42
1.0
176
     1
 92
        8
176
     1
 66
     8
424
  7895160
176
     1
 43
1.0
176
     1
 76
     1
176
     1
 77
     6
176
     1
 78
     2
176
     1
 67
     7
176
     1
 79
     5
176
     1
170
     0
176
     1
171
     0
176
     1
290
     0
176
     1
 93
       13
176
     1
 44
0.0
176
     1
173
     0
176
     1
  0
VISUALSTYLE
  5
37
102
{ACAD_REACTORS
330
2A
102
}
330
2A
100
AcDbVisualStyle
  2
Thicken
 70
    13
177
     2
291
     1
 71
     2
176
     1
 72
     2
176
     1
 73
     0
176
     1
 90
        0
176
     1
 40
-0.6
176
     1
 41
-30.0
176
     1
 62
     5
 63
     7
421
 16777215
176
     1
 74
     1
176
     1
 91
        4
176
     1
 64
     7
176
     1
 65
   257
176
     1
 75
     1
176
     1
175
     1
176
     1
 42
1.0
176
     1
 92
       12
176
     1
 66
     7
176
     1
 43
1.0
176
     1
 76
     1
176
     1
 77
     6
176
     1
 78
     2
176
     1
 67
     7
176
     1
 79
     5
176
     1
170
     0
176
     1
171
     0
176
     1
290
     0
176
     1
 93
        1
176
     1
 44
0.0
176
     1
173
     0
176
     1
  0
ENDSEC
  0
EOF
